<svg width="24" height="24" viewBox="0 0 24 24" fill="none" xmlns="http://www.w3.org/2000/svg">
<g id="material-symbols:manage-accounts-outline-rounded" clip-path="url(#clip0_487_396)">
<path id="Vector" d="M8 15.0002C6.9 15.0002 5.95834 14.6086 5.175 13.8252C4.39167 13.0419 4 12.1002 4 11.0002C4 9.90024 4.39167 8.95858 5.175 8.17524C5.95834 7.39191 6.9 7.00024 8 7.00024C9.1 7.00024 10.0417 7.39191 10.825 8.17524C11.6083 8.95858 12 9.90024 12 11.0002C12 12.1002 11.6083 13.0419 10.825 13.8252C10.0417 14.6086 9.1 15.0002 8 15.0002ZM1 23.0002C0.71667 23.0002 0.479003 22.9042 0.287003 22.7122C0.0950034 22.5202 -0.000663206 22.2829 3.46021e-06 22.0002V20.2002C3.46021e-06 19.6502 0.14167 19.1336 0.425003 18.6502C0.708337 18.1669 1.1 17.8002 1.6 17.5502C2.45 17.1169 3.40834 16.7502 4.475 16.4502C5.54167 16.1502 6.71667 16.0002 8 16.0002H8.35C8.45 16.0002 8.55 16.0169 8.65 16.0502C8.51667 16.3502 8.404 16.6629 8.312 16.9882C8.22 17.3136 8.14934 17.6509 8.1 18.0002H8C6.81667 18.0002 5.75434 18.1502 4.813 18.4502C3.87167 18.7502 3.10067 19.0502 2.5 19.3502C2.35 19.4336 2.229 19.5502 2.137 19.7002C2.045 19.8502 1.99934 20.0169 2 20.2002V21.0002H8.3C8.4 21.3502 8.53334 21.6962 8.7 22.0382C8.86667 22.3802 9.05 22.7009 9.25 23.0002H1ZM8 13.0002C8.55 13.0002 9.021 12.8042 9.413 12.4122C9.805 12.0202 10.0007 11.5496 10 11.0002C10 10.4502 9.804 9.97924 9.412 9.58724C9.02 9.19524 8.54934 8.99958 8 9.00024C7.45 9.00024 6.979 9.19624 6.587 9.58824C6.195 9.98024 5.99934 10.4509 6 11.0002C6 11.5502 6.196 12.0212 6.588 12.4132C6.98 12.8052 7.45067 13.0009 8 13.0002ZM15 21.0002C15.55 21.0002 16.021 20.8042 16.413 20.4122C16.805 20.0202 17.0007 19.5496 17 19.0002C17 18.4502 16.804 17.9792 16.412 17.5872C16.02 17.1952 15.5493 16.9996 15 17.0002C14.45 17.0002 13.979 17.1962 13.587 17.5882C13.195 17.9802 12.9993 18.4509 13 19.0002C13 19.5502 13.196 20.0212 13.588 20.4132C13.98 20.8052 14.4507 21.0009 15 21.0002ZM13.7 22.5002C13.5 22.4169 13.3123 22.3292 13.137 22.2372C12.9617 22.1452 12.7827 22.0329 12.6 21.9002L11.525 22.2252C11.4083 22.2586 11.3 22.2542 11.2 22.2122C11.1 22.1702 11.0167 22.0996 10.95 22.0002L10.35 21.0002C10.2833 20.9002 10.2627 20.7919 10.288 20.6752C10.3133 20.5586 10.3757 20.4586 10.475 20.3752L11.3 19.6502C11.2667 19.4169 11.25 19.2002 11.25 19.0002C11.25 18.8002 11.2667 18.5836 11.3 18.3502L10.475 17.6252C10.375 17.5419 10.3127 17.4419 10.288 17.3252C10.2633 17.2086 10.284 17.1002 10.35 17.0002L10.95 16.0002C11.0167 15.9002 11.1 15.8296 11.2 15.7882C11.3 15.7469 11.4083 15.7426 11.525 15.7752L12.6 16.1002C12.7833 15.9669 12.9627 15.8546 13.138 15.7632C13.3133 15.6719 13.5007 15.5842 13.7 15.5002L13.925 14.4002C13.9583 14.2836 14.0167 14.1876 14.1 14.1122C14.1833 14.0369 14.2833 13.9996 14.4 14.0002H15.6C15.7167 14.0002 15.8167 14.0379 15.9 14.1132C15.9833 14.1886 16.0417 14.2842 16.075 14.4002L16.3 15.5002C16.5 15.5836 16.6877 15.6752 16.863 15.7752C17.0383 15.8752 17.2173 16.0002 17.4 16.1502L18.45 15.7752C18.5667 15.7252 18.6793 15.7252 18.788 15.7752C18.8967 15.8252 18.984 15.9002 19.05 16.0002L19.65 17.0502C19.7167 17.1502 19.7417 17.2586 19.725 17.3752C19.7083 17.4919 19.65 17.5919 19.55 17.6752L18.7 18.4002C18.7333 18.6002 18.75 18.8086 18.75 19.0252C18.75 19.2419 18.7333 19.4502 18.7 19.6502L19.525 20.3752C19.625 20.4586 19.6877 20.5586 19.713 20.6752C19.7383 20.7919 19.7173 20.9002 19.65 21.0002L19.05 22.0002C18.9833 22.1002 18.9 22.1712 18.8 22.2132C18.7 22.2552 18.5917 22.2592 18.475 22.2252L17.4 21.9002C17.2167 22.0336 17.0377 22.1462 16.863 22.2382C16.6883 22.3302 16.5007 22.4176 16.3 22.5002L16.075 23.6002C16.0417 23.7169 15.9833 23.8129 15.9 23.8882C15.8167 23.9636 15.7167 24.0009 15.6 24.0002H14.4C14.2833 24.0002 14.1833 23.9629 14.1 23.8882C14.0167 23.8136 13.9583 23.7176 13.925 23.6002L13.7 22.5002Z" fill="#78B0A3"/>
</g>
<defs>
<clipPath id="clip0_487_396">
<rect width="24" height="24" fill="white" transform="translate(0 0.000244141)"/>
</clipPath>
</defs>
</svg>
