<svg width="16" height="19" viewBox="0 0 16 19" fill="none" xmlns="http://www.w3.org/2000/svg">
<path id="Shape" d="M8.2375 4.38461C9.125 4.38461 10.2375 3.80483 10.9 3.03179C11.5 2.33121 11.9375 1.35283 11.9375 0.374444C11.9375 0.241577 11.925 0.108709 11.9 0C10.9125 0.0362365 9.725 0.640178 9.0125 1.44946C8.45 2.06548 7.9375 3.03179 7.9375 4.02225C7.9375 4.1672 7.9625 4.31214 7.975 4.36046C8.0375 4.37254 8.1375 4.38461 8.2375 4.38461ZM5.1125 19C6.325 19 6.8625 18.2149 8.375 18.2149C9.9125 18.2149 10.25 18.9758 11.6 18.9758C12.925 18.9758 13.8125 17.7921 14.65 16.6325C15.5875 15.3039 15.975 13.9994 16 13.939C15.9125 13.9148 13.375 12.9123 13.375 10.0979C13.375 7.65798 15.375 6.5588 15.4875 6.47425C14.1625 4.63827 12.15 4.58996 11.6 4.58996C10.1125 4.58996 8.9 5.45963 8.1375 5.45963C7.3125 5.45963 6.225 4.63827 4.9375 4.63827C2.4875 4.63827 0 6.59504 0 10.2912C0 12.5861 0.925 15.014 2.0625 16.5842C3.0375 17.9129 3.8875 19 5.1125 19Z" fill="black"/>
</svg>
