<svg width="4" height="7" viewBox="0 0 4 7" fill="none" xmlns="http://www.w3.org/2000/svg">
<path id="Vector" d="M3.90873 3.63216L0.629127 6.75699C0.574406 6.80916 0.501704 6.83826 0.426102 6.83826C0.350499 6.83826 0.277798 6.80916 0.223077 6.75699L0.219545 6.75346C0.192925 6.72817 0.171729 6.69773 0.157244 6.66399C0.142759 6.63025 0.13529 6.59392 0.13529 6.5572C0.13529 6.52048 0.142759 6.48415 0.157244 6.45041C0.171729 6.41667 0.192925 6.38623 0.219545 6.36094L3.30789 3.41854L0.219545 0.47732C0.192925 0.452032 0.171728 0.421591 0.157244 0.387852C0.142759 0.354113 0.135289 0.31778 0.135289 0.281063C0.135289 0.244345 0.142759 0.208012 0.157244 0.174273C0.171728 0.140534 0.192925 0.110093 0.219545 0.0848047L0.223076 0.0812732C0.277798 0.0291077 0.350499 6.83524e-06 0.426102 6.83194e-06C0.501704 6.82864e-06 0.574406 0.0291077 0.629127 0.0812732L3.90873 3.2061C3.93757 3.23358 3.96053 3.26663 3.97622 3.30325C3.99191 3.33987 4 3.37929 4 3.41913C4 3.45897 3.99191 3.49839 3.97622 3.53501C3.96053 3.57163 3.93757 3.60468 3.90873 3.63216Z" fill="white"/>
</svg>
