<svg width="9" height="14" viewBox="0 0 9 14" fill="none" xmlns="http://www.w3.org/2000/svg">
<path id="Vector" fill-rule="evenodd" clip-rule="evenodd" d="M1.11505 7.55378C0.927581 7.36625 0.822266 7.11194 0.822266 6.84678C0.822266 6.58161 0.927581 6.32731 1.11505 6.13978L6.77205 0.482779C6.8643 0.387268 6.97464 0.311086 7.09665 0.258677C7.21865 0.206268 7.34987 0.178682 7.48265 0.177528C7.61543 0.176374 7.74711 0.201676 7.87001 0.251957C7.9929 0.302238 8.10455 0.376491 8.19845 0.470384C8.29234 0.564276 8.36659 0.675928 8.41687 0.798824C8.46715 0.921721 8.49246 1.0534 8.4913 1.18618C8.49015 1.31896 8.46256 1.45018 8.41015 1.57218C8.35774 1.69419 8.28156 1.80453 8.18605 1.89678L3.23605 6.84678L8.18605 11.7968C8.36821 11.9854 8.469 12.238 8.46673 12.5002C8.46445 12.7624 8.35928 13.0132 8.17387 13.1986C7.98846 13.384 7.73765 13.4892 7.47545 13.4915C7.21326 13.4937 6.96065 13.3929 6.77205 13.2108L1.11505 7.55378Z" fill="white"/>
</svg>
