 <svg width="17" height="24" viewBox="0 0 17 24" fill="none" xmlns="http://www.w3.org/2000/svg">
<path id="Vector" d="M16.3601 0.477844H12.0947C11.925 0.477844 11.7622 0.545253 11.6422 0.665242C11.5223 0.785231 11.4548 0.94797 11.4548 1.11766C11.4548 1.28735 11.5223 1.45009 11.6422 1.57008C11.7622 1.69007 11.925 1.75748 12.0947 1.75748H14.816L11.6169 4.95016C10.8644 4.20443 9.94368 3.65047 8.93232 3.33494C7.92097 3.01941 6.84859 2.95154 5.80552 3.13706C4.76245 3.32257 3.77924 3.75604 2.9387 4.40095C2.09816 5.04585 1.42491 5.88331 0.975663 6.84277C0.526411 7.80224 0.314313 8.85562 0.357235 9.91419C0.400157 10.9728 0.696842 12.0055 1.2223 12.9255C1.74776 13.8454 2.4866 14.6256 3.37659 15.2003C4.26658 15.7751 5.28166 16.1275 6.33632 16.228V18.3927H3.56379C3.3941 18.3927 3.23136 18.4601 3.11137 18.5801C2.99138 18.7001 2.92397 18.8628 2.92397 19.0325C2.92397 19.2022 2.99138 19.3649 3.11137 19.4849C3.23136 19.6049 3.3941 19.6723 3.56379 19.6723H6.33632V22.4449C6.33632 22.6145 6.40373 22.7773 6.52372 22.8973C6.64371 23.0173 6.80645 23.0847 6.97614 23.0847C7.14583 23.0847 7.30857 23.0173 7.42856 22.8973C7.54854 22.7773 7.61595 22.6145 7.61595 22.4449V19.6723H10.3885C10.5582 19.6723 10.7209 19.6049 10.8409 19.4849C10.9609 19.3649 11.0283 19.2022 11.0283 19.0325C11.0283 18.8628 10.9609 18.7001 10.8409 18.5801C10.7209 18.4601 10.5582 18.3927 10.3885 18.3927H7.61595V16.228C8.75689 16.1164 9.84921 15.71 10.7857 15.0488C11.7222 14.3876 12.4706 13.4942 12.9576 12.4564C13.4445 11.4186 13.6533 10.272 13.5633 9.12912C13.4734 7.98626 13.0878 6.88644 12.4444 5.93761L15.7203 2.66175V5.3831C15.7203 5.55279 15.7877 5.71553 15.9077 5.83552C16.0277 5.9555 16.1904 6.02291 16.3601 6.02291C16.5298 6.02291 16.6925 5.9555 16.8125 5.83552C16.9325 5.71553 16.9999 5.55279 16.9999 5.3831V1.11766C16.9999 0.94797 16.9325 0.785231 16.8125 0.665242C16.6925 0.545253 16.5298 0.477844 16.3601 0.477844ZM6.97614 14.9803C5.92161 14.9803 4.89076 14.6676 4.01395 14.0818C3.13714 13.4959 2.45375 12.6632 2.0502 11.6889C1.64665 10.7147 1.54106 9.64262 1.74679 8.60835C1.95252 7.57409 2.46032 6.62405 3.20599 5.87839C3.95165 5.13272 4.90169 4.62492 5.93596 4.41919C6.97022 4.21346 8.04227 4.31905 9.01653 4.7226C9.99079 5.12615 10.8235 5.80954 11.4094 6.68635C11.9952 7.56316 12.3079 8.59401 12.3079 9.64854C12.3062 11.0621 11.744 12.4173 10.7444 13.4168C9.74488 14.4164 8.3897 14.9786 6.97614 14.9803Z" fill="white"/>
</svg>
