<svg width="34" height="45" viewBox="0 0 34 45" fill="none" xmlns="http://www.w3.org/2000/svg">
<g id="Group 1171275422">
<path id="Vector" d="M16.7143 44.5714C25.9461 44.5714 33.4286 39 33.4286 29.25C33.4286 25.0714 32.0357 18.1071 26.4643 12.5357C27.1607 16.7143 22.9821 18.1071 22.9821 18.1071C25.0714 11.1429 19.5 1.39286 11.1429 0C12.1374 5.57143 12.5357 11.1429 5.57143 16.7143C2.08929 19.5 0 24.3165 0 29.25C0 39 7.48243 44.5714 16.7143 44.5714ZM16.7143 41.7857C12.0984 41.7857 8.35714 39 8.35714 34.125C8.35714 32.0357 9.05357 28.5536 11.8393 25.7679C11.4911 27.8571 13.9286 29.25 13.9286 29.25C12.8839 25.7679 15.3214 20.1964 19.5 19.5C19.0014 22.2857 18.8036 25.0714 22.2857 27.8571C24.0268 29.25 25.0714 31.6569 25.0714 34.125C25.0714 39 21.3302 41.7857 16.7143 41.7857Z" fill="#78B0A3"/>
</g>
</svg>
