<svg width="40" height="36" viewBox="0 0 40 36" fill="none" xmlns="http://www.w3.org/2000/svg">
<path id="Vector" d="M27.414 9.55752C27.0731 9.55752 26.7781 9.43142 26.529 9.1792C26.2799 8.92699 26.1554 8.62832 26.1554 8.28319C26.1554 7.60619 26.2799 6.95575 26.529 6.33186C26.7781 5.70796 27.1452 5.15708 27.6303 4.6792L29.1839 3.08628C29.6821 2.58186 29.9312 1.97788 29.9312 1.27434C29.9312 0.929204 30.0557 0.630531 30.3048 0.378319C30.5539 0.126106 30.8489 0 31.1898 0C31.5306 0 31.8256 0.126106 32.0747 0.378319C32.3238 0.630531 32.4484 0.929204 32.4484 1.27434C32.4484 1.95133 32.3238 2.60177 32.0747 3.22566C31.8256 3.84956 31.4585 4.40044 30.9734 4.87832L29.4199 6.47124C28.9217 6.97566 28.6726 7.57965 28.6726 8.28319C28.6726 8.62832 28.548 8.92699 28.2989 9.1792C28.0498 9.43142 27.7548 9.55752 27.414 9.55752ZM19.8623 9.55752C19.5215 9.55752 19.2265 9.43142 18.9774 9.1792C18.7283 8.92699 18.6037 8.62832 18.6037 8.28319C18.6037 7.60619 18.7283 6.95575 18.9774 6.33186C19.2265 5.70796 19.5936 5.15708 20.0787 4.6792L21.6323 3.08628C22.1304 2.58186 22.3795 1.97788 22.3795 1.27434C22.3795 0.929204 22.5041 0.630531 22.7532 0.378319C23.0023 0.126106 23.2973 0 23.6382 0C23.979 0 24.274 0.126106 24.5231 0.378319C24.7722 0.630531 24.8968 0.929204 24.8968 1.27434C24.8968 1.95133 24.7722 2.60177 24.5231 3.22566C24.274 3.84956 23.9069 4.40044 23.4218 4.87832L21.8682 6.47124C21.37 6.97566 21.1209 7.57965 21.1209 8.28319C21.1209 8.62832 20.9964 8.92699 20.7473 9.1792C20.4982 9.43142 20.2032 9.55752 19.8623 9.55752ZM36.2242 13.0619C36.7486 13.0619 37.2402 13.1615 37.6991 13.3606C38.158 13.5597 38.5578 13.8319 38.8987 14.177C39.2396 14.5221 39.5084 14.927 39.705 15.3916C39.9017 15.8562 40 16.354 40 16.885V24.531C40 25.0619 39.9017 25.5597 39.705 26.0243C39.5084 26.4889 39.2396 26.8938 38.8987 27.2389C38.5578 27.5841 38.158 27.8562 37.6991 28.0553C37.2402 28.2544 36.7486 28.354 36.2242 28.354H35.1032C35.077 28.4469 35.0574 28.5332 35.0442 28.6128C35.0311 28.6925 35.0049 28.7721 34.9656 28.8518V29.6283C34.9656 30.5044 34.8017 31.3274 34.4739 32.0973C34.1462 32.8673 33.6939 33.5442 33.117 34.1283C32.5401 34.7124 31.8715 35.1704 31.1111 35.5022C30.3507 35.8341 29.5379 36 28.6726 36H21.1209C20.0983 36 19.1544 35.7677 18.2891 35.3031C17.4238 34.8385 16.7027 34.2212 16.1259 33.4513H6.29302C5.42773 33.4513 4.61488 33.2854 3.85447 32.9535C3.09407 32.6217 2.42543 32.1704 1.84857 31.5996C1.27171 31.0288 0.819403 30.3518 0.491642 29.5686C0.163881 28.7854 0 27.9558 0 27.0796V25.8053H5.03441C5.03441 24.7566 5.23107 23.7677 5.62439 22.8385C6.0177 21.9093 6.56178 21.0996 7.25664 20.4093C7.95149 19.719 8.75123 19.1681 9.65585 18.7566C10.5605 18.3451 11.5372 18.146 12.586 18.1593C12.9794 18.1593 13.3596 18.1925 13.7266 18.2589C14.0937 18.3252 14.4608 18.4181 14.8279 18.5376V10.5133H34.9656V13.0619H36.2242ZM12.586 20.708C11.8912 20.708 11.2422 20.8407 10.6391 21.1062C10.0361 21.3717 9.49852 21.7367 9.02655 22.2013C8.55457 22.6659 8.19403 23.2035 7.94494 23.8142C7.69584 24.4248 7.56473 25.0885 7.55162 25.8053H14.8279V21.2655C14.4871 21.0929 14.1331 20.9602 13.766 20.8673C13.3989 20.7743 13.0056 20.7212 12.586 20.708ZM6.29302 30.9027H14.9656C14.8738 30.5177 14.8279 30.0929 14.8279 29.6283V28.354H2.73353C2.86463 28.7257 3.04818 29.0642 3.28417 29.3695C3.52016 29.6748 3.78892 29.9469 4.09046 30.1858C4.392 30.4248 4.73287 30.5973 5.11308 30.7035C5.49328 30.8097 5.88659 30.8761 6.29302 30.9027ZM15.3982 32.2367V32.2566L15.4179 32.2965V32.2766L15.3982 32.2367ZM32.4484 29.6283V13.0619H17.3451V29.6283C17.3451 30.1593 17.4435 30.6571 17.6401 31.1217C17.8368 31.5863 18.1055 31.9912 18.4464 32.3363C18.7873 32.6814 19.1872 32.9535 19.646 33.1527C20.1049 33.3518 20.5965 33.4513 21.1209 33.4513H28.6726C29.197 33.4513 29.6886 33.3518 30.1475 33.1527C30.6064 32.9535 31.0062 32.6814 31.3471 32.3363C31.688 31.9912 31.9567 31.5863 32.1534 31.1217C32.35 30.6571 32.4484 30.1593 32.4484 29.6283ZM37.4828 24.531V16.885C37.4828 16.5398 37.3582 16.2411 37.1091 15.9889C36.86 15.7367 36.5651 15.6106 36.2242 15.6106H34.9656V25.8053H36.2242C36.5651 25.8053 36.86 25.6792 37.1091 25.427C37.3582 25.1748 37.4828 24.8761 37.4828 24.531Z" fill="black" fill-opacity="0.5"/>
</svg>
