<svg width="24" height="25" viewBox="0 0 24 25" fill="none" xmlns="http://www.w3.org/2000/svg">
<g id="Capa 2">
<g id="Outline">
<g id="FriedEgg">
<path id="Vector" d="M10.3385 8.31036C9.39692 8.31049 8.47648 8.5913 7.69362 9.1173C6.91075 9.6433 6.30061 10.3909 5.94036 11.2654C5.5801 12.14 5.48591 13.1024 5.66969 14.0308C5.85346 14.9592 6.30696 15.812 6.97283 16.4813C7.63869 17.1506 8.48703 17.6064 9.41056 17.791C10.3341 17.9756 11.2914 17.8808 12.1613 17.5185C13.0312 17.1562 13.7747 16.5428 14.2979 15.7557C14.821 14.9686 15.1002 14.0432 15.1002 13.0966C15.0987 11.8276 14.5965 10.611 13.7039 9.71367C12.8112 8.81638 11.6009 8.3117 10.3385 8.31036ZM10.3385 16.8092C9.60816 16.8091 8.89422 16.5912 8.287 16.1832C7.67978 15.7752 7.20654 15.1953 6.92712 14.5169C6.6477 13.8385 6.57466 13.0921 6.71722 12.372C6.85979 11.6518 7.21156 10.9904 7.72806 10.4712C8.24456 9.9521 8.90258 9.59857 9.61893 9.45537C10.3353 9.31218 11.0778 9.38573 11.7526 9.66675C12.4273 9.94776 13.004 10.4236 13.4098 11.0341C13.8156 11.6446 14.0321 12.3624 14.0321 13.0966C14.031 14.081 13.6414 15.0247 12.949 15.7207C12.2565 16.4167 11.3177 16.8082 10.3385 16.8092Z" fill="#78B0A3"/>
<path id="Vector_2" d="M24 9.87445C24 4.43005 19.5926 0 14.1769 0C12.6139 0.000862736 11.0736 0.376252 9.68366 1.09505C8.29375 1.81384 7.09429 2.85534 6.1847 4.1332C4.3392 4.98608 2.77568 6.35308 1.6795 8.07211C0.583315 9.79115 0.000448182 11.7901 0 13.8321C0 19.7135 4.75915 24.4979 10.6096 24.4979C11.4894 24.4982 12.3658 24.3889 13.2188 24.1726C14.4658 24.8416 15.8914 25.0966 17.2914 24.9011C18.6914 24.7056 19.9939 24.0696 21.0122 23.0842C22.0305 22.0988 22.7125 20.8146 22.9603 19.4157C23.208 18.0168 23.009 16.5749 22.3916 15.2967C23.4461 13.6875 24.0055 11.8015 24 9.87445ZM16.3671 23.8871C15.3806 23.8867 14.4116 23.6253 13.5575 23.1292C13.4762 23.0818 13.3838 23.057 13.2898 23.0572C13.2421 23.0573 13.1945 23.0636 13.1485 23.0762C12.3213 23.3045 11.4674 23.4201 10.6096 23.4198C5.34847 23.421 1.06806 19.1186 1.06806 13.8321C1.06804 11.9724 1.6053 10.1527 2.61456 8.59418C3.62383 7.03566 5.06164 5.80537 6.75329 5.05281C6.84216 5.01242 6.9184 4.94844 6.97381 4.86775C7.78031 3.69746 8.85684 2.74102 10.1113 2.08028C11.3657 1.41954 12.7607 1.07417 14.1769 1.07372C19.0039 1.07372 22.9319 5.02186 22.9319 9.87445C22.9359 11.6908 22.377 13.4632 21.3329 14.9456C21.2753 15.0279 21.2418 15.1248 21.2362 15.2253C21.2307 15.3258 21.2533 15.4258 21.3015 15.514C21.7708 16.3753 22.009 17.3446 21.9925 18.3265C21.976 19.3085 21.7055 20.2691 21.2076 21.114C20.7097 21.959 20.0015 22.659 19.1528 23.1452C18.304 23.6314 17.344 23.8871 16.3671 23.8871Z" fill="#78B0A3"/>
<path id="Vector_3" d="M9.94724 15.7046C9.45215 15.6287 8.98896 15.4121 8.61227 15.0803C8.23559 14.7485 7.9611 14.3154 7.82117 13.8319C7.80492 13.7756 7.76707 13.728 7.71593 13.6997C7.6648 13.6714 7.60457 13.6647 7.5485 13.681C7.49243 13.6973 7.44511 13.7354 7.41695 13.7868C7.38879 13.8382 7.3821 13.8987 7.39834 13.9551C7.5623 14.5193 7.88314 15.0247 8.32311 15.4119C8.76308 15.799 9.30389 16.0518 9.8819 16.1404C9.89299 16.1411 9.90411 16.1411 9.9152 16.1404C9.97352 16.1447 10.0311 16.1255 10.0754 16.0871C10.1196 16.0486 10.1469 15.9941 10.1511 15.9355C10.1554 15.8769 10.1363 15.8189 10.098 15.7745C10.0598 15.73 10.0056 15.7026 9.94724 15.6983V15.7046Z" fill="#78B0A3"/>
</g>
</g>
</g>
</svg>
