<svg width="39" height="39" viewBox="0 0 39 39" fill="none" xmlns="http://www.w3.org/2000/svg">
<g id="pajamas:food">
<path id="Vector" fill-rule="evenodd" clip-rule="evenodd" d="M16.4532 2.4375C12.736 2.4375 9.17105 3.91414 6.54261 6.54258C3.91417 9.17102 2.43753 12.736 2.43753 16.4531V17.7158C1.69649 18.1436 1.08114 18.759 0.653308 19.5001C0.225478 20.2412 0.000244141 21.0818 0.000244141 21.9375C0.000244141 22.7932 0.225478 23.6338 0.653308 24.3749C1.08114 25.116 1.69649 25.7314 2.43753 26.1593V29.8594C2.43753 31.6372 3.14375 33.3421 4.40083 34.5992C5.65791 35.8563 7.36288 36.5625 9.14065 36.5625H29.8594C31.6372 36.5625 33.3422 35.8563 34.5992 34.5992C35.8563 33.3421 36.5625 31.6372 36.5625 29.8594V26.1593C37.3036 25.7314 37.9189 25.116 38.3468 24.3749C38.7746 23.6338 38.9998 22.7932 38.9998 21.9375C38.9998 21.0818 38.7746 20.2412 38.3468 19.5001C37.9189 18.759 37.3036 18.1436 36.5625 17.7158V16.4531C36.5625 12.736 35.0859 9.17102 32.4574 6.54258C29.829 3.91414 26.2641 2.4375 22.5469 2.4375H16.4532ZM34.125 20.7188H4.87503C4.5518 20.7188 4.2418 20.8472 4.01324 21.0757C3.78468 21.3043 3.65628 21.6143 3.65628 21.9375C3.65628 22.2607 3.78468 22.5707 4.01324 22.7993C4.2418 23.0278 4.5518 23.1562 4.87503 23.1562H34.125C34.4483 23.1562 34.7583 23.0278 34.9868 22.7993C35.2154 22.5707 35.3438 22.2607 35.3438 21.9375C35.3438 21.6143 35.2154 21.3043 34.9868 21.0757C34.7583 20.8472 34.4483 20.7188 34.125 20.7188ZM32.9063 17.0625V16.4531C32.9063 13.7056 31.8148 11.0707 29.8721 9.12794C27.9293 7.18518 25.2944 6.09375 22.5469 6.09375H16.4532C13.7057 6.09375 11.0707 7.18518 9.12797 9.12794C7.18521 11.0707 6.09378 13.7056 6.09378 16.4531V17.0625H32.9063ZM26.8125 26.8125H32.9063V29.8594C32.9063 31.5413 31.5413 32.9062 29.8594 32.9062H9.14065C7.45878 32.9062 6.09378 31.5413 6.09378 29.8594V26.8125H21.9375L24.375 29.25L26.8125 26.8125Z" fill="white"/>
</g>
</svg>
