<svg width="32" height="32" viewBox="0 0 32 32" fill="none" xmlns="http://www.w3.org/2000/svg">
<g id="material-symbols:add-a-photo">
<path id="Vector" d="M3.99968 29.3334C3.26634 29.3334 2.63834 29.072 2.11568 28.5494C1.59301 28.0267 1.33212 27.3991 1.33301 26.6667V10.6667C1.33301 9.93335 1.59434 9.30535 2.11701 8.78269C2.63968 8.26002 3.26723 7.99913 3.99968 8.00002H8.19968L10.6663 5.33335H18.6663V10.6667H22.6663V14.6667H27.9997V26.6667C27.9997 27.4 27.7383 28.028 27.2157 28.5507C26.693 29.0734 26.0655 29.3342 25.333 29.3334H3.99968ZM14.6663 24.6667C16.333 24.6667 17.7499 24.0831 18.917 22.916C20.0841 21.7489 20.6672 20.3325 20.6663 18.6667C20.6663 17 20.0828 15.5831 18.9157 14.416C17.7486 13.2489 16.3321 12.6658 14.6663 12.6667C12.9997 12.6667 11.5828 13.2502 10.4157 14.4174C9.24857 15.5845 8.66545 17.0009 8.66634 18.6667C8.66634 20.3334 9.2499 21.7502 10.417 22.9174C11.5841 24.0845 13.0006 24.6676 14.6663 24.6667ZM14.6663 22C13.733 22 12.9441 21.6778 12.2997 21.0334C11.6552 20.3889 11.333 19.6 11.333 18.6667C11.333 17.7334 11.6552 16.9445 12.2997 16.3C12.9441 15.6556 13.733 15.3334 14.6663 15.3334C15.5997 15.3334 16.3886 15.6556 17.033 16.3C17.6775 16.9445 17.9997 17.7334 17.9997 18.6667C17.9997 19.6 17.6775 20.3889 17.033 21.0334C16.3886 21.6778 15.5997 22 14.6663 22ZM25.333 10.6667V8.00002H22.6663V5.33335H25.333V2.66669H27.9997V5.33335H30.6663V8.00002H27.9997V10.6667H25.333Z" fill="white"/>
</g>
</svg>
