<svg width="21" height="25" viewBox="0 0 21 25" fill="none" xmlns="http://www.w3.org/2000/svg">
<path id="Vector" d="M10.5 3.96505L18.375 9.96505V21.965H2.625V9.96505L10.5 3.96505ZM10.5 0.631714L0 8.63171V24.6317H21V8.63171L10.5 0.631714ZM9.84375 9.29838V13.2984H9.1875V9.29838H7.875V13.2984H7.21875V9.29838H5.90625V13.2984C5.90625 14.405 6.78562 15.2984 7.875 15.2984V20.6317H9.1875V15.2984C10.2769 15.2984 11.1562 14.405 11.1562 13.2984V9.29838H9.84375ZM11.8125 11.965V15.965H13.125V20.6317H14.4375V9.29838C12.9937 9.29838 11.8125 10.4984 11.8125 11.965Z" fill="#B5B5B5"/>
</svg>
