<svg width="178" height="176" viewBox="0 0 178 176" fill="none" xmlns="http://www.w3.org/2000/svg">
<path d="M14.3357 143.463C14.989 144.533 15.6644 145.581 16.3691 146.604C25.7469 160.224 41.0083 169.318 55.7118 173.234C62.1533 174.952 68.7417 175.768 75.3006 175.849C118.314 176.36 133.138 138.9 146.737 128.989C160.332 119.075 181.154 102.208 177.598 68.0013C174.896 41.9955 160.072 17.4496 133.883 6.78543C130.999 5.6087 127.974 4.59744 124.814 3.7774C118.934 2.25133 112.581 1.36142 105.757 1.22168C86.1576 0.820859 70.3897 6.17132 55.1649 19.0014C51.6267 21.9837 48.1142 25.3374 43.4344 25.8154C40.032 26.1648 36.7654 24.966 40.2412 21.4284C44.3227 17.2694 39.2832 9.43308 28.797 15.2432C11.2709 24.9439 4.48442 45.0734 1.57015 65.4346C-2.00847 90.4292 0.843413 121.326 14.3394 143.459L14.3357 143.463Z" fill="#DCE8FF"/>
<g clip-path="url(#clip0_513_3910)">
<path d="M36.6981 14.9651C37.1866 11.9501 35.143 9.10915 32.1337 8.61974C29.1243 8.13033 26.2887 10.1778 25.8003 13.1928C25.3118 16.2078 27.3553 19.0487 30.3647 19.5381C33.3741 20.0275 36.2096 17.9801 36.6981 14.9651Z" fill="white" stroke="#263238" stroke-width="1.12135" stroke-miterlimit="10"/>
<path d="M31.2481 0.778137L8.56152 15.7521H53.9347L31.2481 0.778137Z" fill="#7793C7"/>
<path d="M177.568 82.7195H171.398V88.9047H177.568V82.7195Z" fill="#263238" stroke="#263238" stroke-width="1.12135" stroke-linecap="round" stroke-linejoin="round"/>
<path d="M177.568 89.1733H171.398V95.3549H177.568V89.1733Z" fill="white" stroke="#263238" stroke-width="1.12135" stroke-linecap="round" stroke-linejoin="round"/>
<path d="M165.228 95.3508H171.398V89.1693H165.228V95.3508Z" fill="#263238" stroke="#263238" stroke-width="1.12135" stroke-linecap="round" stroke-linejoin="round"/>
<path d="M165.228 88.9045H171.398V82.7193H165.228V88.9045Z" fill="white" stroke="#263238" stroke-width="1.12135" stroke-linecap="round" stroke-linejoin="round"/>
<path d="M165.041 82.7195H158.871V88.9047H165.041V82.7195Z" fill="#263238" stroke="#263238" stroke-width="1.12135" stroke-linecap="round" stroke-linejoin="round"/>
<path d="M165.041 89.1733H158.871V95.3549H165.041V89.1733Z" fill="white" stroke="#263238" stroke-width="1.12135" stroke-linecap="round" stroke-linejoin="round"/>
<path d="M152.697 95.3508H158.871V89.1693H152.697V95.3508Z" fill="#263238" stroke="#263238" stroke-width="1.12135" stroke-linecap="round" stroke-linejoin="round"/>
<path d="M152.697 88.9045H158.871V82.7193H152.697V88.9045Z" fill="white" stroke="#263238" stroke-width="1.12135" stroke-linecap="round" stroke-linejoin="round"/>
<path d="M152.51 82.7195H146.34V88.9047H152.51V82.7195Z" fill="#263238" stroke="#263238" stroke-width="1.12135" stroke-linecap="round" stroke-linejoin="round"/>
<path d="M152.51 89.1733H146.34V95.3549H152.51V89.1733Z" fill="white" stroke="#263238" stroke-width="1.12135" stroke-linecap="round" stroke-linejoin="round"/>
<path d="M140.167 95.3508H146.34V89.1693H140.167V95.3508Z" fill="#263238" stroke="#263238" stroke-width="1.12135" stroke-linecap="round" stroke-linejoin="round"/>
<path d="M140.167 88.9045H146.34V82.7193H140.167V88.9045Z" fill="white" stroke="#263238" stroke-width="1.12135" stroke-linecap="round" stroke-linejoin="round"/>
<path d="M139.983 82.7195H133.813V88.9047H139.983V82.7195Z" fill="#263238" stroke="#263238" stroke-width="1.12135" stroke-linecap="round" stroke-linejoin="round"/>
<path d="M139.983 89.1733H133.813V95.3549H139.983V89.1733Z" fill="white" stroke="#263238" stroke-width="1.12135" stroke-linecap="round" stroke-linejoin="round"/>
<path d="M127.643 95.3508H133.813V89.1693H127.643V95.3508Z" fill="#263238" stroke="#263238" stroke-width="1.12135" stroke-linecap="round" stroke-linejoin="round"/>
<path d="M127.643 88.9045H133.813V82.7193H127.643V88.9045Z" fill="white" stroke="#263238" stroke-width="1.12135" stroke-linecap="round" stroke-linejoin="round"/>
<path d="M127.459 82.7195H121.286V88.9047H127.459V82.7195Z" fill="#263238" stroke="#263238" stroke-width="1.12135" stroke-linecap="round" stroke-linejoin="round"/>
<path d="M127.459 89.1733H121.286V95.3549H127.459V89.1733Z" fill="white" stroke="#263238" stroke-width="1.12135" stroke-linecap="round" stroke-linejoin="round"/>
<path d="M115.116 95.3508H121.286V89.1693H115.116V95.3508Z" fill="#263238" stroke="#263238" stroke-width="1.12135" stroke-linecap="round" stroke-linejoin="round"/>
<path d="M115.116 88.9045H121.286V82.7193H115.116V88.9045Z" fill="white" stroke="#263238" stroke-width="1.12135" stroke-linecap="round" stroke-linejoin="round"/>
<path d="M114.925 82.7195H108.755V88.9047H114.925V82.7195Z" fill="#263238" stroke="#263238" stroke-width="1.12135" stroke-linecap="round" stroke-linejoin="round"/>
<path d="M114.925 89.1733H108.755V95.3549H114.925V89.1733Z" fill="white" stroke="#263238" stroke-width="1.12135" stroke-linecap="round" stroke-linejoin="round"/>
<path d="M102.585 95.3508H108.755V89.1693H102.585V95.3508Z" fill="#263238" stroke="#263238" stroke-width="1.12135" stroke-linecap="round" stroke-linejoin="round"/>
<path d="M102.585 88.9045H108.755V82.7193H102.585V88.9045Z" fill="white" stroke="#263238" stroke-width="1.12135" stroke-linecap="round" stroke-linejoin="round"/>
<path d="M102.399 82.7195H96.2288V88.9047H102.399V82.7195Z" fill="#263238" stroke="#263238" stroke-width="1.12135" stroke-linecap="round" stroke-linejoin="round"/>
<path d="M102.399 89.1733H96.2288V95.3549H102.399V89.1733Z" fill="white" stroke="#263238" stroke-width="1.12135" stroke-linecap="round" stroke-linejoin="round"/>
<path d="M90.0589 95.3508H96.2288V89.1693H90.0589V95.3508Z" fill="#263238" stroke="#263238" stroke-width="1.12135" stroke-linecap="round" stroke-linejoin="round"/>
<path d="M90.0589 88.9045H96.2288V82.7193H90.0589V88.9045Z" fill="white" stroke="#263238" stroke-width="1.12135" stroke-linecap="round" stroke-linejoin="round"/>
<path d="M89.8677 82.7195H83.6978V88.9047H89.8677V82.7195Z" fill="#263238" stroke="#263238" stroke-width="1.12135" stroke-linecap="round" stroke-linejoin="round"/>
<path d="M89.8677 89.1732H83.6978V95.3547H89.8677V89.1732Z" fill="white" stroke="#263238" stroke-width="1.12135" stroke-linecap="round" stroke-linejoin="round"/>
<path d="M77.5242 95.3508H83.6978V89.1693H77.5242V95.3508Z" fill="#263238" stroke="#263238" stroke-width="1.12135" stroke-linecap="round" stroke-linejoin="round"/>
<path d="M77.5242 88.9045H83.6978V82.7193H77.5242V88.9045Z" fill="white" stroke="#263238" stroke-width="1.12135" stroke-linecap="round" stroke-linejoin="round"/>
<path d="M77.341 82.7195H71.1711V88.9047H77.341V82.7195Z" fill="#263238" stroke="#263238" stroke-width="1.12135" stroke-linecap="round" stroke-linejoin="round"/>
<path d="M77.341 89.1732H71.1711V95.3547H77.341V89.1732Z" fill="white" stroke="#263238" stroke-width="1.12135" stroke-linecap="round" stroke-linejoin="round"/>
<path d="M65.0012 95.3508H71.1711V89.1693H65.0012V95.3508Z" fill="#263238" stroke="#263238" stroke-width="1.12135" stroke-linecap="round" stroke-linejoin="round"/>
<path d="M65.0012 88.9045H71.1711V82.7193H65.0012V88.9045Z" fill="white" stroke="#263238" stroke-width="1.12135" stroke-linecap="round" stroke-linejoin="round"/>
<path d="M64.814 82.7195H58.6404V88.9047H64.814V82.7195Z" fill="#263238" stroke="#263238" stroke-width="1.12135" stroke-linecap="round" stroke-linejoin="round"/>
<path d="M64.814 89.1732H58.6404V95.3547H64.814V89.1732Z" fill="white" stroke="#263238" stroke-width="1.12135" stroke-linecap="round" stroke-linejoin="round"/>
<path d="M52.4705 95.3508H58.6404V89.1693H52.4705V95.3508Z" fill="#263238" stroke="#263238" stroke-width="1.12135" stroke-linecap="round" stroke-linejoin="round"/>
<path d="M52.4705 88.9045H58.6404V82.7193H52.4705V88.9045Z" fill="white" stroke="#263238" stroke-width="1.12135" stroke-linecap="round" stroke-linejoin="round"/>
<path d="M52.2866 82.7195H46.113V88.9047H52.2866V82.7195Z" fill="#263238" stroke="#263238" stroke-width="1.12135" stroke-linecap="round" stroke-linejoin="round"/>
<path d="M52.2866 89.1733H46.113V95.3549H52.2866V89.1733Z" fill="white" stroke="#263238" stroke-width="1.12135" stroke-linecap="round" stroke-linejoin="round"/>
<path d="M39.9431 95.3508H46.113V89.1693H39.9431V95.3508Z" fill="#263238" stroke="#263238" stroke-width="1.12135" stroke-linecap="round" stroke-linejoin="round"/>
<path d="M39.9431 88.9045H46.113V82.7193H39.9431V88.9045Z" fill="white" stroke="#263238" stroke-width="1.12135" stroke-linecap="round" stroke-linejoin="round"/>
<path d="M39.7558 82.7195H33.5859V88.9047H39.7558V82.7195Z" fill="#263238" stroke="#263238" stroke-width="1.12135" stroke-linecap="round" stroke-linejoin="round"/>
<path d="M39.7558 89.1733H33.5859V95.3549H39.7558V89.1733Z" fill="white" stroke="#263238" stroke-width="1.12135" stroke-linecap="round" stroke-linejoin="round"/>
<path d="M27.4124 95.3508H33.5859V89.1693H27.4124V95.3508Z" fill="#263238" stroke="#263238" stroke-width="1.12135" stroke-linecap="round" stroke-linejoin="round"/>
<path d="M27.4124 88.9045H33.5859V82.7193H27.4124V88.9045Z" fill="white" stroke="#263238" stroke-width="1.12135" stroke-linecap="round" stroke-linejoin="round"/>
<path d="M27.2292 82.7195H21.0557V88.9047H27.2292V82.7195Z" fill="#263238" stroke="#263238" stroke-width="1.12135" stroke-linecap="round" stroke-linejoin="round"/>
<path d="M27.2292 89.1733H21.0557V95.3549H27.2292V89.1733Z" fill="white" stroke="#263238" stroke-width="1.12135" stroke-linecap="round" stroke-linejoin="round"/>
<path d="M14.8821 95.3508H21.0557V89.1693H14.8821V95.3508Z" fill="#263238" stroke="#263238" stroke-width="1.12135" stroke-linecap="round" stroke-linejoin="round"/>
<path d="M14.8821 88.9045H21.0557V82.7193H14.8821V88.9045Z" fill="white" stroke="#263238" stroke-width="1.12135" stroke-linecap="round" stroke-linejoin="round"/>
<path d="M14.6987 82.7194H8.52881V88.9046H14.6987V82.7194Z" fill="#263238" stroke="#263238" stroke-width="1.12135" stroke-linecap="round" stroke-linejoin="round"/>
<path d="M14.6987 89.1732H8.52881V95.3547H14.6987V89.1732Z" fill="white" stroke="#263238" stroke-width="1.12135" stroke-linecap="round" stroke-linejoin="round"/>
<path d="M2.35524 95.3507H8.52881V89.1692H2.35524L2.35524 95.3507Z" fill="#263238" stroke="#263238" stroke-width="1.12135" stroke-linecap="round" stroke-linejoin="round"/>
<path d="M2.35524 88.9044H8.52881V82.7192H2.35524L2.35524 88.9044Z" fill="white" stroke="#263238" stroke-width="1.12135" stroke-linecap="round" stroke-linejoin="round"/>
<path d="M165.507 109.126C164.931 103.68 160.247 99.5428 154.654 99.5428H26.8292C21.2392 99.5428 16.5521 103.68 15.9759 109.126L11.5017 151.463H169.977L165.503 109.126H165.507Z" fill="#C9C9C9" stroke="#263238" stroke-width="1.12135" stroke-linecap="round" stroke-linejoin="round"/>
<path d="M163.881 109.865C163.32 104.514 158.735 100.451 153.266 100.451H28.2169C22.748 100.451 18.1637 104.518 17.6021 109.865L13.2271 151.462H168.256L163.881 109.865Z" fill="#263238" stroke="#263238" stroke-width="1.12135" stroke-miterlimit="10"/>
<path d="M172.033 2.52484H125.342V62.9354H172.033V2.52484Z" stroke="#263238" stroke-width="1.12135" stroke-miterlimit="10"/>
<path d="M169.133 6.2796H128.245V59.1811H169.133V6.2796Z" stroke="#263238" stroke-width="1.12135" stroke-miterlimit="10"/>
<path d="M158.335 20.246H139.036V45.2185H158.335V20.246Z" stroke="#263238" stroke-width="1.12135" stroke-miterlimit="10"/>
<path d="M0.92749 151.463H177.898" stroke="#263238" stroke-width="1.12135" stroke-miterlimit="10"/>
<path d="M135.164 112.869C135.164 112.869 131.64 100.572 130.546 97.2848C129.453 93.9973 107.214 89.2499 107.214 89.2499L90.932 86.0837L74.6502 89.2499C74.6502 89.2499 52.4114 93.9973 51.3176 97.2848C50.2239 100.572 46.7003 112.869 46.7003 112.869C46.7003 112.869 31.8757 133.811 31.6334 139.165C31.3912 144.523 44.6375 142.938 48.2822 142.332C51.9269 141.721 61.4038 140.21 61.4038 140.21L59.9467 151.462H121.921L120.464 140.21C120.464 140.21 129.941 141.721 133.585 142.332C137.23 142.942 150.476 144.523 150.234 139.165C149.992 133.808 135.167 112.869 135.167 112.869H135.164Z" fill="#78B0A3" stroke="#263238" stroke-width="1.12135" stroke-miterlimit="10"/>
<path d="M62.4055 120.404L61.7668 125.773" stroke="#263238" stroke-width="1.12135" stroke-miterlimit="10"/>
<path d="M63.9546 107.39L62.5635 119.077" stroke="#263238" stroke-width="1.12135" stroke-miterlimit="10"/>
<path d="M118.416 105.588L119.884 130.439" stroke="#263238" stroke-width="1.12135" stroke-miterlimit="10"/>
<path d="M123.547 99.4656L118.904 117.341" stroke="#263238" stroke-width="1.12135" stroke-miterlimit="10"/>
<path d="M125.687 106.831C123.969 109.269 121.723 112.447 120.126 114.646" stroke="#263238" stroke-width="1.12135" stroke-miterlimit="10"/>
<path d="M128.193 103.261C128.193 103.261 127.448 104.331 126.362 105.875" stroke="#263238" stroke-width="1.12135" stroke-miterlimit="10"/>
<path d="M121.443 117.947C120.783 118.219 120.207 118.433 119.762 118.561" stroke="#263238" stroke-width="1.12135" stroke-miterlimit="10"/>
<path d="M131.368 113.178C131.368 113.178 126.516 115.712 122.842 117.348" stroke="#263238" stroke-width="1.12135" stroke-miterlimit="10"/>
<path d="M136.136 130.807C136.136 130.807 140.045 128.115 143.833 128.115" stroke="#263238" stroke-width="1.12135" stroke-miterlimit="10"/>
<path d="M57.5203 102.889C56.1072 101.447 54.9951 100.69 54.9951 100.69" stroke="#263238" stroke-width="1.12135" stroke-miterlimit="10"/>
<path d="M63.0588 112.931C62.2293 108.835 60.0638 105.676 58.1846 103.595" stroke="#263238" stroke-width="1.12135" stroke-miterlimit="10"/>
<path d="M55.6082 109.504C55.6082 109.504 59.2749 109.751 62.0864 113.053" stroke="#263238" stroke-width="1.12135" stroke-miterlimit="10"/>
<path d="M54.4482 111.792C54.9841 111.77 55.5383 111.781 56.0962 111.828C60.2511 112.196 62.2074 115.013 62.2074 115.013" stroke="#263238" stroke-width="1.12135" stroke-miterlimit="10"/>
<path d="M48.1536 113.3C48.1536 113.3 50.1025 112.355 52.7379 111.957" stroke="#263238" stroke-width="1.12135" stroke-miterlimit="10"/>
<path d="M39.1099 127.133C39.1099 127.133 43.874 127.012 47.5407 131.296" stroke="#263238" stroke-width="1.12135" stroke-miterlimit="10"/>
<path d="M90.7993 113.693V118.933L93.9779 118.687L92.9979 101.179" stroke="#263238" stroke-width="1.12135" stroke-miterlimit="10"/>
<path d="M90.7993 98.1196V112.211" stroke="#263238" stroke-width="1.12135" stroke-miterlimit="10"/>
<path d="M133.332 132.032C133.332 132.032 135.898 133.01 138.097 132.032C140.035 131.168 143.452 128.925 146.946 129.671C150.561 130.44 155.439 139.037 153.982 143.663C152.525 148.289 147.43 151.584 143.422 150.977C139.414 150.371 131.879 144.766 130.785 144.281C129.691 143.796 132.239 132.278 133.332 132.032Z" fill="white" stroke="#263238" stroke-width="1.12135" stroke-miterlimit="10"/>
<path d="M127.052 124.644C127.052 124.644 122.586 124.38 120.835 122.978C119.084 121.574 117.333 120.173 116.28 121.574C115.23 122.978 117.069 125.347 118.295 126.137C119.521 126.928 122.149 127.715 122.149 127.715L127.842 126.663C127.842 126.663 128.018 124.909 127.052 124.644Z" fill="white" stroke="#263238" stroke-width="1.12135" stroke-miterlimit="10"/>
<path d="M107.511 107.894L115.289 122.331L113.285 123.416C113.285 123.416 109.93 120.147 107.974 116.517C106.018 112.888 104.872 105.033 107.508 107.894H107.511Z" fill="white" stroke="#263238" stroke-width="1.12135" stroke-miterlimit="10"/>
<path d="M113.285 123.412C113.285 123.412 120.75 139.114 120.996 139.383C121.239 139.651 122.872 140.464 123.679 139.927C124.487 139.39 124.527 138.173 124.549 137.662C124.571 137.151 115.293 122.327 115.293 122.327L113.289 123.412H113.285Z" fill="white" stroke="#263238" stroke-width="1.12135" stroke-miterlimit="10"/>
<path d="M137.267 135.544C136.067 134.238 133.226 131.046 131.868 128.594C130.117 125.435 128.19 124.295 127.052 124.644C125.914 124.994 125.914 126.049 122.85 126.751C117.909 127.884 115.67 132.278 115.67 132.278C115.67 133.157 115.582 134.385 116.548 135C117.509 135.614 118.21 136.842 119.176 138.335C120.137 139.828 120.313 140.968 121.892 142.457C123.466 143.95 122.593 145.178 125.133 145.351C127.672 145.528 128.373 143.685 128.373 143.685C128.373 143.685 131.703 145.439 133.802 145.792C135.905 146.142 138.357 145.616 138.357 145.616" fill="white"/>
<path d="M137.267 135.544C136.067 134.238 133.226 131.046 131.868 128.594C130.117 125.435 128.19 124.295 127.052 124.644C125.914 124.994 125.914 126.049 122.85 126.751C117.909 127.884 115.67 132.278 115.67 132.278C115.67 133.157 115.582 134.385 116.548 135C117.509 135.614 118.21 136.842 119.176 138.335C120.137 139.828 120.313 140.968 121.892 142.457C123.466 143.95 122.593 145.178 125.133 145.351C127.672 145.528 128.373 143.685 128.373 143.685C128.373 143.685 131.703 145.439 133.802 145.792C135.905 146.142 138.357 145.616 138.357 145.616" stroke="#263238" stroke-width="1.12135" stroke-miterlimit="10"/>
<path d="M118.118 136.838C118.118 136.838 117.77 135.521 118.908 134.731C120.045 133.94 127.313 130.781 128.19 129.906" stroke="#263238" stroke-width="1.12135" stroke-miterlimit="10"/>
<path d="M120.222 140.173C120.222 140.173 119.958 139.033 121.099 138.596C122.237 138.158 127.665 135.963 129.067 134.911" stroke="#263238" stroke-width="1.12135" stroke-miterlimit="10"/>
<path d="M122.585 143.244C122.585 143.244 122.148 142.016 123.635 141.225C125.125 140.434 128.626 139.471 130.289 138.504" stroke="#263238" stroke-width="1.12135" stroke-miterlimit="10"/>
<path d="M128.366 143.682C128.366 143.682 126.704 144.472 125.65 144.031" stroke="#263238" stroke-width="1.12135" stroke-miterlimit="10"/>
<path d="M49.6187 132.032C49.6187 132.032 47.0531 133.01 44.8545 132.032C42.9166 131.168 39.4995 128.925 36.0053 129.671C32.3899 130.44 27.512 139.037 28.9692 143.663C30.4263 148.289 35.5208 151.584 39.5288 150.977C43.5405 150.367 51.0721 144.766 52.1659 144.281C53.2597 143.796 50.7125 132.278 49.6187 132.032Z" fill="white" stroke="#263238" stroke-width="1.12135" stroke-miterlimit="10"/>
<path d="M56.0415 124.644C56.0415 124.644 60.5083 124.38 62.2591 122.979C64.0099 121.574 65.7606 120.173 66.814 121.574C67.8674 122.975 66.0249 125.347 64.799 126.137C63.5731 126.928 60.9451 127.715 60.9451 127.715L55.2523 126.663C55.2523 126.663 55.0762 124.909 56.0415 124.644Z" fill="white" stroke="#263238" stroke-width="1.12135" stroke-miterlimit="10"/>
<path d="M77.8438 110.156L77.7851 110.122C77.5575 109.994 77.2529 110.1 77.1061 110.361L73.2485 117.231C73.1678 117.374 72.9989 117.437 72.8705 117.363C72.7457 117.293 72.709 117.117 72.7897 116.973L76.6143 110.167C76.7794 109.872 76.706 109.516 76.4491 109.369C76.1922 109.221 75.8472 109.347 75.682 109.641L71.8575 116.451C71.7767 116.594 71.6079 116.657 71.4794 116.583C71.3546 116.514 71.3179 116.337 71.3987 116.194L75.2562 109.324C75.403 109.063 75.337 108.747 75.1094 108.618C74.9259 108.515 74.6873 108.56 74.5221 108.736C73.5055 109.806 70.0002 113.583 68.9909 115.76C67.809 118.315 68.8221 119.694 68.8221 119.694L69.7507 121.368L71.6629 121.294C71.6629 121.294 73.3623 121.445 74.9296 119.11C76.2656 117.117 77.6677 112.156 78.053 110.729C78.1154 110.498 78.031 110.27 77.8475 110.163L77.8438 110.156Z" fill="white" stroke="#263238" stroke-width="1.12135" stroke-miterlimit="10"/>
<path d="M69.13 120.007C69.13 120.007 58.1445 137.772 58.0491 138.121C57.9537 138.471 58.1409 140.287 59.0217 140.684C59.9026 141.081 60.9524 140.464 61.3965 140.21C61.8406 139.956 71.112 121.125 71.112 121.125L69.1263 120.007H69.13Z" fill="white" stroke="#263238" stroke-width="1.12135" stroke-miterlimit="10"/>
<path d="M45.269 136.136C45.269 136.136 49.4716 131.749 51.2224 128.59C52.9732 125.431 54.9001 124.291 56.0379 124.64C57.1757 124.99 57.1757 126.045 60.2405 126.748C65.1808 127.88 67.4198 132.275 67.4198 132.275C67.4198 133.153 67.5078 134.382 66.5425 134.996C65.5809 135.61 64.8799 136.838 63.9145 138.331C62.9492 139.824 62.7767 140.964 61.1985 142.453C59.6239 143.946 60.4974 145.174 57.9575 145.347C55.4176 145.524 54.7166 143.681 54.7166 143.681C54.7166 143.681 51.3876 145.436 49.2881 145.789C48.7779 145.873 48.187 145.91 47.5887 145.91" fill="white"/>
<path d="M45.269 136.136C45.269 136.136 49.4716 131.749 51.2224 128.59C52.9732 125.431 54.9001 124.291 56.0379 124.64C57.1757 124.99 57.1757 126.045 60.2405 126.748C65.1808 127.88 67.4197 132.275 67.4197 132.275C67.4197 133.153 67.5078 134.382 66.5425 134.996C65.5809 135.61 64.8799 136.838 63.9145 138.331C62.9492 139.824 62.7767 140.964 61.1985 142.453C59.6239 143.946 60.4974 145.174 57.9575 145.347C55.4176 145.524 54.7166 143.681 54.7166 143.681C54.7166 143.681 51.3876 145.436 49.2881 145.789C48.7779 145.873 48.187 145.91 47.5887 145.91" stroke="#263238" stroke-width="1.12135" stroke-miterlimit="10"/>
<path d="M64.9751 136.838C64.9751 136.838 65.3238 135.521 64.1859 134.731C63.0481 133.94 55.7808 130.781 54.9036 129.906" stroke="#263238" stroke-width="1.12135" stroke-miterlimit="10"/>
<path d="M62.8722 140.173C62.8722 140.173 63.1365 139.033 61.995 138.596C60.8572 138.158 55.4287 135.963 54.0266 134.911" stroke="#263238" stroke-width="1.12135" stroke-miterlimit="10"/>
<path d="M60.5083 143.244C60.5083 143.244 60.9451 142.016 59.4586 141.225C57.9721 140.435 54.4669 139.471 52.8042 138.504" stroke="#263238" stroke-width="1.12135" stroke-miterlimit="10"/>
<path d="M54.7275 143.682C54.7275 143.682 56.3902 144.472 57.4436 144.031" stroke="#263238" stroke-width="1.12135" stroke-miterlimit="10"/>
<path d="M106.308 81.8952C106.216 81.4355 102.457 80.3323 102.457 80.3323L91.0865 79.0453L79.7157 80.3323C79.7157 80.3323 75.9572 81.4355 75.8654 81.8952C75.7737 82.3549 72.5658 89.6138 72.9328 89.9779C73.2998 90.3456 76.1407 102.106 76.5078 102.014C76.8748 101.922 85.1258 95.2144 85.4011 95.1224C85.6763 95.0305 91.0865 96.8691 91.0865 96.8691C91.0865 96.8691 96.4966 95.0305 96.7719 95.1224C97.0472 95.2144 105.298 101.922 105.665 102.014C106.032 102.106 108.873 90.3456 109.24 89.9779C109.607 89.6102 106.399 82.3512 106.308 81.8952Z" fill="#263238" stroke="#263238" stroke-width="1.12135" stroke-miterlimit="10"/>
<path d="M80.0864 74.1803C80.0864 74.1803 77.2455 83.3662 78.3429 84.929C79.444 86.4919 89.5302 97.5164 91.0901 96.8729C92.65 96.2294 104.384 83.8258 104.384 82.8183C104.384 81.8107 101.998 74.6436 101.998 74.6436L80.0827 74.184L80.0864 74.1803Z" fill="white" stroke="#263238" stroke-width="1.12135" stroke-miterlimit="10"/>
<path d="M78.2995 84.8482L85.2218 78.9572L83.1847 74.2466L80.0869 74.1804C80.0869 74.1804 77.3305 83.0868 78.2995 84.8482Z" fill="#263238" stroke="#263238" stroke-width="1.12135" stroke-miterlimit="10"/>
<path d="M77.9833 61.4755C77.9833 61.4755 77.051 68.58 77.5538 71.3086C78.0567 74.0371 82.641 78.1263 82.641 78.1263C82.641 78.1263 87.2253 82.2154 90.4479 82.1456C93.6704 82.072 97.539 80.1378 100.046 77.7659C102.553 75.3977 104.56 74.1769 104.773 71.3086C104.986 68.4403 103.914 62.7699 103.914 62.7699C103.914 62.7699 104.56 56.0956 104.56 52.2933C104.56 48.491 104.847 46.8399 100.479 44.1849C96.1076 41.5299 88.1575 42.3903 83.9329 43.4678C79.7083 44.5452 76.2692 48.4211 76.5555 50.8592C76.8418 53.3009 77.9869 61.4792 77.9869 61.4792L77.9833 61.4755Z" fill="white" stroke="#263238" stroke-width="1.12135" stroke-miterlimit="10"/>
<path d="M86.1496 44.3942C86.1496 44.3942 84.575 47.0492 81.925 48.0531C79.275 49.057 78.7721 49.274 78.7721 49.274C78.7721 49.274 80.5633 50.4213 80.633 51.4987C80.7064 52.5762 78.629 55.3746 78.4124 55.6614C78.1959 55.9483 77.983 61.4752 77.983 61.4752C77.4104 61.4017 76.0487 60.0411 76.0487 60.0411C76.0487 60.0411 75.9753 54.8009 75.4761 53.6536C74.9733 52.5063 71.8938 50.9986 72.5398 47.6265C73.1858 44.2545 78.8419 37.3632 86.223 34.5648C93.6004 31.7664 100.692 35.2819 101.338 37.5066C101.984 39.7314 101.624 40.6654 101.624 40.6654C101.624 40.6654 105.636 40.4485 107.353 44.9715C109.071 49.4946 106.135 54.1574 105.705 55.4482C105.276 56.7389 105.419 61.262 105.419 61.262L103.914 62.7696C103.914 62.7696 103.411 56.669 102.769 55.1613C102.123 53.6536 101.194 53.0064 102.123 51.7157C103.055 50.425 103.554 48.7003 102.982 47.77C102.409 46.8359 101.048 46.6226 101.048 46.6226C101.048 46.6226 99.3299 48.6305 97.8948 48.487C96.4633 48.3436 95.531 44.7546 95.531 44.7546C95.531 44.7546 91.3064 49.5645 87.7939 48.9872C84.285 48.4135 86.1459 44.3942 86.1459 44.3942H86.1496Z" fill="#263238" stroke="#263238" stroke-width="1.12135" stroke-miterlimit="10"/>
<path d="M93.8136 55.2316C93.8136 55.2316 91.8793 59.8245 92.5253 60.3283C93.1713 60.8321 95.0579 62.759 94.6725 64.1306C94.0228 66.462 92.2353 67.5027 90.947 67.2159C89.6587 66.929 88.2236 66.4988 88.0107 65.3515" stroke="#263238" stroke-width="1.12135" stroke-miterlimit="10"/>
<path d="M83.3564 67.2891C83.3564 67.2891 84.575 72.7425 91.0202 72.0254" stroke="#263238" stroke-width="1.12135" stroke-miterlimit="10"/>
<path d="M83.9292 68.6537C83.9292 68.6537 84.8615 66.5724 86.1498 67.4328C87.4381 68.2933 87.0086 71.4521 87.0086 71.4521C87.0086 71.4521 85.7203 71.4521 83.9292 68.6537Z" fill="#92E3A9" stroke="#263238" stroke-width="1.12135" stroke-miterlimit="10"/>
<path d="M85.1182 70.1609C85.1182 70.1609 85.1732 69.0026 85.654 68.5209" stroke="#263238" stroke-width="1.12135" stroke-miterlimit="10"/>
<path d="M82.2922 56.2687C82.6005 55.5002 83.353 54.9559 84.2339 54.9559C85.0634 54.9559 85.7828 55.4413 86.1204 56.1437" stroke="#263238" stroke-width="1.12135" stroke-miterlimit="10"/>
<path d="M85.6615 57.3716C85.6615 58.1623 85.0228 58.8058 84.23 58.8058C83.4372 58.8058 82.7986 58.1659 82.7986 57.3716C82.7986 56.5773 83.4372 55.9375 84.23 55.9375C85.0228 55.9375 85.6615 56.5773 85.6615 57.3716Z" fill="#263238"/>
<path d="M83.5696 57.3132C83.75 57.3132 83.8962 57.1667 83.8962 56.986C83.8962 56.8052 83.75 56.6587 83.5696 56.6587C83.3892 56.6587 83.2429 56.8052 83.2429 56.986C83.2429 57.1667 83.3892 57.3132 83.5696 57.3132Z" fill="white"/>
<path d="M84.8433 58.1146C85.0237 58.1146 85.1699 57.9681 85.1699 57.7874C85.1699 57.6066 85.0237 57.4601 84.8433 57.4601C84.6629 57.4601 84.5166 57.6066 84.5166 57.7874C84.5166 57.9681 84.6629 58.1146 84.8433 58.1146Z" fill="white"/>
<path d="M94.8892 56.2687C95.1975 55.5002 95.9499 54.9559 96.8308 54.9559C97.6603 54.9559 98.3797 55.4413 98.7174 56.1437" stroke="#263238" stroke-width="1.12135" stroke-miterlimit="10"/>
<path d="M98.2621 57.3716C98.2621 58.1623 97.6234 58.8058 96.8306 58.8058C96.0378 58.8058 95.3992 58.1659 95.3992 57.3716C95.3992 56.5773 96.0378 55.9375 96.8306 55.9375C97.6234 55.9375 98.2621 56.5773 98.2621 57.3716Z" fill="#263238"/>
<path d="M96.2834 58.0006C96.4639 58.0006 96.6101 57.8541 96.6101 57.6733C96.6101 57.4926 96.4639 57.3461 96.2834 57.3461C96.103 57.3461 95.9568 57.4926 95.9568 57.6733C95.9568 57.8541 96.103 58.0006 96.2834 58.0006Z" fill="white"/>
<path d="M97.5532 58.8023C97.7336 58.8023 97.8799 58.6557 97.8799 58.475C97.8799 58.2942 97.7336 58.1477 97.5532 58.1477C97.3728 58.1477 97.2266 58.2942 97.2266 58.475C97.2266 58.6557 97.3728 58.8023 97.5532 58.8023Z" fill="white"/>
<path d="M88.4733 50.6605C88.4733 50.6605 87.1189 50.1089 85.2103 50.1089C83.3017 50.1089 81.5473 51.9181 81.0445 52.8742C80.5416 53.8303 80.6444 54.1319 81.1949 54.0326C81.7455 53.9333 83.856 52.4734 84.4065 52.4219C84.9571 52.3704 87.7209 52.8227 88.521 52.2197C89.3248 51.6166 89.523 50.609 88.4696 50.6605H88.4733Z" fill="#263238" stroke="#263238" stroke-width="1.12135" stroke-miterlimit="10"/>
<path d="M92.7857 49.05C92.7857 49.05 94.1401 48.4984 96.0487 48.4984C97.9573 48.4984 99.7117 50.3076 100.215 51.2637C100.717 52.2198 100.615 52.5214 100.064 52.4221C99.5135 52.3228 97.4031 50.8629 96.8525 50.8114C96.3019 50.7599 93.5381 51.2123 92.738 50.6092C91.9342 50.0061 91.736 48.9985 92.7894 49.05H92.7857Z" fill="#263238" stroke="#263238" stroke-width="1.12135" stroke-miterlimit="10"/>
<path d="M77.9832 61.4754C77.9832 61.4754 76.1774 59.258 75.2231 59.4087C74.2688 59.5595 73.0649 61.2694 73.2668 63.4832C73.4687 65.6969 77.3336 68.0099 77.3336 68.0099L77.9869 61.4754H77.9832Z" fill="white" stroke="#263238" stroke-width="1.12135" stroke-miterlimit="10"/>
<path d="M103.914 62.7662C103.914 62.7662 105.438 60.865 107.196 60.3649C108.954 59.8611 108.803 61.7733 108.752 63.281C108.7 64.7887 107.798 66.6016 106.895 67.2525C105.992 67.9034 104.685 68.5101 104.685 68.5101L103.914 62.7662Z" fill="white" stroke="#263238" stroke-width="1.12135" stroke-miterlimit="10"/>
<path d="M14.673 118.874V115.337H12.2065L11.3807 107.802H10.0887L9.26289 115.337H6.79639V118.874H4.93918C4.28586 118.874 3.75732 119.404 3.75732 120.059V154.246C3.75732 155.758 4.97956 156.979 6.48441 156.979H14.9887C16.4972 156.979 17.7158 155.754 17.7158 154.246V120.059C17.7158 119.404 17.1872 118.874 16.5339 118.874H14.6767H14.673Z" fill="#F7B149" stroke="#263238" stroke-width="1.12135" stroke-miterlimit="10"/>
<path d="M7.63696 115.554V118.772" stroke="#263238" stroke-width="1.12135" stroke-miterlimit="10"/>
<path d="M8.36719 119.066H13.9168" stroke="#263238" stroke-width="1.12135" stroke-miterlimit="10"/>
<path d="M9.26294 115.333H12.2066" stroke="#263238" stroke-width="1.12135" stroke-miterlimit="10"/>
<path d="M8.75244 115.388V118.179" stroke="#263238" stroke-width="1.12135" stroke-miterlimit="10"/>
<path d="M9.54175 117.014V119.014" stroke="#263238" stroke-width="1.12135" stroke-miterlimit="10"/>
<path d="M10.5806 115.348V117.805" stroke="#263238" stroke-width="1.12135" stroke-miterlimit="10"/>
<path d="M41.5729 140.118H19.1763V158.28H41.5729V140.118Z" fill="white" stroke="#263238" stroke-width="1.12135" stroke-linecap="round" stroke-linejoin="round"/>
<path d="M40.6886 140.118H18.292V158.28H40.6886V140.118Z" fill="white" stroke="#263238" stroke-width="1.12135" stroke-linecap="round" stroke-linejoin="round"/>
<path d="M39.8043 140.118H17.4077V158.28H39.8043V140.118Z" fill="white" stroke="#263238" stroke-width="1.12135" stroke-linecap="round" stroke-linejoin="round"/>
<path d="M38.9193 140.118H16.5227V158.28H38.9193V140.118Z" fill="white" stroke="#263238" stroke-width="1.12135" stroke-linecap="round" stroke-linejoin="round"/>
<path d="M36.7284 146.877H19.9768V158.284H36.7284V146.877Z" fill="#263238"/>
<path d="M16.9011 144.251C19.1005 144.251 20.8834 142.312 20.8834 139.919C20.8834 137.527 19.1005 135.588 16.9011 135.588C14.7017 135.588 12.9187 137.527 12.9187 139.919C12.9187 142.312 14.7017 144.251 16.9011 144.251Z" fill="#C9C9C9" stroke="#263238" stroke-width="1.12135" stroke-linecap="round" stroke-linejoin="round"/>
<path d="M21.199 139.563H12.603L11.0247 156.982C10.8816 158.556 12.1185 159.913 13.6967 159.913H20.1015C21.6798 159.913 22.9167 158.556 22.7736 156.982L21.1953 139.563H21.199Z" fill="white" stroke="#263238" stroke-width="1.12135" stroke-linecap="round" stroke-linejoin="round"/>
<path d="M14.827 147.116L14.0159 155.908C13.9424 156.706 14.5701 157.398 15.3702 157.398H17.4623C18.2551 157.398 18.8791 156.721 18.8204 155.93L17.9211 143.979" stroke="#263238" stroke-width="1.12135" stroke-miterlimit="10"/>
<path d="M15.1388 143.725L14.9883 145.358" stroke="#263238" stroke-width="1.12135" stroke-miterlimit="10"/>
<path d="M19.8152 146.131L20.6997 156.512C20.6997 156.512 20.6997 157.398 22.0908 156.637" stroke="#263238" stroke-width="1.12135" stroke-miterlimit="10"/>
<path d="M21.4779 142.655L21.1989 139.563H12.6029L12.3203 142.655H21.4779Z" fill="#C9C9C9" stroke="#263238" stroke-width="1.12135" stroke-linecap="round" stroke-linejoin="round"/>
<path d="M92.8188 161.616C109.944 161.616 123.826 158.814 123.826 155.357C123.826 151.9 109.944 149.098 92.8188 149.098C75.694 149.098 61.8115 151.9 61.8115 155.357C61.8115 158.814 75.694 161.616 92.8188 161.616Z" fill="#263238" stroke="#263238" stroke-width="1.12135" stroke-miterlimit="10"/>
<path d="M92.8189 160.207C110.268 160.207 124.414 156.888 124.414 152.794C124.414 148.699 110.268 145.38 92.8189 145.38C75.3697 145.38 61.2244 148.699 61.2244 152.794C61.2244 156.888 75.3697 160.207 92.8189 160.207Z" fill="white" stroke="#263238" stroke-width="1.12135" stroke-miterlimit="10"/>
<path d="M92.8189 158.589C112.889 158.589 129.159 155.27 129.159 151.176C129.159 147.082 112.889 143.762 92.8189 143.762C72.7487 143.762 56.4785 147.082 56.4785 151.176C56.4785 155.27 72.7487 158.589 92.8189 158.589Z" fill="white" stroke="#263238" stroke-width="1.12135" stroke-miterlimit="10"/>
<path d="M92.8189 157.85C106.07 157.85 116.812 155.658 116.812 152.955C116.812 150.252 106.07 148.061 92.8189 148.061C79.5678 148.061 68.8257 150.252 68.8257 152.955C68.8257 155.658 79.5678 157.85 92.8189 157.85Z" fill="white" stroke="#263238" stroke-width="1.12135" stroke-miterlimit="10"/>
</g>
<defs>
<clipPath id="clip0_513_3910">
<rect width="177.841" height="175.469" fill="white" transform="translate(0.156738 0.410034)"/>
</clipPath>
</defs>
</svg>
