<svg width="16" height="23" viewBox="0 0 16 23" fill="none" xmlns="http://www.w3.org/2000/svg">
<path id="Vector" d="M7.70585 14.8431C9.51557 14.8431 11.2512 14.1242 12.5308 12.8446C13.8105 11.5649 14.5294 9.82932 14.5294 8.01961C14.5294 6.20989 13.8105 4.4743 12.5308 3.19464C11.2512 1.91498 9.51557 1.19608 7.70585 1.19608C5.89614 1.19608 4.16055 1.91498 2.88089 3.19464C1.60123 4.4743 0.882324 6.20989 0.882324 8.01961C0.882324 9.82932 1.60123 11.5649 2.88089 12.8446C4.16055 14.1242 5.89614 14.8431 7.70585 14.8431ZM7.70585 14.8431V19.3922M7.70585 19.3922V21.6667M7.70585 19.3922H5.43134M7.70585 19.3922H9.98036" stroke="white" stroke-width="1.70588" stroke-linecap="round" stroke-linejoin="round"/>
</svg>
