<svg width="25" height="21" viewBox="0 0 25 21" fill="none" xmlns="http://www.w3.org/2000/svg">
<g id="Group 10063">
<g id="Group">
<g id="Group_2">
<path id="Vector" d="M12.8995 1.31354C8.32692 1.31354 4.62012 5.02034 4.62012 9.59292C4.62012 14.1655 8.32692 17.8723 12.8995 17.8723C17.4721 17.8723 21.1789 14.1655 21.1789 9.59292C21.1789 5.02034 17.4721 1.31354 12.8995 1.31354ZM12.8994 15.8751C9.43547 15.8751 6.61729 13.0569 6.61729 9.59297C6.61729 6.12899 9.43547 3.31081 12.8994 3.31081C16.3634 3.31081 19.1816 6.12899 19.1816 9.59297C19.1816 13.0569 16.3635 15.8751 12.8994 15.8751Z" fill="#78B0A3"/>
</g>
</g>
<g id="Group_3">
<g id="Group_4">
<path id="Vector_2" d="M12.899 4.99469C10.3635 4.99469 8.30078 7.05744 8.30078 9.5929C8.30078 12.1284 10.3635 14.1911 12.899 14.1911C15.4345 14.1911 17.4972 12.1284 17.4972 9.5929C17.4972 7.05744 15.4345 4.99469 12.899 4.99469Z" fill="#78B0A3"/>
</g>
</g>
<g id="Group_5">
<g id="Group_6">
<path id="Vector_3" d="M24.4787 10.2871V0.226164C24.4787 0.129093 24.4167 0.0428133 24.3246 0.0118073C24.2326 -0.0191499 24.1311 0.0121491 24.0724 0.0894931C22.8171 1.74492 22.1377 3.76544 22.1377 5.84294V9.52352C22.1377 9.94564 22.4799 10.2879 22.9021 10.2879H23.2207C22.9066 13.5322 22.699 18.0696 22.699 18.6009C22.699 19.438 23.2142 20.1165 23.8497 20.1165C24.4852 20.1165 25.0004 19.4379 25.0004 18.6009C25.0004 18.0696 24.7928 13.5314 24.4787 10.2871Z" fill="#78B0A3"/>
</g>
</g>
<g id="Group_7">
<g id="Group_8">
<path id="Vector_4" d="M3.34069 8.29276C3.97751 7.90702 4.40314 7.2076 4.40314 6.40867L4.08771 1.25137C4.07565 1.05479 3.91271 0.90152 3.71574 0.90152C3.5027 0.90152 3.33297 1.07999 3.34357 1.29263L3.5487 5.42883C3.5487 5.66135 3.36017 5.84978 3.12775 5.84978C2.89528 5.84978 2.7068 5.66126 2.7068 5.42883L2.60431 1.29434C2.59889 1.07584 2.42022 0.901569 2.20162 0.901569C1.98302 0.901569 1.8044 1.07589 1.79893 1.29434L1.69644 5.42883C1.69644 5.66135 1.50792 5.84978 1.27549 5.84978C1.04302 5.84978 0.854545 5.66126 0.854545 5.42883L1.05967 1.29263C1.07022 1.07989 0.900394 0.90152 0.687503 0.90152C0.490529 0.90152 0.327589 1.05479 0.315577 1.25137L0 6.40872C0 7.20765 0.425588 7.90702 1.06246 8.29281C1.47691 8.54384 1.70797 9.01318 1.65455 9.49482C1.29502 12.735 1.05088 18.0248 1.05088 18.601C1.05088 19.438 1.56607 20.1165 2.20157 20.1165C2.83707 20.1165 3.35226 19.438 3.35226 18.601C3.35226 18.0248 3.10807 12.735 2.7486 9.49482C2.69513 9.01342 2.92643 8.54369 3.34069 8.29276Z" fill="#78B0A3"/>
</g>
</g>
</g>
</svg>
