<svg width="35" height="45" viewBox="0 0 35 45" fill="none" xmlns="http://www.w3.org/2000/svg">
<g id="Group 1171275421">
<path id="Vector" d="M17.4999 45C26.7318 45 34.2142 39.4286 34.2142 29.6786C34.2142 25.5 32.8214 18.5357 27.2499 12.9643C27.9464 17.1429 23.7678 18.5357 23.7678 18.5357C25.8571 11.5714 20.2856 1.82145 11.9285 0.428589C12.923 6.00002 13.3214 11.5714 6.35707 17.1429C2.87493 19.9286 0.785645 24.7451 0.785645 29.6786C0.785645 39.4286 8.26807 45 17.4999 45ZM17.4999 42.2143C12.884 42.2143 9.14279 39.4286 9.14279 34.5536C9.14279 32.4643 9.83922 28.9822 12.6249 26.1964C12.2767 28.2857 14.7142 29.6786 14.7142 29.6786C13.6696 26.1964 16.1071 20.625 20.2856 19.9286C19.787 22.7143 19.5892 25.5 23.0714 28.2857C24.8124 29.6786 25.8571 32.0854 25.8571 34.5536C25.8571 39.4286 22.1159 42.2143 17.4999 42.2143Z" fill="white"/>
</g>
</svg>
