<svg width="16" height="16" viewBox="0 0 16 16" fill="none" xmlns="http://www.w3.org/2000/svg">
<path id="Vector" d="M8.00842 7.53647C8.07378 7.54675 8.14052 7.54375 8.20471 7.52766C8.26891 7.51156 8.32927 7.48268 8.38226 7.44273C8.43524 7.40277 8.47978 7.35253 8.51326 7.29497C8.54674 7.23741 8.56849 7.17368 8.57722 7.10752C8.58595 7.04136 8.5815 6.97411 8.56412 6.90971C8.54674 6.84531 8.51679 6.78506 8.47602 6.73251C8.43525 6.67995 8.38448 6.63614 8.3267 6.60365C8.26891 6.57116 8.20528 6.55064 8.13953 6.5433C7.20585 6.41803 6.3715 7.13359 6.3715 8.17787C6.3715 8.31076 6.42383 8.43822 6.51696 8.53219C6.6101 8.62616 6.73642 8.67896 6.86814 8.67896C6.99986 8.67896 7.12618 8.62616 7.21932 8.53219C7.31245 8.43822 7.36478 8.31076 7.36478 8.17787C7.36478 7.71987 7.69057 7.49337 8.00842 7.53647ZM8.35011 12.9332C9.53424 12.9332 10.6699 12.4586 11.5072 11.6138C12.3445 10.769 12.8149 9.62316 12.8149 8.42841C12.8149 7.23366 12.3445 6.08784 11.5072 5.24302C10.6699 4.39821 9.53424 3.92359 8.35011 3.92359C7.16598 3.92359 6.03034 4.39821 5.19304 5.24302C4.35573 6.08784 3.88533 7.23366 3.88533 8.42841C3.88533 9.62316 4.35573 10.769 5.19304 11.6138C6.03034 12.4586 7.16598 12.9332 8.35011 12.9332ZM8.35011 11.931C7.42941 11.931 6.54642 11.562 5.89539 10.9051C5.24436 10.2483 4.87861 9.35737 4.87861 8.42841C4.87861 7.49945 5.24436 6.60855 5.89539 5.95167C6.54642 5.2948 7.42941 4.92578 8.35011 4.92578C9.27081 4.92578 10.1538 5.2948 10.8048 5.95167C11.4559 6.60855 11.8216 7.49945 11.8216 8.42841C11.8216 9.35737 11.4559 10.2483 10.8048 10.9051C10.1538 11.562 9.27081 11.931 8.35011 11.931ZM9.55992 0.0150726C10.5979 0.0832211 11.5723 0.3949 12.2686 0.837866C13.8648 1.85508 14.5531 2.97352 14.9504 3.67405C15.3368 4.35353 16.0987 5.86182 15.9894 7.5064C15.9613 7.94945 15.9035 8.39008 15.8166 8.82528L15.7768 9.03974C15.7212 9.36445 15.6864 9.69718 15.745 10.4208C15.8146 11.2736 15.6437 12.2076 15.2862 13.0365C14.9286 13.8633 14.3674 14.6269 13.6194 15.0979C12.065 16.0781 10.1926 16.2905 8.43652 15.582C7.63296 15.2583 7.3618 15.1811 7.05786 15.1631C6.844 15.1547 6.62987 15.1567 6.4162 15.1691H6.40925C6.1212 15.1811 5.7517 15.1952 5.23818 15.1952C2.98046 15.1952 1.47863 13.8322 0.711819 12.3449C-0.411575 10.1642 -0.380784 6.863 2.08949 4.89471C2.84438 4.2944 3.06986 4.09497 3.32413 3.66603C3.7423 2.9625 4.13961 2.4113 4.62036 1.93626C5.1021 1.45922 5.64939 1.07538 6.35263 0.685534C7.37471 0.118297 8.51797 -0.0540783 9.55992 0.0140702V0.0150726ZM9.49535 1.01525C8.60141 0.955122 7.65382 1.10745 6.8304 1.56445C6.18079 1.92524 5.71395 2.25796 5.31565 2.65182C4.91735 3.04668 4.5697 3.51971 4.17636 4.18115C3.8168 4.78547 3.45326 5.08613 2.70532 5.68142C0.708839 7.27189 0.623418 10.0008 1.59285 11.8829C2.23352 13.1257 3.43836 14.193 5.23818 14.193C5.73283 14.193 6.08842 14.1789 6.37349 14.1679H6.39236C6.66651 14.1579 6.89893 14.1479 7.12043 14.1629C7.60018 14.193 8.00445 14.3283 8.80503 14.652C10.2562 15.2373 11.7968 15.0659 13.093 14.2481C13.6274 13.9114 14.0763 13.3311 14.3753 12.6356C14.6753 11.9421 14.8104 11.1744 14.7557 10.5029C14.6902 9.70219 14.7259 9.28428 14.7985 8.86737L14.8432 8.62584C14.8998 8.32218 14.9604 7.99948 14.9981 7.43926C15.0875 6.10936 14.4588 4.82355 14.0893 4.17213C13.7307 3.54276 13.1417 2.57866 11.7382 1.68571C11.2018 1.34397 10.3933 1.07538 9.49535 1.01525Z" fill="white"/>
</svg>
