<svg width="37" height="37" viewBox="0 0 37 37" fill="none" xmlns="http://www.w3.org/2000/svg">
<g clip-path="url(#clip0_3985_312)">
<path d="M18.4997 36.2292C28.2912 36.2292 36.2288 28.2915 36.2288 18.5C36.2288 8.70845 28.2912 0.770832 18.4997 0.770832C8.70813 0.770832 0.770508 8.70845 0.770508 18.5C0.770508 28.2915 8.70813 36.2292 18.4997 36.2292Z" fill="#FFCE52"/>
<path d="M25.4375 16.9583C26.7147 16.9583 27.75 15.5779 27.75 13.875C27.75 12.1721 26.7147 10.7917 25.4375 10.7917C24.1603 10.7917 23.125 12.1721 23.125 13.875C23.125 15.5779 24.1603 16.9583 25.4375 16.9583Z" fill="#273941"/>
<path d="M11.5625 16.9583C12.8397 16.9583 13.875 15.5779 13.875 13.875C13.875 12.1721 12.8397 10.7917 11.5625 10.7917C10.2853 10.7917 9.25 12.1721 9.25 13.875C9.25 15.5779 10.2853 16.9583 11.5625 16.9583Z" fill="#273941"/>
<path d="M25.4372 16.1875C26.2886 16.1875 26.9788 15.1522 26.9788 13.875C26.9788 12.5978 26.2886 11.5625 25.4372 11.5625C24.5857 11.5625 23.8955 12.5978 23.8955 13.875C23.8955 15.1522 24.5857 16.1875 25.4372 16.1875Z" fill="#141E21"/>
<path d="M11.5622 16.1875C12.4136 16.1875 13.1038 15.1522 13.1038 13.875C13.1038 12.5978 12.4136 11.5625 11.5622 11.5625C10.7107 11.5625 10.0205 12.5978 10.0205 13.875C10.0205 15.1522 10.7107 16.1875 11.5622 16.1875Z" fill="#141E21"/>
<path d="M26.2083 13.875C26.6341 13.875 26.9792 13.5299 26.9792 13.1042C26.9792 12.6784 26.6341 12.3333 26.2083 12.3333C25.7826 12.3333 25.4375 12.6784 25.4375 13.1042C25.4375 13.5299 25.7826 13.875 26.2083 13.875Z" fill="#F6FAFD"/>
<path d="M12.3333 13.875C12.7591 13.875 13.1042 13.5299 13.1042 13.1042C13.1042 12.6784 12.7591 12.3333 12.3333 12.3333C11.9076 12.3333 11.5625 12.6784 11.5625 13.1042C11.5625 13.5299 11.9076 13.875 12.3333 13.875Z" fill="#F6FAFD"/>
<path d="M18.4999 3.08333C27.8656 3.08333 35.4583 9.64081 35.4583 17.7292H36.2098C35.9973 13.1751 34.0387 8.87797 30.7407 5.7303C27.4427 2.58264 23.0589 0.826401 18.4999 0.826401C13.9409 0.826401 9.55716 2.58264 6.25918 5.7303C2.96121 8.87797 1.00255 13.1751 0.790039 17.7292H1.5416C1.5416 9.64081 9.13431 3.08333 18.4999 3.08333Z" fill="#FFE369"/>
<path d="M35.458 17.7292C35.458 25.8175 27.8653 32.375 18.4997 32.375C9.13405 32.375 1.54134 25.8175 1.54134 17.7292H0.789779C0.778987 17.9851 0.770508 18.2418 0.770508 18.5C0.770508 23.2021 2.6384 27.7115 5.96326 31.0364C9.28812 34.3613 13.7976 36.2292 18.4997 36.2292C23.2017 36.2292 27.7112 34.3613 31.0361 31.0364C34.361 27.7115 36.2288 23.2021 36.2288 18.5C36.2288 18.2418 36.2204 17.9851 36.2096 17.7292H35.458Z" fill="#FFB32B"/>
<path d="M12.333 24.6667H24.6663V26.2083H12.333V24.6667Z" fill="#273941"/>
<path d="M29.1467 7.56301C29.395 7.31457 29.316 6.83312 28.9703 6.48766C28.6246 6.1422 28.1431 6.06355 27.8948 6.31198C27.6466 6.56042 27.7256 7.04187 28.0713 7.38733C28.417 7.73279 28.8985 7.81144 29.1467 7.56301Z" fill="#F6FAFD"/>
<path d="M24.0121 3.78096C24.1364 3.65659 24.097 3.41575 23.9242 3.24302C23.7513 3.07029 23.5104 3.03108 23.3862 3.15545C23.2619 3.27982 23.3013 3.52066 23.4741 3.69339C23.647 3.86612 23.8878 3.90533 24.0121 3.78096Z" fill="#F6FAFD"/>
<path d="M27.4606 6.6474C27.9571 6.15053 27.7989 5.18739 27.1072 4.49617C26.4155 3.80494 25.4522 3.64739 24.9557 4.14426C24.4592 4.64114 24.6174 5.60428 25.3091 6.2955C26.0008 6.98672 26.964 7.14427 27.4606 6.6474Z" fill="#F6FAFD"/>
</g>
<defs>
<clipPath id="clip0_3985_312">
<rect width="37" height="37" fill="white"/>
</clipPath>
</defs>
</svg>
