<svg width="30" height="30" viewBox="0 0 30 30" fill="none" xmlns="http://www.w3.org/2000/svg">
<g clip-path="url(#clip0_3985_299)">
<path d="M15 29.375C22.9391 29.375 29.375 22.9391 29.375 15C29.375 7.06091 22.9391 0.625 15 0.625C7.06091 0.625 0.625 7.06091 0.625 15C0.625 22.9391 7.06091 29.375 15 29.375Z" fill="#FFCE52"/>
<path d="M23.1188 17C23.5125 16.9625 23.9312 16.9187 24.375 16.875C24.3612 17.9845 24.0718 19.0731 23.5328 20.043C22.9939 21.0129 22.2223 21.8336 21.2875 22.4312C19.4352 23.6975 17.2437 24.375 15 24.375C12.7563 24.375 10.5648 23.6975 8.7125 22.4312C7.77768 21.8336 7.00609 21.0129 6.46715 20.043C5.92821 19.0731 5.63881 17.9845 5.625 16.875C5.99375 16.9562 6.41875 17.0313 6.8875 17.0938C7.09375 19.4125 10.6438 21.25 15 21.25C19.4187 21.25 23 19.3625 23.1188 17Z" fill="#AE2D4C"/>
<path d="M23.1189 17C23.0002 19.3625 19.4189 21.25 15.0002 21.25C10.6439 21.25 7.09395 19.4125 6.8877 17.0937C9.58184 17.3846 12.2905 17.5202 15.0002 17.5C17.7135 17.4809 20.4238 17.314 23.1189 17Z" fill="#F6FAFD"/>
<path d="M23.125 13.125H21.875C21.875 12.1444 21.1613 10 20.625 10C20.0887 10 19.375 12.1444 19.375 13.125H18.125C18.125 12.605 18.6531 8.75 20.625 8.75C22.5969 8.75 23.125 12.605 23.125 13.125ZM11.875 13.125H10.625C10.625 12.1444 9.91125 10 9.375 10C8.83875 10 8.125 12.1444 8.125 13.125H6.875C6.875 12.605 7.40313 8.75 9.375 8.75C11.3469 8.75 11.875 12.605 11.875 13.125Z" fill="#273941"/>
<path d="M15 2.5C22.5938 2.5 28.75 7.81688 28.75 14.375H29.3594C29.1871 10.6825 27.599 7.19836 24.9249 4.6462C22.2509 2.09403 18.6965 0.670059 15 0.670059C11.3035 0.670059 7.7491 2.09403 5.07507 4.6462C2.40103 7.19836 0.812928 10.6825 0.640625 14.375H1.25C1.25 7.81688 7.40625 2.5 15 2.5Z" fill="#FFE369"/>
<path d="M28.75 14.375C28.75 20.9331 22.5938 26.25 15 26.25C7.40625 26.25 1.25 20.9331 1.25 14.375H0.640625C0.631875 14.5825 0.625 14.7906 0.625 15C0.625 18.8125 2.1395 22.4688 4.83534 25.1647C7.53118 27.8605 11.1875 29.375 15 29.375C18.8125 29.375 22.4688 27.8605 25.1647 25.1647C27.8605 22.4688 29.375 18.8125 29.375 15C29.375 14.7906 29.3681 14.5825 29.3594 14.375H28.75Z" fill="#FFB32B"/>
<path d="M23.6325 6.13217C23.8338 5.93074 23.7697 5.54038 23.4894 5.26027C23.2091 4.98017 22.8187 4.9164 22.6174 5.11783C22.4161 5.31926 22.4802 5.70963 22.7605 5.98973C23.0408 6.26983 23.4312 6.33361 23.6325 6.13217Z" fill="#F6FAFD"/>
<path d="M19.4703 3.06564C19.571 2.96481 19.5391 2.76952 19.399 2.62947C19.2588 2.48942 19.0635 2.45763 18.9627 2.55847C18.862 2.65931 18.8939 2.85459 19.034 2.99464C19.1742 3.1347 19.3695 3.16648 19.4703 3.06564Z" fill="#F6FAFD"/>
<path d="M22.2658 5.38979C22.6684 4.98692 22.5401 4.20599 21.9793 3.64554C21.4184 3.08509 20.6374 2.95735 20.2348 3.36022C19.8322 3.76309 19.9605 4.54401 20.5214 5.10446C21.0822 5.66491 21.8632 5.79266 22.2658 5.38979Z" fill="#F6FAFD"/>
<path d="M22.6877 18.2912C22.9413 17.9056 23.0899 17.4606 23.1189 17C20.4238 17.314 17.7135 17.4809 15.0002 17.5C12.2905 17.5202 9.58184 17.3846 6.8877 17.0937C6.93841 17.5677 7.11206 18.0201 7.39145 18.4062C9.92033 18.6483 12.4598 18.763 15.0002 18.75C17.569 18.7343 20.1352 18.5812 22.6877 18.2912Z" fill="#EDEDED"/>
<path d="M15 22.5C19.7312 22.5 23.5681 20.035 23.7456 16.9375L23.1206 17C23 19.3625 19.4187 21.25 15 21.25C10.6444 21.25 7.095 19.4131 6.8875 17.095C6.67459 17.0657 6.46207 17.0336 6.25 16.9987C6.4725 20.0681 10.3 22.5 15 22.5Z" fill="#8A293D"/>
</g>
<defs>
<clipPath id="clip0_3985_299">
<rect width="30" height="30" fill="white"/>
</clipPath>
</defs>
</svg>
