<svg width="30" height="30" viewBox="0 0 30 30" fill="none" xmlns="http://www.w3.org/2000/svg">
<g id="Frame" clip-path="url(#clip0_3985_327)">
<g id="08-sarcastic">
<path id="Vector" d="M15 29.375C22.9391 29.375 29.375 22.9391 29.375 15C29.375 7.06091 22.9391 0.625 15 0.625C7.06091 0.625 0.625 7.06091 0.625 15C0.625 22.9391 7.06091 29.375 15 29.375Z" fill="#FFCE52"/>
<path id="Vector_2" d="M13.125 22.5087L11.875 22.5C11.875 20.5263 16.1969 20 18.75 20V21.25C15.0881 21.25 13.2169 22.1619 13.125 22.5087Z" fill="#273941"/>
<path id="Vector_3" d="M24.4625 9.95C24.4363 9.90375 24.4038 9.86125 24.375 9.81625V10.625C24.375 10.9565 24.2433 11.2745 24.0089 11.5089C23.7745 11.7433 23.4565 11.875 23.125 11.875C22.7935 11.875 22.4755 11.7433 22.2411 11.5089C22.0067 11.2745 21.875 10.9565 21.875 10.625V9.375H18.4625C17.8412 10.0592 17.498 10.9508 17.5 11.875C17.5 12.8696 17.8951 13.8234 18.5984 14.5267C19.3016 15.2299 20.2554 15.625 21.25 15.625C22.2446 15.625 23.1984 15.2299 23.9017 14.5267C24.6049 13.8234 25 12.8696 25 11.875C25.0024 11.196 24.8163 10.5296 24.4625 9.95Z" fill="#F6FAFD"/>
<path id="Vector_4" d="M23.125 11.875C23.4565 11.875 23.7745 11.7433 24.0089 11.5089C24.2433 11.2745 24.375 10.9565 24.375 10.625V9.81625C24.2755 9.65968 24.1625 9.51205 24.0375 9.375H21.875V10.625C21.875 10.9565 22.0067 11.2745 22.2411 11.5089C22.4755 11.7433 22.7935 11.875 23.125 11.875Z" fill="#141E21"/>
<path id="Vector_5" d="M11.9625 9.95C11.9363 9.90375 11.9038 9.86125 11.875 9.81625V10.625C11.875 10.9565 11.7433 11.2745 11.5089 11.5089C11.2745 11.7433 10.9565 11.875 10.625 11.875C10.2935 11.875 9.97555 11.7433 9.74113 11.5089C9.50671 11.2745 9.37501 10.9565 9.37501 10.625V9.375H5.96251C5.34125 10.0592 4.99798 10.9508 5.00001 11.875C5.00001 12.8696 5.3951 13.8234 6.09836 14.5267C6.80162 15.2299 7.75545 15.625 8.75001 15.625C9.74457 15.625 10.6984 15.2299 11.4017 14.5267C12.1049 13.8234 12.5 12.8696 12.5 11.875C12.5024 11.196 12.3163 10.5296 11.9625 9.95Z" fill="#F6FAFD"/>
<path id="Vector_6" d="M10.625 11.875C10.9565 11.875 11.2745 11.7433 11.5089 11.5089C11.7433 11.2745 11.875 10.9565 11.875 10.625V9.81625C11.7755 9.65968 11.6625 9.51205 11.5375 9.375H9.375V10.625C9.375 10.9565 9.5067 11.2745 9.74112 11.5089C9.97554 11.7433 10.2935 11.875 10.625 11.875Z" fill="#141E21"/>
<path id="Vector_7" d="M15 2.5C22.5938 2.5 28.75 7.81688 28.75 14.375H29.3594C29.1871 10.6825 27.599 7.19836 24.9249 4.6462C22.2509 2.09403 18.6965 0.670059 15 0.670059C11.3035 0.670059 7.7491 2.09403 5.07507 4.6462C2.40103 7.19836 0.812928 10.6825 0.640625 14.375H1.25C1.25 7.81688 7.40625 2.5 15 2.5Z" fill="#FFE369"/>
<path id="Vector_8" d="M28.75 14.375C28.75 20.9331 22.5938 26.25 15 26.25C7.40625 26.25 1.25 20.9331 1.25 14.375H0.640625C0.631875 14.5825 0.625 14.7906 0.625 15C0.625 18.8125 2.1395 22.4688 4.83534 25.1647C7.53118 27.8605 11.1875 29.375 15 29.375C18.8125 29.375 22.4688 27.8605 25.1647 25.1647C27.8605 22.4688 29.375 18.8125 29.375 15C29.375 14.7906 29.3681 14.5825 29.3594 14.375H28.75Z" fill="#FFB32B"/>
<path id="Vector_9" d="M23.32 5.81967C23.5213 5.61824 23.4572 5.22788 23.1769 4.94777C22.8966 4.66767 22.5062 4.6039 22.3049 4.80533C22.1036 5.00676 22.1677 5.39713 22.448 5.67723C22.7283 5.95733 23.1187 6.02111 23.32 5.81967Z" fill="#F6FAFD"/>
<path id="Vector_10" d="M19.1578 2.75359C19.2585 2.65275 19.2266 2.45747 19.0865 2.31742C18.9463 2.17736 18.751 2.14558 18.6502 2.24642C18.5495 2.34725 18.5814 2.54254 18.7215 2.68259C18.8617 2.82264 19.057 2.85443 19.1578 2.75359Z" fill="#F6FAFD"/>
<path id="Vector_11" d="M21.9533 5.07729C22.3559 4.67442 22.2276 3.89349 21.6668 3.33304C21.1059 2.77259 20.3249 2.64485 19.9223 3.04772C19.5197 3.45059 19.648 4.23151 20.2089 4.79196C20.7697 5.35241 21.5507 5.48016 21.9533 5.07729Z" fill="#F6FAFD"/>
<path id="Vector_12" d="M21.25 15.625C20.366 15.6242 19.5108 15.3111 18.8352 14.7411C18.1596 14.171 17.707 13.3806 17.5575 12.5094C17.4626 13.0488 17.4871 13.6024 17.6291 14.1314C17.7711 14.6604 18.0273 15.1518 18.3796 15.5711C18.7319 15.9905 19.1718 16.3276 19.6683 16.5587C20.1648 16.7898 20.706 16.9094 21.2537 16.909C21.8014 16.9085 22.3423 16.7882 22.8385 16.5563C23.3347 16.3244 23.7741 15.9866 24.1257 15.5668C24.4774 15.1469 24.7328 14.6551 24.874 14.1259C25.0152 13.5967 25.0388 13.043 24.9431 12.5038C24.7948 13.3761 24.3427 14.1679 23.6668 14.7391C22.991 15.3103 22.1349 15.6241 21.25 15.625ZM8.75001 15.625C7.86604 15.6242 7.01077 15.3111 6.33516 14.7411C5.65955 14.171 5.20705 13.3806 5.05751 12.5094C4.96264 13.0488 4.98707 13.6024 5.1291 14.1314C5.27112 14.6604 5.52729 15.1518 5.87959 15.5711C6.23189 15.9905 6.67177 16.3276 7.16831 16.5587C7.66484 16.7898 8.20598 16.9094 8.75367 16.909C9.30137 16.9085 9.84232 16.7882 10.3385 16.5563C10.8347 16.3244 11.2741 15.9866 11.6257 15.5668C11.9774 15.1469 12.2328 14.6551 12.374 14.1259C12.5152 13.5967 12.5388 13.043 12.4431 12.5038C12.2948 13.3761 11.8427 14.1679 11.1668 14.7391C10.491 15.3103 9.6349 15.6241 8.75001 15.625ZM21.875 9.375H24.0375C24.1626 9.51205 24.2755 9.65968 24.375 9.81625C24.4038 9.86125 24.4375 9.90375 24.4625 9.95C24.7665 10.4533 24.9447 11.0225 24.9819 11.6094C24.9931 11.4913 25 11.3712 25 11.25C25.0024 10.571 24.8163 9.90457 24.4625 9.325C24.4363 9.27875 24.4038 9.23625 24.375 9.19125C24.2755 9.03468 24.1626 8.88705 24.0375 8.75H18.4625C17.8412 9.43421 17.498 10.3258 17.5 11.25C17.5001 11.3824 17.5072 11.5146 17.5213 11.6463C17.5673 10.8041 17.8993 10.0029 18.4625 9.375H21.875ZM9.37501 9.375H11.5375C11.6626 9.51205 11.7755 9.65968 11.875 9.81625C11.9038 9.86125 11.9375 9.90375 11.9625 9.95C12.2665 10.4533 12.4447 11.0225 12.4819 11.6094C12.4931 11.4913 12.5 11.3712 12.5 11.25C12.5024 10.571 12.3163 9.90457 11.9625 9.325C11.9363 9.27875 11.9038 9.23625 11.875 9.19125C11.7755 9.03468 11.6626 8.88705 11.5375 8.75H5.96251C5.34125 9.43421 4.99798 10.3258 5.00001 11.25C5.00013 11.3824 5.00722 11.5146 5.02126 11.6463C5.0673 10.8041 5.39935 10.0029 5.96251 9.375H9.37501Z" fill="#FBB40A"/>
</g>
</g>
<defs>
<clipPath id="clip0_3985_327">
<rect width="30" height="30" fill="white"/>
</clipPath>
</defs>
</svg>
