<svg width="68" height="68" viewBox="0 0 68 68" fill="none" xmlns="http://www.w3.org/2000/svg">
<g id="Group 1171275565">
<circle id="Ellipse 165" cx="34" cy="34" r="34" fill="white"/>
<g id="Vector" filter="url(#filter0_d_606_1143)">
<path d="M51.0168 27.6C50.3268 26.7 49.4868 25.92 48.7068 25.14C46.6968 23.34 44.4168 22.05 42.4968 20.16C38.0268 15.78 37.0368 8.55 39.8868 3C37.0368 3.69 34.5468 5.25 32.4168 6.96C24.6468 13.2 21.5868 24.21 25.2468 33.66C25.3668 33.96 25.4868 34.26 25.4868 34.65C25.4868 35.31 25.0368 35.91 24.4368 36.15C23.7468 36.45 23.0268 36.27 22.4568 35.79C22.2855 35.6484 22.1429 35.4753 22.0368 35.28C18.6468 30.99 18.1068 24.84 20.3868 19.92C15.3768 24 12.6468 30.9 13.0368 37.41C13.2168 38.91 13.3968 40.41 13.9068 41.91C14.3268 43.71 15.1368 45.51 16.0368 47.1C19.2768 52.29 24.8868 56.01 30.9168 56.76C37.3368 57.57 44.2068 56.4 49.1268 51.96C54.6168 46.98 56.5368 39 53.7168 32.16L53.3268 31.38C52.6968 30 51.0168 27.6 51.0168 27.6ZM41.5368 46.5C40.6968 47.22 39.3168 48 38.2368 48.3C34.8768 49.5 31.5168 47.82 29.5368 45.84C33.1068 45 35.2368 42.36 35.8668 39.69C36.3768 37.29 35.4168 35.31 35.0268 33C34.6668 30.78 34.7268 28.89 35.5368 26.82C36.1068 27.96 36.7068 29.1 37.4268 30C39.7368 33 43.3668 34.32 44.1468 38.4C44.2668 38.82 44.3268 39.24 44.3268 39.69C44.4168 42.15 43.3368 44.85 41.5368 46.5Z" fill="#F7B149"/>
</g>
</g>
<defs>
<filter id="filter0_d_606_1143" x="9" y="3" width="50.0078" height="61.9985" filterUnits="userSpaceOnUse" color-interpolation-filters="sRGB">
<feFlood flood-opacity="0" result="BackgroundImageFix"/>
<feColorMatrix in="SourceAlpha" type="matrix" values="0 0 0 0 0 0 0 0 0 0 0 0 0 0 0 0 0 0 127 0" result="hardAlpha"/>
<feOffset dy="4"/>
<feGaussianBlur stdDeviation="2"/>
<feComposite in2="hardAlpha" operator="out"/>
<feColorMatrix type="matrix" values="0 0 0 0 0 0 0 0 0 0 0 0 0 0 0 0 0 0 0.25 0"/>
<feBlend mode="normal" in2="BackgroundImageFix" result="effect1_dropShadow_606_1143"/>
<feBlend mode="normal" in="SourceGraphic" in2="effect1_dropShadow_606_1143" result="shape"/>
</filter>
</defs>
</svg>
