<svg width="20" height="24" viewBox="0 0 20 24" fill="none" xmlns="http://www.w3.org/2000/svg">
<g id="Icon">
<g id="Icon_2">
<g id="Group 1171275242">
<path id="Shape" d="M16.1877 22.7213C18.1272 21.0972 19.2228 18.8188 19.2228 16.3607C19.2228 9.52007 11.9717 2.66421 9.74847 0.725693C9.59814 0.592738 9.3866 0.551384 9.1965 0.61779C9.00551 0.684844 8.86533 0.847893 8.82899 1.04525C8.7172 1.66915 8.49362 2.6555 8.37763 3.03593C7.77554 4.99452 6.78821 6.81593 5.47245 8.39539C5.06265 8.86176 4.61796 9.29691 4.14213 9.69714C3.71105 10.0649 3.30142 10.4565 2.91522 10.8702C2.14363 11.7301 1.55566 12.7356 1.18665 13.8262C0.914929 14.6441 0.776714 15.4997 0.77721 16.3607C0.77721 18.819 1.87277 21.0974 3.81235 22.7213H16.1877Z" stroke="#8665FD"/>
</g>
</g>
</g>
</svg>
