<svg width="14" height="13" viewBox="0 0 14 13" fill="none" xmlns="http://www.w3.org/2000/svg">
<path id="Vector" d="M7 2.06005L6.64837 2.42124C6.69393 2.47166 6.74855 2.51176 6.80896 2.53916C6.86938 2.56655 6.93435 2.58067 7 2.58067C7.06565 2.58067 7.13062 2.56655 7.19104 2.53916C7.25145 2.51176 7.30607 2.47166 7.35163 2.42124L7 2.06005ZM3.74484 9.64508C3.64467 9.55721 3.51588 9.51538 3.38681 9.5288C3.25773 9.54221 3.13894 9.60978 3.05656 9.71663C2.97418 9.82347 2.93497 9.96085 2.94755 10.0985C2.96012 10.2362 3.02346 10.3629 3.12363 10.4508L3.74484 9.64508ZM0.71107 7.55503C0.741854 7.61505 0.78342 7.66802 0.833393 7.7109C0.883366 7.75379 0.940769 7.78575 1.00232 7.80497C1.06388 7.82419 1.12838 7.83029 1.19214 7.82292C1.25591 7.81555 1.31769 7.79486 1.37395 7.76202C1.43022 7.72918 1.47987 7.68484 1.52008 7.63154C1.56028 7.57823 1.59025 7.517 1.60826 7.45134C1.62628 7.38568 1.632 7.31687 1.62509 7.24886C1.61818 7.18084 1.59878 7.11494 1.568 7.05492L0.71107 7.55503ZM0.976744 4.58631C0.976744 3.09292 1.76791 1.83986 2.84819 1.31266C3.89786 0.800739 5.30828 0.936186 6.64837 2.42124L7.35163 1.69955C5.76279 -0.0626484 3.91609 -0.353686 2.44186 0.365225C1.00019 1.06886 0 2.70255 0 4.58631H0.976744ZM4.71898 11.7845C5.05302 12.0651 5.41116 12.3637 5.77386 12.5902C6.13656 12.8159 6.5507 13 7 13V11.9581C6.79814 11.9581 6.56112 11.8747 6.26679 11.6907C5.97181 11.5073 5.66642 11.2545 5.32391 10.9662L4.71898 11.7845ZM9.28102 11.7845C10.2096 11.003 11.3973 10.1084 12.3285 8.98938C13.2772 7.85023 14 6.43811 14 4.58631H13.0233C13.0233 6.11235 12.4372 7.289 11.5985 8.29756C10.7422 9.32557 9.66326 10.1362 8.67609 10.9662L9.28102 11.7845ZM14 4.58631C14 2.70255 13.0005 1.06886 11.5581 0.365225C10.0839 -0.353686 8.23851 -0.0626484 6.64837 1.69886L7.35163 2.42124C8.69172 0.936881 10.1021 0.800739 11.1518 1.31266C12.2321 1.83986 13.0233 3.09223 13.0233 4.58631H14ZM8.67609 10.9662C8.33358 11.2545 8.02819 11.5073 7.73321 11.6907C7.43888 11.8741 7.20186 11.9581 7 11.9581V13C7.4493 13 7.86344 12.8159 8.22614 12.5902C8.58949 12.3637 8.94698 12.0651 9.28102 11.7845L8.67609 10.9662ZM5.32391 10.9662C4.80558 10.5307 4.27879 10.1139 3.74484 9.64508L3.12363 10.4508C3.66409 10.9252 4.23581 11.3781 4.71898 11.7845L5.32456 10.9662H5.32391ZM1.568 7.05561C1.17574 6.30018 0.972143 5.44987 0.976744 4.58631H0C0 5.72406 0.273488 6.70206 0.71107 7.55503L1.568 7.05492V7.05561Z" fill="#78B0A3"/>
</svg>
