<svg width="13" height="17" viewBox="0 0 13 17" fill="none" xmlns="http://www.w3.org/2000/svg">
<g id="Group 1171279780">
<path id="Vector" d="M2.18982 5.58381C2.44536 7.75526 4.41582 9.65863 6.81118 9.65863C9.38027 9.65863 11.4625 7.47026 11.4625 5.10872C11.4625 5.08854 11.4612 5.0689 11.4609 5.04954C8.81055 4.68981 5.43391 6.61554 2.18982 5.58381Z" fill="#42B2FE"/>
<path id="Vector_2" d="M12.8096 5.12567C12.8096 2.01576 11.2528 0.0957603 11.2526 0.0952148H2.3663C2.3663 0.0952148 0.80957 2.01849 0.80957 5.12567C0.80957 8.07876 3.33393 10.8219 6.50821 10.9863C6.47112 12.7012 6.32521 14.487 5.90521 15.1056C5.31366 15.9772 3.24039 15.5294 3.24039 16.4589H10.3796C10.3796 15.5291 8.30548 15.9772 7.71393 15.1056C7.29393 14.487 7.14803 12.7015 7.11093 10.9863C10.2844 10.8221 12.8096 8.07876 12.8096 5.12567ZM6.80957 10.2554C4.13848 10.2554 1.94139 8.13331 1.65666 5.71231C1.63529 5.53665 1.62427 5.35989 1.62366 5.18294C1.62366 2.49658 2.96902 0.834579 2.96902 0.834579H10.6498C10.6501 0.835397 11.9715 2.46794 11.9936 5.11694C11.9938 5.13876 11.9955 5.16031 11.9955 5.18294C11.9955 7.81558 9.67375 10.2554 6.80957 10.2554Z" fill="white"/>
</g>
</svg>
