<svg width="8" height="10" viewBox="0 0 8 10" fill="none" xmlns="http://www.w3.org/2000/svg">
<g id="Group 1171275292">
<path id="Vector" d="M1.50684 3.06095C1.46072 3.56761 1.42835 4.46426 1.71886 4.84592C1.71886 4.84592 1.5821 3.86094 2.80807 2.62512C3.3017 2.12763 3.4158 1.45097 3.24343 0.943475C3.14552 0.655979 2.96668 0.418482 2.81131 0.252651C2.72068 0.155152 2.79027 -0.00567888 2.92217 0.000154378C3.72007 0.0368206 5.0132 0.265151 5.56266 1.68513C5.80381 2.30846 5.82161 2.95262 5.7067 3.60761C5.63387 4.02593 5.37492 4.95592 5.96566 5.07009C6.38726 5.15175 6.59118 4.80676 6.68263 4.55843C6.72066 4.45509 6.85256 4.42926 6.92377 4.51176C7.63589 5.34592 7.69658 6.3284 7.5493 7.17422C7.26446 8.8092 5.65653 9.99919 4.05913 9.99919C2.06359 9.99919 0.475087 8.82337 0.0631934 6.69506C-0.102697 5.83591 -0.0185378 4.13593 1.26812 2.93595C1.36361 2.84595 1.51979 2.92595 1.50684 3.06095Z" fill="url(#paint0_radial_513_2418)"/>
<path id="Vector_2" d="M4.7884 6.11834C4.05281 5.14335 4.38217 4.03086 4.56262 3.58754C4.5869 3.5292 4.52216 3.47421 4.47118 3.51004C4.15478 3.7317 3.50659 4.25336 3.20475 4.98752C2.79609 5.98001 2.82522 6.46583 3.06718 7.05916C3.21284 7.41665 3.04371 7.49249 2.95875 7.50582C2.87621 7.51915 2.80014 7.46249 2.73945 7.40332C2.56485 7.23071 2.44043 7.01139 2.38015 6.77C2.3672 6.71833 2.30166 6.70416 2.27172 6.74666C2.04513 7.06916 1.9278 7.58665 1.92213 7.95248C1.90433 9.0833 2.81147 9.99995 3.90877 9.99995C5.29173 9.99995 6.29921 8.42497 5.50456 7.10832C5.27393 6.725 5.05706 6.47417 4.7884 6.11834Z" fill="url(#paint1_radial_513_2418)"/>
</g>
<defs>
<radialGradient id="paint0_radial_513_2418" cx="0" cy="0" r="1" gradientUnits="userSpaceOnUse" gradientTransform="translate(3.66389 10.0251) rotate(-179.744) scale(5.71211 9.65155)">
<stop offset="0.314" stop-color="#FF9800"/>
<stop offset="0.662" stop-color="#FF6D00"/>
<stop offset="0.972" stop-color="#F44336"/>
</radialGradient>
<radialGradient id="paint1_radial_513_2418" cx="0" cy="0" r="1" gradientUnits="userSpaceOnUse" gradientTransform="translate(3.98483 4.17156) rotate(90.562) scale(6.1546 4.49787)">
<stop offset="0.214" stop-color="#FFF176"/>
<stop offset="0.328" stop-color="#FFF27D"/>
<stop offset="0.487" stop-color="#FFF48F"/>
<stop offset="0.672" stop-color="#FFF7AD"/>
<stop offset="0.793" stop-color="#FFF9C4"/>
<stop offset="0.822" stop-color="#FFF8BD" stop-opacity="0.804"/>
<stop offset="0.863" stop-color="#FFF6AB" stop-opacity="0.529"/>
<stop offset="0.91" stop-color="#FFF38D" stop-opacity="0.209"/>
<stop offset="0.941" stop-color="#FFF176" stop-opacity="0"/>
</radialGradient>
</defs>
</svg>
