<svg width="26" height="25" viewBox="0 0 26 25" fill="none" xmlns="http://www.w3.org/2000/svg">
<g id="sleep">
<path id="Vector" d="M25.2131 19.9167C25.4575 19.9167 25.6557 19.7186 25.6557 19.4741C25.6557 19.2297 25.4575 19.0315 25.2131 19.0315C24.9687 19.0315 24.7705 19.2297 24.7705 19.4741C24.7705 19.7186 24.9687 19.9167 25.2131 19.9167Z" fill="#78B0A3"/>
<path id="Vector_2" d="M3.08322 1.77038C3.32766 1.77038 3.52581 1.57222 3.52581 1.32779C3.52581 1.08335 3.32766 0.885193 3.08322 0.885193C2.83878 0.885193 2.64062 1.08335 2.64062 1.32779C2.64062 1.57222 2.83878 1.77038 3.08322 1.77038Z" fill="#78B0A3"/>
<path id="Vector_3" d="M2.06562 5.07039C1.98262 4.9874 1.87006 4.94078 1.75269 4.94078C1.63532 4.94078 1.52275 4.9874 1.43975 5.07039L1.10037 5.40982L0.760946 5.07039C0.720118 5.02812 0.67128 4.9944 0.617282 4.9712C0.563284 4.94801 0.505207 4.9358 0.446439 4.93529C0.387672 4.93478 0.329392 4.94598 0.274998 4.96823C0.220605 4.99048 0.171189 5.02335 0.129633 5.0649C0.0880763 5.10646 0.0552124 5.15588 0.0329584 5.21027C0.0107044 5.26466 -0.000493961 5.32294 1.67109e-05 5.38171C0.000527382 5.44048 0.0127369 5.49856 0.0359328 5.55255C0.0591286 5.60655 0.0928464 5.65539 0.135119 5.69622L0.474543 6.03573L0.135119 6.37525C0.0929917 6.41611 0.0594122 6.46494 0.0363341 6.5189C0.013256 6.57286 0.00114021 6.63087 0.000691844 6.68956C0.000243474 6.74825 0.0114715 6.80644 0.0337224 6.86074C0.0559733 6.91505 0.0888028 6.96439 0.1303 7.00589C0.171798 7.04739 0.221135 7.08022 0.275441 7.10248C0.329746 7.12473 0.387935 7.13596 0.446622 7.13552C0.505309 7.13508 0.563322 7.12297 0.617284 7.09989C0.671247 7.07682 0.720081 7.04324 0.760946 7.00112L1.10037 6.66165L1.43975 7.00112C1.48066 7.04307 1.52948 7.07649 1.5834 7.09942C1.63732 7.12236 1.69526 7.13436 1.75385 7.13473C1.81244 7.1351 1.87052 7.12384 1.92473 7.10158C1.97893 7.07933 2.02818 7.04654 2.06961 7.00511C2.11105 6.96368 2.14384 6.91443 2.16609 6.86022C2.18834 6.80602 2.19961 6.74793 2.19924 6.68934C2.19887 6.63075 2.18686 6.57281 2.16393 6.51889C2.14099 6.46498 2.10758 6.41615 2.06562 6.37525L1.72615 6.03573L2.06562 5.69617C2.14858 5.61318 2.19519 5.50063 2.19519 5.38328C2.19519 5.26593 2.14858 5.15339 2.06562 5.07039Z" fill="#78B0A3"/>
<path id="Vector_4" d="M6.62368 2.65556C6.88629 2.65556 7.143 2.57769 7.36135 2.43179C7.57971 2.28589 7.74989 2.07852 7.85039 1.8359C7.95088 1.59328 7.97718 1.32631 7.92595 1.06874C7.87471 0.81118 7.74825 0.574592 7.56256 0.388898C7.37687 0.203205 7.14028 0.0767462 6.88272 0.0255135C6.62515 -0.0257192 6.35818 0.000575309 6.11556 0.101072C5.87294 0.201568 5.66557 0.371753 5.51967 0.590106C5.37377 0.808458 5.2959 1.06517 5.2959 1.32778C5.29629 1.67981 5.4363 2.01731 5.68522 2.26624C5.93415 2.51516 6.27165 2.65517 6.62368 2.65556ZM6.62368 0.885187C6.71122 0.885187 6.79679 0.911145 6.86957 0.959778C6.94235 1.00841 6.99908 1.07753 7.03258 1.15841C7.06608 1.23928 7.07485 1.32827 7.05777 1.41413C7.04069 1.49998 6.99854 1.57884 6.93664 1.64074C6.87474 1.70264 6.79588 1.74479 6.71002 1.76187C6.62417 1.77895 6.53518 1.77018 6.45431 1.73668C6.37343 1.70318 6.30431 1.64646 6.25568 1.57367C6.20704 1.50089 6.18109 1.41532 6.18109 1.32778C6.18124 1.21044 6.22792 1.09796 6.31089 1.01499C6.39386 0.932019 6.50634 0.88534 6.62368 0.885187Z" fill="#78B0A3"/>
<path id="Vector_5" d="M13.2629 3.09814C11.162 3.09814 9.10829 3.72113 7.36147 4.88832C5.61465 6.0555 4.25317 7.71447 3.4492 9.65543C2.64523 11.5964 2.43487 13.7322 2.84473 15.7927C3.25459 17.8532 4.26627 19.7459 5.75181 21.2314C7.23736 22.717 9.13006 23.7287 11.1906 24.1385C13.2511 24.5484 15.3869 24.338 17.3278 23.5341C19.2688 22.7301 20.9278 21.3686 22.0949 19.6218C23.2621 17.875 23.8851 15.8213 23.8851 13.7204C23.8819 10.9042 22.7617 8.20424 20.7704 6.21288C18.779 4.22153 16.0791 3.10137 13.2629 3.09814ZM13.2629 23.4574C11.3371 23.4574 9.4545 22.8864 7.85325 21.8165C6.252 20.7465 5.00398 19.2258 4.26701 17.4466C3.53003 15.6674 3.33721 13.7096 3.71291 11.8208C4.08862 9.93198 5.01598 8.197 6.37773 6.83525C7.73949 5.4735 9.47446 4.54613 11.3633 4.17043C13.2521 3.79472 15.2099 3.98755 16.9891 4.72452C18.7683 5.4615 20.289 6.70952 21.3589 8.31077C22.4289 9.91202 22.9999 11.7946 22.9999 13.7204C22.997 16.3019 21.9702 18.7769 20.1448 20.6023C18.3194 22.4277 15.8444 23.4545 13.2629 23.4574Z" fill="#78B0A3"/>
<path id="Vector_6" d="M11.5127 10.8126C11.5487 10.8881 11.6053 10.9518 11.676 10.9965C11.7467 11.0411 11.8287 11.0648 11.9123 11.0648H13.7058C13.8232 11.0648 13.9357 11.0182 14.0187 10.9352C14.1018 10.8522 14.1484 10.7396 14.1484 10.6222C14.1484 10.5049 14.1018 10.3923 14.0187 10.3093C13.9357 10.2263 13.8232 10.1796 13.7058 10.1796H12.8407L14.0496 8.68784C14.1023 8.62288 14.1354 8.54435 14.1452 8.46134C14.1551 8.37833 14.1412 8.29424 14.1052 8.21878C14.0692 8.14333 14.0126 8.07961 13.9419 8.03499C13.8713 7.99038 13.7894 7.96669 13.7058 7.96667H11.9354C11.818 7.96667 11.7055 8.0133 11.6225 8.09631C11.5395 8.17931 11.4928 8.29189 11.4928 8.40927C11.4928 8.52665 11.5395 8.63923 11.6225 8.72223C11.7055 8.80523 11.818 8.85186 11.9354 8.85186H12.7774L11.5685 10.3437C11.5159 10.4086 11.4827 10.4871 11.4728 10.5701C11.463 10.653 11.4768 10.7371 11.5127 10.8126Z" fill="#78B0A3"/>
<path id="Vector_7" d="M17.2467 7.52409H16.3816L17.5906 6.03229C17.6432 5.96733 17.6763 5.8888 17.6862 5.8058C17.696 5.72279 17.6821 5.63869 17.6462 5.56324C17.6102 5.48778 17.5536 5.42406 17.4829 5.37944C17.4122 5.33483 17.3303 5.31114 17.2467 5.31113H15.4764C15.359 5.31113 15.2464 5.35776 15.1634 5.44076C15.0804 5.52376 15.0338 5.63634 15.0338 5.75372C15.0338 5.8711 15.0804 5.98368 15.1634 6.06668C15.2464 6.14968 15.359 6.19631 15.4764 6.19631H16.3183L15.1094 7.68812C15.0568 7.75308 15.0237 7.8316 15.0138 7.91461C15.004 7.99762 15.0179 8.08172 15.0538 8.15717C15.0898 8.23262 15.1464 8.29635 15.2171 8.34096C15.2878 8.38558 15.3697 8.40927 15.4533 8.40928H17.2467C17.3641 8.40928 17.4767 8.36265 17.5597 8.27965C17.6427 8.19665 17.6893 8.08407 17.6893 7.96669C17.6893 7.8493 17.6427 7.73673 17.5597 7.65373C17.4767 7.57072 17.3641 7.52409 17.2467 7.52409Z" fill="#78B0A3"/>
<path id="Vector_8" d="M19.4795 4.17367C19.5155 4.24918 19.5721 4.31296 19.6428 4.3576C19.7135 4.40225 19.7955 4.42595 19.8791 4.42594H21.6726C21.79 4.42594 21.9025 4.37931 21.9855 4.29631C22.0685 4.21331 22.1152 4.10073 22.1152 3.98335C22.1152 3.86597 22.0685 3.75339 21.9855 3.67039C21.9025 3.58739 21.79 3.54076 21.6726 3.54076H20.8075L22.0164 2.04895C22.069 1.98399 22.1022 1.90547 22.112 1.82246C22.1219 1.73945 22.108 1.65535 22.072 1.5799C22.036 1.50445 21.9794 1.44072 21.9087 1.39611C21.8381 1.35149 21.7562 1.3278 21.6726 1.32779H19.9022C19.7848 1.32779 19.6723 1.37442 19.5892 1.45742C19.5062 1.54042 19.4596 1.653 19.4596 1.77038C19.4596 1.88777 19.5062 2.00034 19.5892 2.08334C19.6723 2.16635 19.7848 2.21298 19.9022 2.21298H20.7442L19.5353 3.70478C19.4826 3.7697 19.4495 3.84819 19.4396 3.93117C19.4298 4.01414 19.4436 4.09822 19.4795 4.17367Z" fill="#78B0A3"/>
<path id="Vector_9" d="M11.4729 14.4327C11.5059 14.321 11.4936 14.2007 11.4385 14.098C11.3835 13.9953 11.2902 13.9185 11.1788 13.8842C11.0675 13.8499 10.9471 13.8609 10.8438 13.9148C10.7405 13.9686 10.6626 14.0611 10.627 14.1721C10.5965 14.2704 10.5358 14.3566 10.4535 14.4185C10.3712 14.4804 10.2716 14.5148 10.1687 14.5168C10.0657 14.5189 9.96476 14.4885 9.88008 14.4299C9.7954 14.3714 9.73131 14.2877 9.69689 14.1906C9.65774 14.08 9.57623 13.9894 9.47029 13.9388C9.36434 13.8882 9.24265 13.8818 9.13197 13.9209C9.02128 13.9601 8.93069 14.0416 8.88011 14.1475C8.82953 14.2535 8.8231 14.3752 8.86225 14.4859C8.95874 14.7584 9.13865 14.9935 9.37642 15.158C9.61418 15.3224 9.89772 15.4077 10.1867 15.4019C10.4758 15.396 10.7556 15.2992 10.9865 15.1252C11.2174 14.9512 11.3876 14.7089 11.4729 14.4327Z" fill="#78B0A3"/>
<path id="Vector_10" d="M17.3765 13.8795C17.321 13.8622 17.2626 13.8561 17.2047 13.8614C17.1468 13.8668 17.0905 13.8836 17.0391 13.9108C16.9877 13.938 16.9422 13.975 16.9051 14.0199C16.8681 14.0647 16.8403 14.1164 16.8233 14.1721C16.7928 14.2704 16.7321 14.3566 16.6498 14.4185C16.5675 14.4804 16.4679 14.5148 16.3649 14.5168C16.262 14.5189 16.161 14.4885 16.0764 14.4299C15.9917 14.3714 15.9276 14.2877 15.8932 14.1906C15.854 14.08 15.7725 13.9894 15.6666 13.9388C15.5606 13.8882 15.4389 13.8818 15.3283 13.9209C15.2176 13.9601 15.127 14.0416 15.0764 14.1475C15.0258 14.2535 15.0194 14.3752 15.0585 14.4859C15.155 14.7584 15.3349 14.9935 15.5727 15.158C15.8105 15.3224 16.094 15.4078 16.383 15.4019C16.6721 15.396 16.9519 15.2992 17.1828 15.1252C17.4136 14.9512 17.5838 14.709 17.6692 14.4327C17.7037 14.3206 17.6923 14.1993 17.6374 14.0955C17.5826 13.9917 17.4887 13.914 17.3765 13.8795Z" fill="#78B0A3"/>
<path id="Vector_11" d="M13.263 18.1463C11.9839 18.1463 10.6074 18.5619 10.6074 19.4741C10.6074 20.3863 11.9839 20.8019 13.263 20.8019C14.5421 20.8019 15.9185 20.3863 15.9185 19.4741C15.9185 18.5619 14.5421 18.1463 13.263 18.1463Z" fill="#78B0A3"/>
</g>
</svg>
