<svg width="17" height="18" viewBox="0 0 17 18" fill="none" xmlns="http://www.w3.org/2000/svg">
<g id="Group 1171275362">
<path id="Shape" fill-rule="evenodd" clip-rule="evenodd" d="M16.9387 8.83875C16.9387 8.22594 16.8837 7.63669 16.7816 7.07101H8.64209V10.414H13.2932C13.0929 11.4943 12.484 12.4096 11.5687 13.0224V15.1908H14.3617C15.9959 13.6863 16.9387 11.4707 16.9387 8.83875Z" fill="#4285F4"/>
<path id="Shape_2" fill-rule="evenodd" clip-rule="evenodd" d="M8.6425 17.2846C10.9759 17.2846 12.9322 16.5107 14.3621 15.1908L11.5691 13.0224C10.7952 13.5409 9.80527 13.8473 8.6425 13.8473C6.39157 13.8473 4.48634 12.3271 3.80674 10.2843H0.919434V12.5235C2.34148 15.3479 5.26415 17.2846 8.6425 17.2846Z" fill="#34A853"/>
<path id="Shape_3" fill-rule="evenodd" clip-rule="evenodd" d="M3.80653 10.2843C3.63369 9.76578 3.53548 9.21189 3.53548 8.64228C3.53548 8.07268 3.63369 7.51878 3.80653 7.00025V4.76111H0.919225C0.333907 5.92782 0 7.24773 0 8.64228C0 10.0368 0.333907 11.3567 0.919225 12.5235L3.80653 10.2843Z" fill="#FBBC05"/>
<path id="Shape_4" fill-rule="evenodd" clip-rule="evenodd" d="M8.6425 3.43727C9.91134 3.43727 11.0506 3.87332 11.9462 4.72969L14.425 2.25092C12.9283 0.856372 10.972 0 8.6425 0C5.26415 0 2.34148 1.93666 0.919434 4.76111L3.80674 7.00025C4.48634 4.95753 6.39157 3.43727 8.6425 3.43727Z" fill="#EA4335"/>
</g>
</svg>
