<svg width="26" height="20" viewBox="0 0 26 20" fill="none" xmlns="http://www.w3.org/2000/svg">
<path id="Vector" fill-rule="evenodd" clip-rule="evenodd" d="M0 1.25C0 0.918479 0.128403 0.600537 0.356963 0.366116C0.585523 0.131696 0.895517 0 1.21875 0H24.7812C25.1045 0 25.4145 0.131696 25.643 0.366116C25.8716 0.600537 26 0.918479 26 1.25C26 1.58152 25.8716 1.89946 25.643 2.13388C25.4145 2.3683 25.1045 2.5 24.7812 2.5H1.21875C0.895517 2.5 0.585523 2.3683 0.356963 2.13388C0.128403 1.89946 0 1.58152 0 1.25ZM11.375 18.75C11.375 18.4185 11.5034 18.1005 11.732 17.8661C11.9605 17.6317 12.2705 17.5 12.5938 17.5H24.7812C25.1045 17.5 25.4145 17.6317 25.643 17.8661C25.8716 18.1005 26 18.4185 26 18.75C26 19.0815 25.8716 19.3995 25.643 19.6339C25.4145 19.8683 25.1045 20 24.7812 20H12.5938C12.2705 20 11.9605 19.8683 11.732 19.6339C11.5034 19.3995 11.375 19.0815 11.375 18.75ZM0 10C0 9.66848 0.128403 9.35054 0.356963 9.11612C0.585523 8.8817 0.895517 8.75 1.21875 8.75H24.7812C25.1045 8.75 25.4145 8.8817 25.643 9.11612C25.8716 9.35054 26 9.66848 26 10C26 10.3315 25.8716 10.6495 25.643 10.8839C25.4145 11.1183 25.1045 11.25 24.7812 11.25H1.21875C0.895517 11.25 0.585523 11.1183 0.356963 10.8839C0.128403 10.6495 0 10.3315 0 10Z" fill="black"/>
</svg>
