<svg width="21" height="21" viewBox="0 0 21 21" fill="none" xmlns="http://www.w3.org/2000/svg">
<path id="Fill 1" fill-rule="evenodd" clip-rule="evenodd" d="M5.13363 11.7018C4.97498 11.7018 4.84777 11.8322 4.84777 11.9922V12.2826C4.84777 12.4438 4.97498 12.5731 5.13363 12.5731C5.29114 12.5731 5.41949 12.4438 5.41949 12.2826V11.9922C5.41949 11.8322 5.29114 11.7018 5.13363 11.7018ZM8.62974 4.37437L4.90465 7.29691C4.83433 7.3521 4.84777 7.43719 4.84777 7.52693V10.8305C4.84777 10.9917 4.97498 11.1209 5.13363 11.1209C5.29114 11.1209 5.41949 10.9917 5.41949 10.8305V7.67011L9.01165 4.8347C9.13686 4.7374 9.11228 4.55473 9.01623 4.42781C8.97363 4.36769 8.90788 4.32645 8.83413 4.31629C8.76152 4.30641 8.68663 4.32762 8.62974 4.37437ZM16.854 6.76457V17.1109C16.854 18.773 16.5682 18.9624 15.0294 18.9624H12.8519V14.033C12.8519 13.0325 12.3717 12.8635 11.5421 12.8635H8.79726C7.96768 12.8635 7.7064 13.0325 7.7064 14.033V18.9624H5.31001C3.7712 18.9624 3.70431 18.773 3.70431 17.1109V6.76457C3.70431 6.64636 3.66858 6.53629 3.60941 6.44568L10.1697 1.42889L16.8898 6.56708C16.8663 6.62981 16.854 6.69661 16.854 6.76457ZM8.79726 13.4443H11.5421C12.1707 13.4443 12.2802 13.4557 12.2802 14.033V18.9624H8.27813V14.033C8.27813 13.4557 8.16864 13.4443 8.79726 13.4443ZM19.9471 7.44968L10.5136 0.23786C10.5036 0.230019 10.4936 0.226824 10.4836 0.219564C10.4678 0.208237 10.4521 0.198363 10.4355 0.189069C10.3695 0.15538 10.298 0.133307 10.2243 0.125756C10.1886 0.121981 10.152 0.121981 10.1151 0.125756C10.0202 0.134469 9.92956 0.167868 9.85152 0.220725C9.84237 0.227986 9.83351 0.23089 9.82579 0.23786L0.392299 7.44968C0.148744 7.64513 0.104149 8.00206 0.290532 8.25386C0.477201 8.50624 0.826526 8.56055 1.07894 8.37787L2.55972 7.24696V17.1098C2.55972 19.3913 3.14602 20.1229 5.31001 20.1229H15.0294C17.1936 20.1229 17.9963 19.3913 17.9963 17.1098V7.41337L19.2593 8.37787C19.3619 8.45745 19.4825 8.49492 19.602 8.49492C19.849 8.4955 20.0677 8.33605 20.146 8.09849C20.2241 7.8615 20.1437 7.59954 19.9471 7.44968Z" fill="white"/>
</svg>
