<svg width="23" height="19" viewBox="0 0 23 19" fill="none" xmlns="http://www.w3.org/2000/svg">
<g id="Group">
<path id="Vector" opacity="0.2" fill-rule="evenodd" clip-rule="evenodd" d="M1.25 6.76001C1.25 6.41523 1.38696 6.08457 1.63076 5.84077C1.87456 5.59697 2.20522 5.46001 2.55 5.46001H15.9504C16.2952 5.46001 16.6258 5.59697 16.8696 5.84077C17.1134 6.08457 17.2504 6.41523 17.2504 6.76001C17.2504 7.10479 17.1134 7.43545 16.8696 7.67925C16.6258 7.92305 16.2952 8.06001 15.9504 8.06001H2.55C2.20522 8.06001 1.87456 7.92305 1.63076 7.67925C1.38696 7.43545 1.25 7.10479 1.25 6.76001ZM1.25 1.56001C1.25 1.21523 1.38696 0.884568 1.63076 0.640771C1.87456 0.396974 2.20522 0.26001 2.55 0.26001H20.75C21.0948 0.26001 21.4254 0.396974 21.6692 0.640771C21.913 0.884568 22.05 1.21523 22.05 1.56001C22.05 1.90479 21.913 2.23545 21.6692 2.47925C21.4254 2.72305 21.0948 2.86001 20.75 2.86001H2.55C2.20522 2.86001 1.87456 2.72305 1.63076 2.47925C1.38696 2.23545 1.25 1.90479 1.25 1.56001ZM1.25 11.96C1.25 11.6152 1.38696 11.2846 1.63076 11.0408C1.87456 10.797 2.20522 10.66 2.55 10.66H20.75C21.0948 10.66 21.4254 10.797 21.6692 11.0408C21.913 11.2846 22.05 11.6152 22.05 11.96C22.05 12.3048 21.913 12.6355 21.6692 12.8792C21.4254 13.123 21.0948 13.26 20.75 13.26H2.55C2.20522 13.26 1.87456 13.123 1.63076 12.8792C1.38696 12.6355 1.25 12.3048 1.25 11.96ZM1.25 17.16C1.25 16.8152 1.38696 16.4846 1.63076 16.2408C1.87456 15.997 2.20522 15.86 2.55 15.86H15.9504C16.2952 15.86 16.6258 15.997 16.8696 16.2408C17.1134 16.4846 17.2504 16.8152 17.2504 17.16C17.2504 17.5048 17.1134 17.8355 16.8696 18.0792C16.6258 18.323 16.2952 18.46 15.9504 18.46H2.55C2.20522 18.46 1.87456 18.323 1.63076 18.0792C1.38696 17.8355 1.25 17.5048 1.25 17.16Z" fill="#78B0A3"/>
<path id="Vector_2" fill-rule="evenodd" clip-rule="evenodd" d="M0.600098 5.85C0.600098 5.67761 0.66858 5.51228 0.790478 5.39038C0.912377 5.26848 1.07771 5.2 1.2501 5.2H15.9505C16.1229 5.2 16.2882 5.26848 16.4101 5.39038C16.532 5.51228 16.6005 5.67761 16.6005 5.85C16.6005 6.02239 16.532 6.18772 16.4101 6.30962C16.2882 6.43152 16.1229 6.5 15.9505 6.5H1.2501C1.07771 6.5 0.912377 6.43152 0.790478 6.30962C0.66858 6.18772 0.600098 6.02239 0.600098 5.85ZM0.600098 0.65C0.600098 0.477609 0.66858 0.312279 0.790478 0.190381C0.912377 0.0684821 1.07771 0 1.2501 0H20.7501C20.9225 0 21.0878 0.0684821 21.2097 0.190381C21.3316 0.312279 21.4001 0.477609 21.4001 0.65C21.4001 0.822391 21.3316 0.987721 21.2097 1.10962C21.0878 1.23152 20.9225 1.3 20.7501 1.3H1.2501C1.07771 1.3 0.912377 1.23152 0.790478 1.10962C0.66858 0.987721 0.600098 0.822391 0.600098 0.65ZM0.600098 11.05C0.600098 10.8776 0.66858 10.7123 0.790478 10.5904C0.912377 10.4685 1.07771 10.4 1.2501 10.4H20.7501C20.9225 10.4 21.0878 10.4685 21.2097 10.5904C21.3316 10.7123 21.4001 10.8776 21.4001 11.05C21.4001 11.2224 21.3316 11.3877 21.2097 11.5096C21.0878 11.6315 20.9225 11.7 20.7501 11.7H1.2501C1.07771 11.7 0.912377 11.6315 0.790478 11.5096C0.66858 11.3877 0.600098 11.2224 0.600098 11.05ZM0.600098 16.25C0.600098 16.0776 0.66858 15.9123 0.790478 15.7904C0.912377 15.6685 1.07771 15.6 1.2501 15.6H15.9505C16.1229 15.6 16.2882 15.6685 16.4101 15.7904C16.532 15.9123 16.6005 16.0776 16.6005 16.25C16.6005 16.4224 16.532 16.5877 16.4101 16.7096C16.2882 16.8315 16.1229 16.9 15.9505 16.9H1.2501C1.07771 16.9 0.912377 16.8315 0.790478 16.7096C0.66858 16.5877 0.600098 16.4224 0.600098 16.25Z" fill="#78B0A3"/>
</g>
</svg>
