<svg width="20" height="28" viewBox="0 0 20 28" fill="none" xmlns="http://www.w3.org/2000/svg">
<path id="Vector" d="M10.1959 27.9189C10.1959 27.9189 0.75676 15.3837 0.75676 10.0703C0.75676 8.80818 1.00091 7.55842 1.47528 6.39239C1.94964 5.22635 2.64492 4.16686 3.52143 3.27441C4.39794 2.38197 5.43851 1.67404 6.58373 1.19105C7.72894 0.708064 8.95638 0.459473 10.1959 0.459473C11.4355 0.459473 12.663 0.708064 13.8082 1.19105C14.9534 1.67404 15.994 2.38197 16.8705 3.27441C17.747 4.16686 18.4423 5.22635 18.9166 6.39239C19.391 7.55842 19.6351 8.80818 19.6351 10.0703C19.6351 15.3837 10.1959 27.9189 10.1959 27.9189ZM10.1959 12.8162C10.9112 12.8162 11.5972 12.5269 12.103 12.012C12.6087 11.497 12.8929 10.7986 12.8929 10.0703C12.8929 9.34201 12.6087 8.64357 12.103 8.12861C11.5972 7.61364 10.9112 7.32434 10.1959 7.32434C9.48068 7.32434 8.79471 7.61364 8.28895 8.12861C7.78318 8.64357 7.49904 9.34201 7.49904 10.0703C7.49904 10.7986 7.78318 11.497 8.28895 12.012C8.79471 12.5269 9.48068 12.8162 10.1959 12.8162Z" fill="white"/>
</svg>
