<svg width="142" height="170" viewBox="0 0 142 170" fill="none" xmlns="http://www.w3.org/2000/svg">
<g id="Group 1171279766">
<g id="Shadow">
<path id="Vector" d="M70.9994 169.028C109.912 169.028 141.458 167.557 141.458 165.743C141.458 163.928 109.912 162.457 70.9994 162.457C32.0863 162.457 0.541016 163.928 0.541016 165.743C0.541016 167.557 32.0863 169.028 70.9994 169.028Z" fill="#F0F0F0"/>
</g>
<g id="Plant">
<g id="Group">
<path id="Vector_2" d="M121.285 164.087L124.349 147.497H103.516L106.579 164.087C106.774 165.137 107.689 165.9 108.755 165.9H119.104C120.17 165.9 121.09 165.137 121.28 164.087H121.285Z" fill="#78B0A3"/>
<path id="Vector_3" opacity="0.4" d="M121.285 164.087L124.349 147.497H103.516L106.579 164.087C106.774 165.137 107.689 165.9 108.755 165.9H119.104C120.17 165.9 121.09 165.137 121.28 164.087H121.285Z" fill="white"/>
<path id="Vector_4" d="M122.14 132.482C119.396 131.763 115.207 137.451 113.935 142.999V134.913C114.573 133.776 115.797 132.071 118.01 130.269C121.453 127.465 124.625 123.866 121.875 123.14C119.299 122.464 115.45 127.438 113.935 132.639V122.258C114.379 121.571 115.104 120.667 116.268 119.72C118.438 117.95 120.435 115.682 118.703 115.227C117.199 114.832 115.006 117.49 113.935 120.494V117.127C114.113 116.088 114.362 114.599 115.05 113.078C116.646 109.555 117.507 105.928 115.402 106.199C113.296 106.469 111.932 112.743 113.08 117.56V119.292C112.3 115.768 109.632 112.12 107.889 112.575C106.157 113.03 108.154 115.297 110.325 117.067C111.975 118.415 112.749 119.671 113.08 120.347V128.526C111.829 122.951 107.613 117.192 104.852 117.917C102.103 118.642 105.275 122.242 108.717 125.046C111.32 127.167 112.549 129.148 113.074 130.231V140.038C111.743 134.561 107.629 129.035 104.923 129.749C102.173 130.474 104.533 133.105 108.403 136.282C111.034 138.442 112.441 140.726 113.074 141.965V147.486H113.924V144.742C114.46 143.654 115.694 141.689 118.265 139.595C121.707 136.791 124.879 133.191 122.129 132.466L122.14 132.482Z" fill="#78B0A3"/>
<path id="Vector_5" opacity="0.2" d="M122.14 132.482C119.396 131.763 115.207 137.451 113.935 142.999V134.913C114.573 133.776 115.797 132.071 118.01 130.269C121.453 127.465 124.625 123.866 121.875 123.14C119.299 122.464 115.45 127.438 113.935 132.639V122.258C114.379 121.571 115.104 120.667 116.268 119.72C118.438 117.95 120.435 115.682 118.703 115.227C117.199 114.832 115.006 117.49 113.935 120.494V117.127C114.113 116.088 114.362 114.599 115.05 113.078C116.646 109.555 117.507 105.928 115.402 106.199C113.296 106.469 111.932 112.743 113.08 117.56V119.292C112.3 115.768 109.632 112.12 107.889 112.575C106.157 113.03 108.154 115.297 110.325 117.067C111.975 118.415 112.749 119.671 113.08 120.347V128.526C111.829 122.951 107.613 117.192 104.852 117.917C102.103 118.642 105.275 122.242 108.717 125.046C111.32 127.167 112.549 129.148 113.074 130.231V140.038C111.743 134.561 107.629 129.035 104.923 129.749C102.173 130.474 104.533 133.105 108.403 136.282C111.034 138.442 112.441 140.726 113.074 141.965V147.486H113.924V144.742C114.46 143.654 115.694 141.689 118.265 139.595C121.707 136.791 124.879 133.191 122.129 132.466L122.14 132.482Z" fill="white"/>
<path id="Vector_6" d="M125.632 146.718H102.238V148.996H125.632V146.718Z" fill="#78B0A3"/>
<path id="Vector_7" opacity="0.6" d="M125.632 146.718H102.238V148.996H125.632V146.718Z" fill="white"/>
</g>
</g>
<g id="Doors">
<g id="Group_2">
<path id="Vector_8" d="M96.4835 8.16028H25.7842V153.088H96.4835V8.16028Z" fill="#7793C7"/>
<path id="Vector_9" opacity="0.2" d="M96.4835 8.16028H25.7842V153.088H96.4835V8.16028Z" fill="black"/>
<path id="Vector_10" d="M94.416 151.02L94.416 10.2334L27.8573 10.2334L27.8573 151.02H94.416Z" fill="#7793C7"/>
<path id="Vector_11" opacity="0.9" d="M94.4161 10.2279H27.8574V153.083H94.4161V10.2279Z" fill="white"/>
<path id="Vector_12" opacity="0.1" d="M94.4163 10.2279H40.7666V153.083H94.4163V10.2279Z" fill="black"/>
<g id="Group_3">
<path id="Vector_13" d="M3.08984 0.880371V153.088H25.7849V8.16031L3.08984 0.880371Z" fill="#7793C7"/>
<path id="Vector_14" opacity="0.2" d="M3.08984 0.880371V153.088H25.7849V8.16031L3.08984 0.880371Z" fill="white"/>
<path id="Vector_15" d="M9.02721 78.9951C9.02721 81.0302 8.25862 82.681 7.31683 82.681C6.37504 82.681 5.60645 81.0302 5.60645 78.9951C5.60645 76.9599 6.37504 75.3091 7.31683 75.3091C8.25862 75.3091 9.02721 76.9599 9.02721 78.9951Z" fill="#7793C7"/>
<path id="Vector_16" d="M3.09487 0.880371H1.03809V153.083H3.09487V0.880371Z" fill="#7793C7"/>
<path id="Vector_17" opacity="0.2" d="M3.09487 0.880371H1.03809V153.083H3.09487V0.880371Z" fill="black"/>
</g>
</g>
</g>
<g id="Character 1">
<g id="Group_4">
<path id="Vector_18" d="M57.1507 42.3843L52.209 52.4517C51.7598 53.3772 51.3105 54.3082 50.8613 55.2338C50.4608 56.0619 50.0657 56.89 49.6814 57.7127C48.9344 59.304 48.2254 60.8845 47.5867 62.4379C47.2728 63.2336 46.9696 64.0563 46.8019 64.6517C46.6341 65.2633 46.5096 66.0914 46.4284 66.9358C46.2606 68.6408 46.2011 70.4756 46.174 72.3105C46.1469 75.9857 46.2065 79.7637 46.2931 83.4983L42.58 84.0234C41.6599 80.2616 40.9346 76.5107 40.4529 72.6407C40.2147 70.6976 40.0307 68.749 40.0036 66.676C39.9982 65.626 40.0199 64.5651 40.2093 63.3202C40.4366 62.0645 40.7343 61.0902 41.0483 60.1051C41.6815 58.1674 42.3581 56.3488 43.0942 54.5518C43.8249 52.7548 44.5773 50.9849 45.3675 49.242C46.9426 45.7401 48.6097 42.3301 50.4066 38.931L57.1507 42.3843Z" fill="#7793C7"/>
<path id="Vector_19" opacity="0.2" d="M50.8616 41.9458V55.2337C50.4611 56.0619 50.0659 56.89 49.6816 57.7127L50.8616 41.9458Z" fill="black"/>
<g id="Group_5">
<g id="Group_6">
<path id="Vector_20" d="M38.8885 90.2911V86.9028C38.8885 86.7837 38.9859 86.6917 39.0996 86.6917H40.9398V86.145H39.0996C38.6828 86.145 38.3418 86.486 38.3418 86.9028V90.2911H38.8885Z" fill="black"/>
<path id="Vector_21" d="M51.6139 86.9028V90.2911H52.1605V86.9028C52.1605 86.486 51.8195 86.145 51.4028 86.145H49.5625V86.6917H51.4028C51.5219 86.6917 51.6139 86.7891 51.6139 86.9028Z" fill="black"/>
<g id="Group_7">
<path id="Vector_22" d="M59.3759 91.7255V108.829C59.3759 109.625 58.7318 110.269 57.9362 110.269H33.2493C32.4537 110.269 31.8096 109.625 31.8096 108.829V91.7255C31.8096 90.9298 32.4537 90.2911 33.2493 90.2911H57.9362C58.7318 90.2911 59.3759 90.9298 59.3759 91.7255Z" fill="black"/>
<g id="Group_8" opacity="0.5">
<path id="Vector_23" d="M59.3759 91.7255V108.829C59.3759 109.625 58.7318 110.269 57.9362 110.269H33.2493C32.4537 110.269 31.8096 109.625 31.8096 108.829V91.7255C31.8096 90.9298 32.4537 90.2911 33.2493 90.2911H57.9362C58.7318 90.2911 59.3759 90.9298 59.3759 91.7255Z" fill="white"/>
</g>
<g id="Group_9">
<path id="Vector_24" d="M55.7545 90.2911H54.6611V110.269H55.7545V90.2911Z" fill="black"/>
<path id="Vector_25" d="M36.5289 90.2911H35.4355V110.269H36.5289V90.2911Z" fill="black"/>
</g>
</g>
<path id="Vector_26" d="M50.1256 85.5009H40.1826V87.3249H50.1256V85.5009Z" fill="black"/>
<path id="Vector_27" opacity="0.3" d="M50.1256 85.5009H40.1826V87.3249H50.1256V85.5009Z" fill="white"/>
</g>
<path id="Vector_28" d="M46.3257 82.9894C46.3257 82.9894 48.5395 84.689 48.7939 85.3764C49.0482 86.0584 48.0144 87.6876 47.5111 87.6551C46.802 87.6118 47.7167 85.8148 47.7167 85.8148L43.365 85.712C43.365 85.712 42.5694 85.4143 42.5802 84.0233C43.6789 83.076 44.8643 82.7513 46.3257 82.9894Z" fill="#B55B52"/>
<path id="Vector_29" d="M48.323 87.0706C48.323 87.0706 48.7993 88.1098 48.1877 88.4021C47.5761 88.6944 44.0038 88.5482 43.1486 88.1044C42.2988 87.6606 42.7589 86.4319 43.4084 86.2749C44.0579 86.118 47.5382 85.7229 48.323 87.0652V87.0706Z" fill="#B55B52"/>
</g>
<g id="Group_10">
<g id="Group_11">
<g id="Group_12">
<path id="Vector_30" d="M39.133 152.428L37.5146 159.946L40.497 160.844L43.501 154.127L39.133 152.428Z" fill="#B55B52"/>
<path id="Vector_31" d="M39.7657 159.946C39.7657 159.946 41.1134 158.317 41.6384 158.636C42.158 158.955 41.909 161.229 41.909 161.229C41.909 161.229 44.7507 162.912 45.595 163.15C46.4394 163.388 47.0239 164.021 46.775 165.716L36.3232 163.459C36.3232 163.459 37.2055 159.702 37.3679 159.058C37.5248 158.414 38.2718 159.421 38.2718 159.421L39.7711 159.94L39.7657 159.946Z" fill="#263238"/>
</g>
<path id="Vector_32" d="M64.6211 76.673C64.1827 78.995 63.9553 84.5754 63.6685 91.0813C63.4682 95.5467 63.2409 100.44 62.8891 105.008C62.4506 110.859 61.8174 116.174 60.8106 119.362C57.26 130.599 43.2305 155.778 43.2305 155.778L38.3213 154.717C38.3213 154.717 46.1371 127.73 46.9977 124.699C47.8583 121.668 49.7094 110.805 49.6986 99.0378C49.6877 80.5376 49.6986 76.1967 49.6986 76.1967L64.6157 76.6676L64.6211 76.673Z" fill="#263238"/>
<path id="Vector_33" opacity="0.2" d="M64.3666 92.1368C63.9065 96.5805 63.3923 101.452 62.7807 105.993C61.3897 97.2841 60.9404 84.3318 60.9404 84.3318L64.372 92.1313L64.3666 92.1368Z" fill="black"/>
<path id="Vector_34" d="M37.8604 154.804L43.6193 156.049L44.4367 154.3L38.1202 152.861L37.8604 154.804Z" fill="#7793C7"/>
</g>
<g id="Group_13">
<path id="Vector_35" d="M65.3291 154.522V162.214L68.4359 162.463L69.9569 155.258L65.3291 154.522Z" fill="#B55B52"/>
<path id="Vector_36" d="M67.5319 161.737C67.5319 161.737 68.5062 159.859 69.0853 160.059C69.6644 160.26 69.8972 162.533 69.8972 162.533C69.8972 162.533 73.0311 163.578 73.9025 163.637C74.7794 163.691 75.483 164.189 75.5967 165.9H64.9014C64.9014 165.9 64.9717 162.04 64.9934 161.38C65.015 160.72 65.9568 161.548 65.9568 161.548L67.5319 161.743V161.737Z" fill="#263238"/>
</g>
<path id="Vector_37" d="M61.6271 77.0141C60.4255 77.8097 61.1183 83.0545 61.3023 85.317C61.6541 89.6308 64.3658 96.0393 64.7393 101.641C65.1723 108.126 65.4808 114.626 65.3293 119.129C64.9288 130.702 65.0208 156.936 65.0208 156.936H70.0437C70.0437 156.936 75.9434 130.864 77.0421 119.129C77.9623 109.403 77.1991 81.3982 77.0421 75.3416L61.6271 77.0086V77.0141Z" fill="#263238"/>
<path id="Vector_38" d="M64.5822 157.115H70.4765L70.9041 155.237L64.4307 155.156L64.5822 157.115Z" fill="#7793C7"/>
</g>
<g id="Group_14">
<path id="Vector_39" d="M74.2013 24.8096C74.2608 25.1669 74.1201 25.4862 73.882 25.5241C73.6492 25.562 73.4111 25.3022 73.3515 24.9449C73.292 24.5877 73.4327 24.2684 73.6709 24.2305C73.9036 24.1926 74.1418 24.4524 74.2013 24.8096Z" fill="#263238"/>
<path id="Vector_40" d="M73.7085 25.2317C73.7085 25.2317 74.4825 27.0503 75.2998 27.9163C74.7532 28.4576 73.7843 28.2411 73.7843 28.2411L73.7031 25.2317H73.7085Z" fill="#A02724"/>
<path id="Vector_41" d="M72.3394 22.9205C72.2961 22.9151 72.2528 22.888 72.2204 22.8502C72.1554 22.769 72.1716 22.6499 72.2582 22.5904C73.081 21.9625 73.8983 22.244 73.9307 22.2548C74.0282 22.2873 74.0769 22.3955 74.0444 22.4929C74.0119 22.5904 73.9037 22.6391 73.8062 22.6066C73.8062 22.6066 73.1405 22.3847 72.4856 22.888C72.4423 22.9205 72.3881 22.9313 72.3394 22.9259V22.9205Z" fill="#263238"/>
<path id="Vector_42" d="M67.7227 33.7945L63.1707 27.1478C62.6619 30.3737 61.3683 35.2721 60.1396 37.1287C60.1396 37.1287 61.3034 40.1976 67.0948 38.2382C67.0948 38.2382 66.31 35.743 67.7173 33.7945H67.7227Z" fill="#B55B52"/>
<path id="Vector_43" d="M59.668 35.6889C59.668 35.6889 60.22 33.8378 61.7085 33.3723C61.7085 33.3723 65.8058 34.5739 67.2997 34.5306C67.2997 34.5306 67.9546 35.0881 67.8843 35.9541C67.8843 35.9541 61.2972 36.1544 59.668 35.6889Z" fill="#7793C7"/>
<path id="Vector_44" d="M62.9153 24.2683C63.2617 28.1707 63.2617 30.4765 65.2914 32.4305C68.3441 35.3695 73.118 33.4534 73.9516 29.5239C74.6985 25.9895 74.0111 20.198 70.1411 18.7474C66.3306 17.3131 62.5743 20.3712 62.9207 24.2737L62.9153 24.2683Z" fill="#B55B52"/>
<path id="Vector_45" d="M73.8057 20.3874C71.7327 23.2778 73.232 24.2683 72.6745 25.4969C72.117 26.7256 71.0291 24.0085 69.9195 27.0341C68.8099 30.0597 64.7288 30.8716 64.7288 30.8716C63.8141 30.011 62.7694 30.1247 62.7694 30.1247C54.342 20.9612 62.0442 19.0289 62.0442 19.0289C62.0442 19.0289 62.3906 17.4809 64.7017 16.788C66.5474 16.236 66.9317 16.6473 69.5622 16.2684C72.1928 15.8896 73.4647 15.5269 74.7313 16.6473C75.7326 17.5296 73.8111 20.382 73.8111 20.382L73.8057 20.3874Z" fill="#263238"/>
<path id="Vector_46" d="M69.2323 25.5349C69.3135 26.5578 69.8114 27.5105 70.396 28.1329C71.2782 29.0639 72.1605 28.4577 72.2904 27.2994C72.4041 26.2547 72.0901 24.5173 71.0238 24.0139C69.9792 23.5214 69.1348 24.3657 69.2323 25.5349Z" fill="#B55B52"/>
</g>
<path id="Vector_47" d="M79.0504 67.8179C79.0017 70.2049 78.8827 72.6784 78.677 75.2386C78.6012 76.2183 78.5092 77.2088 78.4063 78.2155C65.8437 82.6376 48.4639 77.7825 48.4639 77.7825C49.0376 75.3198 50.0606 67.9478 50.4936 62.5623C51.0349 55.8561 51.116 50.6491 50.0931 43.3746C49.5951 39.8402 50.3853 36.5385 53.7628 36.1001L55.2567 35.9323C60.9291 35.2016 67.4783 35.4343 72.8151 36.414C75.5377 36.912 77.5728 39.2935 77.8001 42.1784C78.3035 48.6681 79.2886 57.4041 79.0504 67.8179Z" fill="#7793C7"/>
<path id="Vector_48" opacity="0.2" d="M59.668 35.6888C59.668 35.6888 60.5989 37.2801 63.4081 37.2801C66.2172 37.2801 67.8951 35.7592 67.8951 35.7592L68.8586 35.8512C68.8586 35.8512 65.8383 38.3627 62.8993 37.9892C59.9602 37.6157 59.668 35.6888 59.668 35.6888Z" fill="black"/>
<path id="Vector_49" opacity="0.2" d="M79.0506 67.8181C79.0019 70.205 78.8828 72.6786 78.6771 75.2387C77.01 73.799 74.6068 71.3471 73.7083 68.4676C72.274 63.8669 70.9912 49.2637 70.9912 49.2637L79.0506 67.8181Z" fill="black"/>
<path id="Vector_50" d="M77.4975 41.0527C78.0496 44.6196 78.58 48.2406 79.078 51.8237C79.3378 53.6207 79.5868 55.4069 79.8682 57.1822C80.128 58.9575 80.4365 60.7166 80.7667 62.3891C80.9453 63.2335 81.1023 63.9912 81.335 64.6678L81.5137 65.1874L81.7464 65.7449C81.8871 66.1184 82.0657 66.5081 82.2444 66.8924C82.9534 68.4512 83.7869 70.0317 84.6313 71.6176C86.3417 74.7785 88.0954 78.0315 89.8978 81.1871L87.5866 83.4603C84.7179 81.1383 82.1253 77.6147 79.9278 74.562C78.8236 73.0357 77.7681 71.4714 76.756 69.7881C76.5016 69.3659 76.2472 68.9492 76.009 68.4837L75.6464 67.8017C75.5273 67.5635 75.4137 67.2983 75.3 67.0494C74.8399 66.0318 74.5152 65.0088 74.2229 64.0778C73.1079 60.3161 72.3555 56.7059 71.6627 53.0415C70.9699 49.3826 70.4232 45.74 69.9902 42.0377L77.5029 41.0472L77.4975 41.0527Z" fill="#7793C7"/>
<path id="Vector_51" d="M87.5811 83.4658C87.5811 83.4658 88.1007 89.1977 89.1507 89.2843C89.4268 89.306 89.535 88.6781 89.3997 87.1626C89.3997 87.1626 90.8882 90.4697 91.2995 90.8269C93.3022 92.5589 93.1993 87.4928 92.4307 85.463C91.7 83.5362 89.8976 81.1925 89.8976 81.1925L87.5865 83.4658H87.5811Z" fill="#B55B52"/>
</g>
</g>
</g>
</svg>
