<svg width="26" height="17" viewBox="0 0 26 17" fill="none" xmlns="http://www.w3.org/2000/svg">
<g id="Group">
<g id="Group_2">
<g id="Group_3">
<path id="Vector" d="M25.0361 14.3674H23.9277C23.4966 8.87226 19.7974 4.40865 15.0151 3.41408C15.1296 3.11695 15.194 2.79016 15.194 2.44661C15.194 1.09516 14.2117 0 12.9999 0C11.7882 0 10.8066 1.09516 10.8066 2.44661C10.8066 2.79059 10.871 3.11738 10.9855 3.41408C6.20256 4.4086 2.50254 8.87183 2.0715 14.3674H0.963868C0.431421 14.3674 0 14.8485 0 15.4424C0 16.0363 0.431421 16.5174 0.963868 16.5174H2.99063H23.0093C23.0124 16.5178 23.0155 16.5174 23.0171 16.5174H25.0361C25.5686 16.5174 26 16.0362 26 15.4424C26 14.8486 25.5682 14.3674 25.0361 14.3674ZM4.00535 14.3674C4.48805 9.30783 8.33766 5.35371 13 5.35371C17.6623 5.35371 21.5119 9.30783 21.9946 14.3674H4.00535V14.3674Z" fill="#78B0A3"/>
<path id="Vector_2" d="M14.5564 7.85494C13.6303 8.6444 13.4522 10.1214 14.1597 11.1551C14.8687 12.1879 16.1903 12.3857 17.1175 11.5971C18.0424 10.8072 18.2197 9.33066 17.5146 8.29738C16.8067 7.26457 15.4824 7.06676 14.5564 7.85494Z" fill="#78B0A3"/>
<path id="Vector_3" d="M11.5916 9.39056C11.1159 9.79344 11.0238 10.5506 11.3877 11.08C11.7493 11.6101 12.4294 11.7116 12.9032 11.307C13.3782 10.9033 13.4696 10.1448 13.1056 9.61548C12.7436 9.08614 12.0658 8.9847 11.5916 9.39056Z" fill="#78B0A3"/>
<path id="Vector_4" d="M11.6285 12.5189C11.3633 12.7468 11.3116 13.1712 11.5152 13.4683C11.7176 13.7646 12.0977 13.8218 12.3641 13.5951C12.6321 13.369 12.683 12.9437 12.4794 12.6457C12.2755 12.3495 11.8946 12.2919 11.6285 12.5189Z" fill="#78B0A3"/>
</g>
</g>
</g>
</svg>
