<svg width="40" height="36" viewBox="0 0 40 36" fill="none" xmlns="http://www.w3.org/2000/svg">
<path id="Vector" d="M2.52099 12.4866V12.4617C2.52095 9.99999 3.28789 7.59345 4.72505 5.54567C6.16221 3.49789 8.2052 1.90061 10.5963 0.955345C12.9873 0.0100837 15.6194 -0.240806 18.1603 0.234329C20.7012 0.709465 23.0371 1.88934 24.8734 3.62509C26.3181 2.94722 27.9319 2.66221 29.5364 2.80154C31.1409 2.94088 32.6737 3.49915 33.9653 4.41466C35.257 5.33017 36.2573 6.56729 36.8556 7.98933C37.454 9.41138 37.6272 10.963 37.3561 12.4727C37.7547 12.5079 38.1414 12.6208 38.4921 12.8044C38.8428 12.9879 39.1499 13.2382 39.3943 13.5397C39.6386 13.8411 39.815 14.1872 39.9124 14.5563C40.0099 14.9254 40.0262 15.3096 39.9604 15.685C38.6437 23.2145 35.3868 27.9804 30.1956 29.9853V31.8462C30.1956 32.9478 29.7353 34.0044 28.9158 34.7834C28.0963 35.5624 26.9849 36 25.826 36H14.1735C13.0146 36 11.9031 35.5624 11.0836 34.7834C10.2642 34.0044 9.80379 32.9478 9.80379 31.8462V29.9853C4.61261 27.9804 1.35574 23.2145 0.0390086 15.685C-0.0245389 15.3196 -0.0103294 14.9458 0.0807961 14.5857C0.171922 14.2256 0.338112 13.8865 0.569531 13.5886C0.80095 13.2906 1.09289 13.0398 1.42809 12.851C1.76328 12.6622 2.13491 12.5392 2.52099 12.4894V12.4866ZM5.43411 12.4617H8.34723C8.34723 10.6256 9.11452 8.86465 10.4803 7.56633C11.8461 6.26801 13.6985 5.53862 15.63 5.53862C17.5616 5.53862 19.414 6.26801 20.7798 7.56633C22.1455 8.86465 22.9128 10.6256 22.9128 12.4617H25.826C25.826 9.89111 24.7517 7.42585 22.8396 5.6082C20.9275 3.79055 18.3342 2.7694 15.63 2.7694C12.9259 2.7694 10.3325 3.79055 8.42043 5.6082C6.50832 7.42585 5.43411 9.89111 5.43411 12.4617ZM11.2604 12.4617H19.9997C19.9997 11.36 19.5393 10.3035 18.7199 9.52446C17.9004 8.74547 16.7889 8.30783 15.63 8.30783C14.4711 8.30783 13.3597 8.74547 12.5402 9.52446C11.7207 10.3035 11.2604 11.36 11.2604 12.4617ZM31.2618 12.4617H34.3818C34.6017 11.6433 34.6222 10.788 34.4417 9.96092C34.2613 9.13386 33.8846 8.35689 33.3403 7.68919C32.7961 7.02149 32.0988 6.48069 31.3014 6.10801C30.504 5.73532 29.6276 5.54058 28.7391 5.53862C28.0399 5.53862 27.3757 5.65492 26.7582 5.86815C27.2738 6.65461 27.6991 7.50199 28.0254 8.39091C28.5802 8.26009 29.1633 8.28703 29.7021 8.46838C30.241 8.64972 30.712 8.9775 31.0567 9.41103C31.4014 9.84456 31.6046 10.3648 31.641 10.9071C31.6775 11.4494 31.5457 11.9899 31.2618 12.4617ZM27.2825 30.4616H12.7169V31.8462C12.7169 32.2134 12.8704 32.5656 13.1435 32.8252C13.4167 33.0849 13.7872 33.2308 14.1735 33.2308H25.826C26.2123 33.2308 26.5827 33.0849 26.8559 32.8252C27.1291 32.5656 27.2825 32.2134 27.2825 31.8462V30.4616ZM11.6915 27.6924H28.3079C32.9282 26.2801 35.8529 22.2868 37.0881 15.2309H2.91135C4.14651 22.2868 7.07128 26.2801 11.6915 27.6924Z" fill="#767676"/>
</svg>
