<svg width="16" height="14" viewBox="0 0 16 14" fill="none" xmlns="http://www.w3.org/2000/svg">
<path id="Vector" d="M0.800002 5.44444C0.573336 5.44444 0.383203 5.36978 0.229603 5.22044C0.0760027 5.07111 -0.000530565 4.88652 2.76817e-06 4.66667C2.76817e-06 3.17593 0.723469 2.02533 2.1704 1.21489C3.61733 0.404445 5.56053 -0.000518021 8 4.97301e-07C10.44 4.97301e-07 12.3835 0.405223 13.8304 1.21567C15.2773 2.02611 16.0005 3.17644 16 4.66667C16 4.88704 15.9232 5.07189 15.7696 5.22122C15.616 5.37056 15.4261 5.44496 15.2 5.44444H0.800002ZM1.72 3.88889H14.28C13.9733 3.13704 13.2632 2.56019 12.1496 2.15833C11.036 1.75648 9.6528 1.55556 8 1.55556C6.34667 1.55556 4.9632 1.75648 3.8496 2.15833C2.736 2.56019 2.02614 3.13704 1.72 3.88889ZM2.76817e-06 8.16667C2.76817e-06 7.98518 0.0666694 7.80681 0.200003 7.63156C0.333336 7.4563 0.520003 7.31059 0.760003 7.19444C1 7.07778 1.25334 6.95126 1.52 6.81489C1.78667 6.67852 2.17334 6.61059 2.68 6.61111C3.42667 6.61111 3.93333 6.74074 4.2 7C4.46667 7.25926 4.84 7.38889 5.32 7.38889C5.8 7.38889 6.18 7.25926 6.46 7C6.74 6.74074 7.25333 6.61111 8 6.61111C8.74667 6.61111 9.26 6.74074 9.54 7C9.82 7.25926 10.2 7.38889 10.68 7.38889C11.16 7.38889 11.5333 7.25926 11.8 7C12.0667 6.74074 12.5733 6.61111 13.32 6.61111C13.8133 6.61111 14.2 6.67593 14.48 6.80556C14.76 6.93518 15.0133 7.05833 15.24 7.175C15.4667 7.29167 15.6501 7.43763 15.7904 7.61289C15.9307 7.78815 16.0005 7.97274 16 8.16667C16 8.38704 15.9032 8.56204 15.7096 8.69167C15.516 8.8213 15.3195 8.86018 15.12 8.80833C14.72 8.70463 14.4299 8.57189 14.2496 8.41011C14.0693 8.24833 13.7861 8.16718 13.4 8.16667C12.92 8.16667 12.5333 8.2963 12.24 8.55556C11.9467 8.81481 11.4267 8.94444 10.68 8.94444C9.93333 8.94444 9.42 8.81481 9.14 8.55556C8.86 8.2963 8.48 8.16667 8 8.16667C7.52 8.16667 7.14 8.2963 6.86 8.55556C6.58 8.81481 6.06667 8.94444 5.32 8.94444C4.57333 8.94444 4.06667 8.81481 3.8 8.55556C3.53333 8.2963 3.16 8.16667 2.68 8.16667C2.29334 8.16667 2 8.24781 1.8 8.41011C1.6 8.57241 1.29334 8.70515 0.880002 8.80833C0.680002 8.86018 0.483203 8.8213 0.289603 8.69167C0.0960027 8.56204 -0.000530565 8.38704 2.76817e-06 8.16667ZM1.6 14C1.16 14 0.783202 13.8476 0.469603 13.5427C0.156003 13.2378 -0.000530565 12.8717 2.76817e-06 12.4444V11.6667C2.76817e-06 11.2389 0.156803 10.8726 0.470403 10.5677C0.784003 10.2628 1.16054 10.1106 1.6 10.1111H14.4C14.84 10.1111 15.2168 10.2636 15.5304 10.5684C15.844 10.8733 16.0005 11.2394 16 11.6667V12.4444C16 12.8722 15.8432 13.2386 15.5296 13.5434C15.216 13.8483 14.8395 14.0005 14.4 14H1.6ZM1.6 12.4444H14.4V11.6667H1.6V12.4444Z" fill="white"/>
</svg>
