<svg width="24" height="24" viewBox="0 0 24 24" fill="none" xmlns="http://www.w3.org/2000/svg">
<g id="Group 1171275561">
<g id="Group 1171275509">
<rect id="Rectangle 39949" width="24" height="24" rx="12" fill="#F7B149"/>
</g>
<path id="Vector" d="M5.65 10.2778C5.46584 10.2778 5.31135 10.2191 5.18655 10.1018C5.06175 9.98444 4.99957 9.83941 5 9.66667C5 8.49537 5.58782 7.59133 6.76345 6.95456C7.93908 6.31778 9.51793 5.99959 11.5 6C13.4825 6 15.0616 6.31839 16.2372 6.95517C17.4128 7.59194 18.0004 8.49578 18 9.66667C18 9.83981 17.9376 9.98506 17.8128 10.1024C17.688 10.2197 17.5337 10.2782 17.35 10.2778H5.65ZM5 12.4167C5 12.2741 5.05417 12.1339 5.1625 11.9962C5.27084 11.8585 5.4225 11.744 5.6175 11.6528C5.8125 11.5611 6.01834 11.4617 6.235 11.3546C6.45167 11.2474 6.76583 11.194 7.1775 11.1944C7.78417 11.1944 8.19583 11.2963 8.4125 11.5C8.62917 11.7037 8.9325 11.8056 9.3225 11.8056C9.7125 11.8056 10.0213 11.7037 10.2488 11.5C10.4763 11.2963 10.8933 11.1944 11.5 11.1944C12.1067 11.1944 12.5237 11.2963 12.7512 11.5C12.9787 11.7037 13.2875 11.8056 13.6775 11.8056C14.0675 11.8056 14.3708 11.7037 14.5875 11.5C14.8042 11.2963 15.2158 11.1944 15.8225 11.1944C16.2233 11.1944 16.5375 11.2454 16.765 11.3472C16.9925 11.4491 17.1983 11.5458 17.3825 11.6375C17.5667 11.7292 17.7157 11.8439 17.8297 11.9816C17.9437 12.1193 18.0004 12.2643 18 12.4167C18 12.5898 17.9213 12.7273 17.764 12.8292C17.6067 12.931 17.4471 12.9616 17.285 12.9208C16.96 12.8394 16.7243 12.7351 16.5778 12.6079C16.4313 12.4808 16.2012 12.4171 15.8875 12.4167C15.4975 12.4167 15.1833 12.5185 14.945 12.7222C14.7067 12.9259 14.2842 13.0278 13.6775 13.0278C13.0708 13.0278 12.6537 12.9259 12.4262 12.7222C12.1987 12.5185 11.89 12.4167 11.5 12.4167C11.11 12.4167 10.8012 12.5185 10.5738 12.7222C10.3463 12.9259 9.92917 13.0278 9.3225 13.0278C8.71583 13.0278 8.30417 12.9259 8.0875 12.7222C7.87083 12.5185 7.5675 12.4167 7.1775 12.4167C6.86333 12.4167 6.625 12.4804 6.4625 12.6079C6.3 12.7355 6.05084 12.8398 5.715 12.9208C5.5525 12.9616 5.3926 12.931 5.2353 12.8292C5.078 12.7273 4.99957 12.5898 5 12.4167ZM6.3 17C5.9425 17 5.63635 16.8802 5.38155 16.6407C5.12675 16.4011 4.99957 16.1135 5 15.7778V15.1667C5 14.8306 5.1274 14.5427 5.3822 14.3032C5.637 14.0636 5.94294 13.944 6.3 13.9444H16.7C17.0575 13.9444 17.3636 14.0642 17.6184 14.3038C17.8732 14.5433 18.0004 14.831 18 15.1667V15.7778C18 16.1139 17.8726 16.4017 17.6178 16.6413C17.363 16.8808 17.0571 17.0004 16.7 17H6.3Z" fill="white"/>
</g>
</svg>
