<svg width="19" height="19" viewBox="0 0 19 19" fill="none" xmlns="http://www.w3.org/2000/svg">
<path id="Vector" d="M12.6667 0V1.26667H16.8467L11.4 6.71333C10.1333 5.7 8.61333 5.06667 6.96667 5.06667C3.16667 5.06667 0 8.23333 0 12.0333C0 15.8333 3.16667 19 6.96667 19C10.7667 19 13.9333 15.8333 13.9333 12.0333C13.9333 10.3867 13.3 8.86667 12.2867 7.6L17.7333 2.15333V6.33333H19V0H12.6667ZM6.96667 6.33333C8.23333 6.33333 9.5 6.84 10.5133 7.6C10.7667 7.85333 11.1467 8.10667 11.4 8.48667C12.16 9.5 12.6667 10.7667 12.6667 12.0333C12.6667 15.2 10.1333 17.7333 6.96667 17.7333C3.8 17.7333 1.26667 15.2 1.26667 12.0333C1.26667 8.86667 3.8 6.33333 6.96667 6.33333Z" fill="white"/>
</svg>
