<svg width="11" height="18" viewBox="0 0 11 18" fill="none" xmlns="http://www.w3.org/2000/svg">
<path id="Vector" d="M2.29719 6.29633L4.62793 4.44958C4.88957 4.24071 5.20781 4.13347 5.53186 4.14496C5.92711 4.15571 6.30947 4.30053 6.62578 4.55927C6.9421 4.81802 7.17665 5.17785 7.29683 5.58873C7.43209 6.05121 7.55572 6.36376 7.66771 6.52559C8.00602 7.01821 8.44493 7.41802 8.94962 7.69329C9.45431 7.96855 10.0109 8.1117 10.5751 8.11136V9.69792C9.82425 9.69869 9.08255 9.51789 8.4034 9.16853C7.72425 8.81916 7.12454 8.30991 6.64742 7.67743L6.13982 10.8157L7.63862 12.1872L9.25523 17.0326L7.88806 17.5752L6.40526 13.1297L3.93998 10.8728C3.73754 10.6946 3.58258 10.4606 3.49126 10.1949C3.39994 9.92927 3.37559 9.64177 3.42075 9.36236L3.7909 7.07375L3.29857 7.46404L1.75178 9.78677L0.575134 8.85387L2.28483 6.28681L2.29719 6.29633ZM6.57543 3.74832C6.18968 3.74832 5.81974 3.58116 5.54698 3.28362C5.27422 2.98609 5.12099 2.58254 5.12099 2.16176C5.12099 1.74097 5.27422 1.33743 5.54698 1.03989C5.81974 0.74235 6.18968 0.575195 6.57543 0.575195C6.96117 0.575195 7.33111 0.74235 7.60387 1.03989C7.87663 1.33743 8.02986 1.74097 8.02986 2.16176C8.02986 2.58254 7.87663 2.98609 7.60387 3.28362C7.33111 3.58116 6.96117 3.74832 6.57543 3.74832ZM4.41558 14.2045L2.0783 17.2428L0.964197 16.2234L3.12768 13.4105L3.67018 11.6811L4.97263 12.871L4.41558 14.2045Z" fill="#78B0A3"/>
</svg>
