<svg width="14" height="16" viewBox="0 0 14 16" fill="none" xmlns="http://www.w3.org/2000/svg">
<g id="Group 1171275847">
<g id="Group 1171275848">
<path id="Vector" d="M6.99998 16C7.48165 16.0006 7.95155 15.8468 8.34436 15.5601C8.73716 15.2733 9.03335 14.8678 9.19175 14.4H4.80821C4.96661 14.8678 5.2628 15.2733 5.6556 15.5601C6.0484 15.8468 6.5183 16.0006 6.99998 16ZM12.4444 10.0688V6.39998C12.4444 3.82639 10.745 1.65839 8.44275 1.0064C8.21486 0.415999 7.65798 0 6.99998 0C6.34198 0 5.78509 0.415999 5.55721 1.0064C3.25499 1.65919 1.55555 3.82639 1.55555 6.39998V10.0688L0.227889 11.4344C0.155523 11.5085 0.0981324 11.5967 0.0590218 11.6938C0.0199112 11.7908 -0.000147349 11.8949 8.14855e-07 12V12.8C8.14855e-07 13.0121 0.0819447 13.2156 0.227806 13.3656C0.373667 13.5157 0.571497 13.6 0.777776 13.6H13.2222C13.4285 13.6 13.6263 13.5157 13.7722 13.3656C13.918 13.2156 14 13.0121 14 12.8V12C14.0001 11.8949 13.98 11.7908 13.9409 11.6938C13.9018 11.5967 13.8444 11.5085 13.7721 11.4344L12.4444 10.0688Z" fill="#78B0A3"/>
<path id="Vector_2" d="M11 5.00005C12.1046 5.00005 13 4.10462 13 3.00006C13 1.89549 12.1046 1.00006 11 1.00006C9.89543 1.00006 9 1.89549 9 3.00006C9 4.10462 9.89543 5.00005 11 5.00005Z" fill="#F7B149"/>
</g>
</g>
</svg>
