<svg width="8" height="14" viewBox="0 0 8 14" fill="none" xmlns="http://www.w3.org/2000/svg">
<path id="Vector" fill-rule="evenodd" clip-rule="evenodd" d="M7.37616 6.11523C7.56363 6.30276 7.66895 6.55706 7.66895 6.82223C7.66895 7.08739 7.56363 7.3417 7.37616 7.52923L1.71916 13.1862C1.62691 13.2817 1.51657 13.3579 1.39456 13.4103C1.27256 13.4627 1.14134 13.4903 1.00856 13.4915C0.875781 13.4926 0.744102 13.4673 0.621205 13.417C0.498309 13.3668 0.386656 13.2925 0.292764 13.1986C0.198871 13.1047 0.124618 12.9931 0.0743371 12.8702C0.024056 12.7473 -0.00124542 12.6156 -9.14646e-05 12.4828C0.00106249 12.35 0.0286485 12.2188 0.0810577 12.0968C0.133467 11.9748 0.209649 11.8645 0.305159 11.7722L5.25516 6.82223L0.30516 1.87223C0.123002 1.68362 0.0222074 1.43102 0.0244857 1.16883C0.0267641 0.90663 0.131933 0.655816 0.317341 0.470409C0.502749 0.285001 0.753562 0.179831 1.01576 0.177553C1.27796 0.175274 1.53056 0.276068 1.71916 0.458227L7.37616 6.11523Z" fill="white"/>
</svg>
