<svg width="21" height="21" viewBox="0 0 21 21" fill="none" xmlns="http://www.w3.org/2000/svg">
<g id="fluent:camera-add-48-filled">
<path id="Vector" d="M7.35 4.01887C7.51103 3.72902 7.74664 3.48751 8.03242 3.31935C8.31819 3.15119 8.64373 3.06251 8.97531 3.0625H12.0247C12.3563 3.06251 12.6818 3.15119 12.9676 3.31935C13.2534 3.48751 13.489 3.72902 13.65 4.01887L14.2126 5.03125H15.8594C16.5266 5.03125 17.1664 5.29629 17.6382 5.76806C18.11 6.23983 18.375 6.87969 18.375 7.54688V10.5193C17.461 9.93374 16.398 9.62333 15.3125 9.625C14.7958 9.625 14.2949 9.69412 13.8189 9.82319C13.6245 9.24502 13.2824 8.72769 12.8266 8.32246C12.3707 7.91723 11.8168 7.63817 11.2198 7.51295C10.6229 7.38773 10.0035 7.4207 9.42324 7.60857C8.84294 7.79645 8.32181 8.13272 7.91151 8.58405C7.50121 9.03538 7.21598 9.5861 7.0841 10.1816C6.95221 10.7772 6.97825 11.3968 7.15963 11.9792C7.341 12.5615 7.67143 13.0864 8.11814 13.5017C8.56486 13.917 9.11236 14.2084 9.70638 14.3469C9.52506 15.4104 9.6479 16.5034 10.0608 17.5H5.14062C4.47344 17.5 3.83358 17.235 3.36181 16.7632C2.89004 16.2914 2.625 15.6516 2.625 14.9844V7.54688C2.625 6.87969 2.89004 6.23983 3.36181 5.76806C3.83358 5.29629 4.47344 5.03125 5.14062 5.03125H6.78737L7.35 4.01887ZM10.5 8.53125C9.90523 8.53042 9.33122 8.74989 8.88873 9.14733C8.44624 9.54477 8.16662 10.092 8.10383 10.6835C8.04104 11.2749 8.19952 11.8687 8.54869 12.3501C8.89787 12.8316 9.413 13.1667 9.99469 13.2908C10.5071 11.9484 11.507 10.8487 12.7947 10.2113C12.6402 9.72384 12.3345 9.29828 11.9219 8.99622C11.5093 8.69417 11.0113 8.53132 10.5 8.53125ZM15.3125 20.125C17.9703 20.125 20.125 17.9703 20.125 15.3125C20.125 12.6547 17.9703 10.5 15.3125 10.5C12.6547 10.5 10.5 12.6547 10.5 15.3125C10.5 17.9703 12.6547 20.125 15.3125 20.125ZM15.3125 12.25C15.4285 12.25 15.5398 12.2961 15.6219 12.3781C15.7039 12.4602 15.75 12.5715 15.75 12.6875V14.875H17.9375C18.0535 14.875 18.1648 14.9211 18.2469 15.0031C18.3289 15.0852 18.375 15.1965 18.375 15.3125C18.375 15.4285 18.3289 15.5398 18.2469 15.6219C18.1648 15.7039 18.0535 15.75 17.9375 15.75H15.75V17.9375C15.75 18.0535 15.7039 18.1648 15.6219 18.2469C15.5398 18.3289 15.4285 18.375 15.3125 18.375C15.1965 18.375 15.0852 18.3289 15.0031 18.2469C14.9211 18.1648 14.875 18.0535 14.875 17.9375V15.75H12.6875C12.5715 15.75 12.4602 15.7039 12.3781 15.6219C12.2961 15.5398 12.25 15.4285 12.25 15.3125C12.25 15.1965 12.2961 15.0852 12.3781 15.0031C12.4602 14.9211 12.5715 14.875 12.6875 14.875H14.875V12.6875C14.875 12.5715 14.9211 12.4602 15.0031 12.3781C15.0852 12.2961 15.1965 12.25 15.3125 12.25Z" fill="#78B0A3"/>
</g>
</svg>
