<svg width="24" height="24" viewBox="0 0 24 24" fill="none" xmlns="http://www.w3.org/2000/svg">
<g id="Group 1171275507">
<rect id="Rectangle 39949" width="24" height="24" rx="12" fill="#F7B149"/>
<path id="Vector" d="M14.9656 8.71681C14.8292 8.71681 14.7112 8.66777 14.6116 8.56969C14.512 8.47161 14.4621 8.35546 14.4621 8.22124C14.4621 7.95796 14.512 7.70501 14.6116 7.46239C14.7112 7.21976 14.8581 7.00553 15.0521 6.81969L15.6735 6.20022C15.8728 6.00406 15.9725 5.76917 15.9725 5.49558C15.9725 5.36136 16.0223 5.24521 16.1219 5.14712C16.2216 5.04904 16.3396 5 16.4759 5C16.6123 5 16.7303 5.04904 16.8299 5.14712C16.9295 5.24521 16.9794 5.36136 16.9794 5.49558C16.9794 5.75885 16.9295 6.0118 16.8299 6.25442C16.7303 6.49705 16.5834 6.71128 16.3894 6.89712L15.7679 7.51659C15.5687 7.71276 15.469 7.94764 15.469 8.22124C15.469 8.35546 15.4192 8.47161 15.3196 8.56969C15.2199 8.66777 15.1019 8.71681 14.9656 8.71681ZM11.9449 8.71681C11.8086 8.71681 11.6906 8.66777 11.591 8.56969C11.4913 8.47161 11.4415 8.35546 11.4415 8.22124C11.4415 7.95796 11.4913 7.70501 11.591 7.46239C11.6906 7.21976 11.8374 7.00553 12.0315 6.81969L12.6529 6.20022C12.8522 6.00406 12.9518 5.76917 12.9518 5.49558C12.9518 5.36136 13.0016 5.24521 13.1013 5.14712C13.2009 5.04904 13.3189 5 13.4553 5C13.5916 5 13.7096 5.04904 13.8092 5.14712C13.9089 5.24521 13.9587 5.36136 13.9587 5.49558C13.9587 5.75885 13.9089 6.0118 13.8092 6.25442C13.7096 6.49705 13.5628 6.71128 13.3687 6.89712L12.7473 7.51659C12.548 7.71276 12.4484 7.94764 12.4484 8.22124C12.4484 8.35546 12.3986 8.47161 12.2989 8.56969C12.1993 8.66777 12.0813 8.71681 11.9449 8.71681ZM18.4897 10.0796C18.6994 10.0796 18.8961 10.1184 19.0796 10.1958C19.2632 10.2732 19.4231 10.3791 19.5595 10.5133C19.6958 10.6475 19.8033 10.8049 19.882 10.9856C19.9607 11.1663 20 11.3599 20 11.5664V14.5398C20 14.7463 19.9607 14.9399 19.882 15.1206C19.8033 15.3013 19.6958 15.4587 19.5595 15.5929C19.4231 15.7271 19.2632 15.833 19.0796 15.9104C18.8961 15.9878 18.6994 16.0265 18.4897 16.0265H18.0413C18.0308 16.0627 18.0229 16.0962 18.0177 16.1272C18.0125 16.1582 18.002 16.1892 17.9862 16.2201V16.5221C17.9862 16.8628 17.9207 17.1829 17.7896 17.4823C17.6585 17.7817 17.4775 18.045 17.2468 18.2721C17.0161 18.4993 16.7486 18.6774 16.4444 18.8064C16.1403 18.9355 15.8151 19 15.469 19H12.4484C12.0393 19 11.6618 18.9097 11.3156 18.729C10.9695 18.5483 10.6811 18.3083 10.4503 18.0088H6.51721C6.17109 18.0088 5.84595 17.9443 5.54179 17.8153C5.23763 17.6862 4.97017 17.5107 4.73943 17.2887C4.50869 17.0667 4.32776 16.8035 4.19666 16.4989C4.06555 16.1943 4 15.8717 4 15.531V15.0354H6.01377C6.01377 14.6276 6.09243 14.243 6.24975 13.8816C6.40708 13.5203 6.62471 13.2054 6.90265 12.9369C7.1806 12.6685 7.50049 12.4543 7.86234 12.2942C8.22419 12.1342 8.61488 12.0568 9.03442 12.0619C9.19174 12.0619 9.34382 12.0749 9.49066 12.1007C9.6375 12.1265 9.78433 12.1626 9.93117 12.2091V9.0885H17.9862V10.0796H18.4897ZM9.03442 13.0531C8.75647 13.0531 8.49689 13.1047 8.25565 13.208C8.01442 13.3112 7.79941 13.4532 7.61062 13.6338C7.42183 13.8145 7.27761 14.0236 7.17797 14.2611C7.07834 14.4985 7.02589 14.7566 7.02065 15.0354H9.93117V13.2699C9.79482 13.2028 9.65323 13.1512 9.50639 13.115C9.35955 13.0789 9.20223 13.0583 9.03442 13.0531ZM6.51721 17.0177H9.98623C9.94952 16.868 9.93117 16.7028 9.93117 16.5221V16.0265H5.09341C5.14585 16.1711 5.21927 16.3027 5.31367 16.4215C5.40806 16.5402 5.51557 16.646 5.63618 16.7389C5.7568 16.8319 5.89315 16.899 6.04523 16.9403C6.19731 16.9816 6.35464 17.0074 6.51721 17.0177ZM10.1593 17.5365V17.5442L10.1672 17.5597V17.552L10.1593 17.5365ZM16.9794 16.5221V10.0796H10.9381V16.5221C10.9381 16.7286 10.9774 16.9222 11.056 17.1029C11.1347 17.2836 11.2422 17.441 11.3786 17.5752C11.5149 17.7094 11.6749 17.8153 11.8584 17.8927C12.042 17.9701 12.2386 18.0088 12.4484 18.0088H15.469C15.6788 18.0088 15.8755 17.9701 16.059 17.8927C16.2425 17.8153 16.4025 17.7094 16.5388 17.5752C16.6752 17.441 16.7827 17.2836 16.8614 17.1029C16.94 16.9222 16.9794 16.7286 16.9794 16.5221ZM18.9931 14.5398V11.5664C18.9931 11.4322 18.9433 11.316 18.8437 11.2179C18.744 11.1198 18.626 11.0708 18.4897 11.0708H17.9862V15.0354H18.4897C18.626 15.0354 18.744 14.9864 18.8437 14.8883C18.9433 14.7902 18.9931 14.674 18.9931 14.5398Z" fill="white"/>
</g>
</svg>
