<svg width="16" height="15" viewBox="0 0 16 15" fill="none" xmlns="http://www.w3.org/2000/svg">
<path id="Vector" d="M8 1.79405L7.50652 1.28483C6.66512 0.450065 5.54665 -0.00764813 4.38871 0.0089218C3.23077 0.0254917 2.12461 0.515039 1.30522 1.37357C0.485831 2.23209 0.0177797 3.39195 0.000496168 4.60673C-0.0167874 5.82152 0.418059 6.99551 1.21266 7.87931L8 15L14.7873 7.87083C15.5819 6.98702 16.0168 5.81303 15.9995 4.59825C15.9822 3.38346 15.5142 2.22361 14.6948 1.36508C13.8754 0.506552 12.7692 0.0170046 11.6113 0.000434695C10.4534 -0.0161352 9.33488 0.441578 8.49348 1.27634L8 1.79405Z" fill="#ED4343"/>
</svg>
