<svg width="34" height="34" viewBox="0 0 34 34" fill="none" xmlns="http://www.w3.org/2000/svg">
<g id="1F604 1">
<g id="color">
<path id="Vector" d="M16.5 31C24.5081 31 31 24.5081 31 16.5C31 8.49187 24.5081 2 16.5 2C8.49187 2 2 8.49187 2 16.5C2 24.5081 8.49187 31 16.5 31Z" fill="#FFDA31"/>
<path id="Vector_2" d="M25.7004 20.0559C25.708 21.0266 25.5215 21.989 25.1519 22.8865C17.2778 24.7968 9.11999 23.1009 7.8213 22.8046C7.46903 21.9313 7.29126 20.9975 7.29804 20.0559H7.36739C7.36739 20.0559 16.6978 22.3192 25.5806 20.1L25.7004 20.0559Z" fill="white"/>
<path id="Vector_3" d="M25.1529 22.8866C24.0244 25.5785 21.1497 27.4446 16.5223 27.4446C11.8507 27.4446 8.93814 25.5344 7.82227 22.8046C9.12096 23.1009 17.2787 24.7968 25.1529 22.8866Z" fill="#EA5A47"/>
</g>
<g id="line">
<path id="Vector_4" d="M16.5 31C24.5081 31 31 24.5081 31 16.5C31 8.49187 24.5081 2 16.5 2C8.49187 2 2 8.49187 2 16.5C2 24.5081 8.49187 31 16.5 31Z" stroke="#A56607" stroke-linecap="round" stroke-linejoin="round"/>
<path id="Vector_5" d="M25.7004 20.0559C25.708 21.0266 25.5215 21.989 25.1519 22.8865C17.2778 24.7968 9.11999 23.1009 7.8213 22.8046C7.46903 21.9313 7.29126 20.9975 7.29804 20.0559H7.36739C7.36739 20.0559 16.6978 22.3192 25.5806 20.1L25.7004 20.0559Z" stroke="#A56607" stroke-linecap="round" stroke-linejoin="round"/>
<path id="Vector_6" d="M25.1529 22.8866C24.0244 25.5785 21.1497 27.4446 16.5223 27.4446C11.8507 27.4446 8.93814 25.5344 7.82227 22.8046C9.12096 23.1009 17.2787 24.7968 25.1529 22.8866Z" stroke="#A56607" stroke-linecap="round" stroke-linejoin="round"/>
<path id="Vector_7" d="M13.7866 14.2329C13.5526 13.7062 13.1708 13.2586 12.6875 12.9445C12.2042 12.6303 11.6401 12.4632 11.0637 12.4632C10.4873 12.4632 9.92327 12.6303 9.43997 12.9445C8.95667 13.2586 8.57486 13.7062 8.34082 14.2329" stroke="#A56607" stroke-miterlimit="10" stroke-linecap="round"/>
<path id="Vector_8" d="M24.6607 14.2329C24.4266 13.7062 24.0448 13.2586 23.5615 12.9445C23.0782 12.6303 22.5142 12.4632 21.9378 12.4632C21.3613 12.4632 20.7973 12.6303 20.314 12.9445C19.8307 13.2586 19.4489 13.7062 19.2148 14.2329" stroke="#A56607" stroke-miterlimit="10" stroke-linecap="round"/>
</g>
</g>
</svg>
