<svg width="22" height="22" viewBox="0 0 22 22" fill="none" xmlns="http://www.w3.org/2000/svg">
<g id="Group">
<path id="Vector" d="M0.288295 17.4016L1.25167 16.4382C1.27674 16.4131 1.3036 16.3899 1.33046 16.3666L0.639264 15.6754C0.62852 15.6646 0.619566 15.6539 0.610613 15.6432C0.43871 15.4551 0.352759 15.217 0.352759 14.9806C0.352759 14.7299 0.449454 14.4792 0.641054 14.2876L1.60443 13.3243C1.6295 13.2992 1.65635 13.2759 1.68321 13.2526L0.992022 12.5614C0.800422 12.3698 0.705518 12.1174 0.705518 11.8667C0.705518 11.616 0.802213 11.3653 0.992022 11.1737L1.95539 10.2103C2.14699 10.0187 2.39948 9.9238 2.65017 9.9238C2.90265 9.9238 3.15334 10.0187 3.34494 10.2103L11.7986 18.664C11.9902 18.8556 12.0851 19.1081 12.0851 19.3588C12.0851 19.6112 11.9902 19.8619 11.7986 20.0535L10.8352 21.0169C10.8245 21.0276 10.8138 21.0366 10.803 21.0456C10.615 21.2175 10.3768 21.3034 10.1405 21.3034C9.88978 21.3034 9.63909 21.2067 9.44749 21.0169L8.86195 20.4314C8.84046 20.4582 8.81718 20.4851 8.79211 20.5102L7.82874 21.4735C7.818 21.4843 7.80725 21.4932 7.79651 21.5022C7.61028 21.6723 7.37212 21.7582 7.13397 21.7582C6.88148 21.7582 6.63079 21.6633 6.44098 21.4717L5.64235 20.6731C5.62086 20.7 5.59758 20.7268 5.57072 20.7519L4.60735 21.7153C4.41575 21.9069 4.16327 22.0018 3.91258 22.0018C3.66189 22.0018 3.40941 21.9069 3.21781 21.7153L0.288295 18.7929C0.0966953 18.6013 0 18.3488 0 18.0981C0 17.8457 0.0966953 17.595 0.288295 17.4016ZM11.7915 1.60801L10.8281 2.57138L10.8191 2.58033C10.8048 2.60003 10.7976 2.62331 10.7976 2.64659C10.7976 2.67345 10.8084 2.7021 10.8281 2.72179L19.2818 11.1755C19.3015 11.1952 19.3283 11.2059 19.357 11.2059C19.3838 11.2059 19.4125 11.1952 19.4322 11.1755L20.3955 10.2121L20.4045 10.2031C20.4188 10.1852 20.426 10.1602 20.426 10.1369C20.426 10.1082 20.417 10.0814 20.3973 10.0617L19.1206 8.78495L13.3243 2.99218L11.9419 1.6098C11.9222 1.5901 11.8953 1.57936 11.8667 1.57936C11.838 1.57757 11.8112 1.58831 11.7915 1.60801ZM12.7978 8.47158C13.0378 8.23164 13.4281 8.23164 13.6699 8.47158C13.9098 8.71153 13.9098 9.10189 13.6699 9.34363L9.44391 13.566C9.20396 13.8059 8.8136 13.8059 8.57186 13.566C8.33191 13.326 8.33191 12.9357 8.57186 12.6939L12.7978 8.47158ZM18.0229 0.907862L17.0596 1.87123C17.0381 1.89272 17.0273 1.91958 17.0273 1.94644C17.0273 1.96972 17.0345 1.99121 17.0488 2.0109L17.0596 2.02165L19.9819 4.944L19.9909 4.95295C20.0088 4.96727 20.032 4.97265 20.0553 4.97265C20.0822 4.97265 20.1108 4.9619 20.1305 4.9422L21.0939 3.97883C21.1154 3.95735 21.1261 3.93049 21.1261 3.90363C21.1261 3.87677 21.1154 3.84812 21.0957 3.82842L18.1733 0.907862C18.1537 0.888164 18.1268 0.87742 18.0981 0.87742C18.0695 0.87742 18.0426 0.888164 18.0229 0.907862ZM16.44 1.24988L17.4034 0.286505C17.595 0.0949047 17.8474 0 18.0981 0C18.3488 0 18.6013 0.0949047 18.7929 0.286505L21.7153 3.20885C21.9051 3.39866 22.0018 3.65114 22 3.90183C22 4.15432 21.9051 4.4068 21.7153 4.59661L20.7519 5.55998C20.7268 5.58505 20.7 5.60833 20.6731 5.63161L21.4717 6.43024C21.6633 6.62184 21.7582 6.87432 21.7582 7.12501C21.7582 7.37749 21.6615 7.62819 21.4717 7.81979L20.5084 8.78316C20.4833 8.80823 20.4564 8.8315 20.4296 8.85299L21.0151 9.43854C21.2067 9.63014 21.3016 9.88083 21.3016 10.1315C21.3016 10.3697 21.2157 10.6078 21.0438 10.7941C21.0348 10.8048 21.0259 10.8155 21.0151 10.8263L20.0517 11.7897C19.8601 11.9813 19.6077 12.0762 19.357 12.0762C19.1045 12.0762 18.8538 11.9795 18.6622 11.7897L10.2085 3.34136C10.0169 3.14976 9.92022 2.89728 9.92022 2.64659C9.92022 2.40843 10.0062 2.17027 10.1781 1.98404C10.187 1.9733 10.196 1.96256 10.2067 1.95181L11.1701 0.988441C11.3617 0.796841 11.6124 0.701936 11.8631 0.701936C12.1156 0.701936 12.3663 0.798632 12.5579 0.988441L13.249 1.67963C13.2705 1.65277 13.2938 1.62591 13.3207 1.60084L14.284 0.637473C14.4756 0.445873 14.7281 0.349178 14.9788 0.349178C15.2313 0.349178 15.482 0.445873 15.6736 0.637473L16.3648 1.32867C16.3916 1.30181 16.4149 1.27495 16.44 1.24988ZM14.9072 1.25883L13.9438 2.2222C13.9241 2.2419 13.9134 2.26876 13.9134 2.29741C13.9134 2.32427 13.9223 2.35113 13.942 2.37083L13.9438 2.37262L19.7384 8.16717C19.7581 8.18687 19.7849 8.19761 19.8136 8.19761C19.8422 8.19761 19.8691 8.18866 19.8888 8.16896L20.8522 7.20559C20.8719 7.18589 20.8826 7.15903 20.8826 7.13038C20.8826 7.10352 20.8719 7.07487 20.8522 7.05518L19.3641 5.56714L15.0576 1.25883C15.0379 1.23913 15.0093 1.22839 14.9824 1.22839C14.9538 1.22839 14.9269 1.23734 14.9072 1.25883ZM2.99218 13.3243L8.78674 19.1188L10.0599 20.392C10.0796 20.4117 10.1082 20.4206 10.1351 20.4206C10.1584 20.4206 10.1817 20.4135 10.2014 20.3991L10.2103 20.3902L11.1737 19.4268C11.1934 19.4071 11.2041 19.3802 11.2041 19.3516C11.2041 19.3247 11.1934 19.2961 11.1737 19.2764L2.72179 10.8281C2.7021 10.8084 2.67524 10.7976 2.64659 10.7976C2.61973 10.7976 2.59108 10.8084 2.57138 10.8281L1.60801 11.7915C1.58831 11.8112 1.57936 11.8398 1.57936 11.8667C1.57936 11.8935 1.5901 11.9222 1.6098 11.9419L2.99218 13.3243ZM8.17613 19.7491L8.16717 19.7402L2.37083 13.9438L2.36008 13.9331C2.34038 13.9188 2.3189 13.9116 2.29562 13.9116C2.26876 13.9116 2.2419 13.9223 2.22041 13.9438L1.25704 14.9072C1.23734 14.9269 1.22839 14.9555 1.22839 14.9824C1.22839 15.0057 1.23555 15.029 1.24988 15.0487L1.25883 15.0576L2.64121 16.44L5.56356 19.3623L7.05339 20.8522C7.07487 20.8737 7.10173 20.8826 7.12859 20.8826C7.15187 20.8826 7.17515 20.8754 7.19485 20.8611L7.2038 20.8522L8.16717 19.8888C8.18687 19.8691 8.19582 19.8404 8.19582 19.8136C8.19582 19.7903 8.18866 19.767 8.17613 19.7491ZM1.87123 17.0596L0.907862 18.0229C0.888164 18.0426 0.87742 18.0695 0.87742 18.0981C0.87742 18.1268 0.888164 18.1536 0.907862 18.1733L3.83021 21.0957C3.84991 21.1154 3.87677 21.1261 3.90542 21.1261C3.93228 21.1261 3.96093 21.1154 3.98062 21.0957L4.944 20.1323C4.96369 20.1126 4.97444 20.0858 4.97444 20.0571C4.97444 20.0285 4.96369 20.0016 4.944 19.9819L2.01986 17.0596L2.01807 17.0578C1.99837 17.0381 1.97151 17.0291 1.94465 17.0291C1.91779 17.0291 1.89093 17.0399 1.87123 17.0596Z" fill="#78B0A3"/>
</g>
</svg>
