<svg width="20" height="20" viewBox="0 0 20 20" fill="none" xmlns="http://www.w3.org/2000/svg">
<g id="Group 1171275731">
<path id="Vector" d="M17.453 5.56255H15.7978L11.7366 9.62194C11.8765 9.97841 11.8894 10.3722 11.7731 10.737C11.6567 11.1019 11.4184 11.4155 11.098 11.6253C10.7776 11.835 10.3947 11.9281 10.0138 11.8888C9.63292 11.8494 9.27716 11.6802 9.00639 11.4094C8.73561 11.1386 8.56633 10.7828 8.527 10.4019C8.48768 10.021 8.58071 9.63818 8.79046 9.31779C9.00021 8.99741 9.31388 8.75902 9.67873 8.64271C10.0436 8.52639 10.4373 8.53926 10.7938 8.67913L14.8541 4.61886V2.96362C14.8542 2.74213 14.9422 2.52972 15.0987 2.37303L16.6374 0.834305C16.6658 0.805562 16.7016 0.785146 16.7408 0.775269C16.78 0.765391 16.8211 0.766429 16.8598 0.778271C16.9389 0.801396 16.9976 0.867214 17.0137 0.948153L17.4228 2.99475L19.4685 3.40389C19.5485 3.4199 19.6144 3.4786 19.6375 3.55776C19.6492 3.59621 19.6502 3.63711 19.6405 3.67611C19.6308 3.71511 19.6107 3.75074 19.5823 3.77923L18.0427 5.31795C17.9653 5.39548 17.8734 5.45698 17.7722 5.49895C17.671 5.54092 17.5626 5.56253 17.453 5.56255Z" fill="white"/>
<path id="Vector_2" d="M1.84609 10.2321C1.84609 12.4436 2.7246 14.5646 4.28837 16.1283C5.85213 17.6921 7.97305 18.5706 10.1846 18.5706C11.2796 18.5706 12.3639 18.3549 13.3755 17.9359C14.3872 17.5168 15.3064 16.9026 16.0807 16.1283C16.855 15.354 17.4692 14.4348 17.8883 13.4231C18.3073 12.4115 18.523 11.3272 18.523 10.2321C18.523 9.43342 18.4109 8.66139 18.2019 7.93116C18.1604 7.7635 18.1855 7.58625 18.272 7.43672C18.3585 7.28719 18.4996 7.17704 18.6656 7.12945C18.8317 7.08186 19.0097 7.10054 19.1623 7.18155C19.3148 7.26257 19.43 7.3996 19.4836 7.56382C19.7273 8.41235 19.8572 9.30712 19.8572 10.2321C19.8572 15.5741 15.5265 19.9048 10.1846 19.9048C4.8426 19.9048 0.511932 15.5741 0.511932 10.2321C0.511932 4.89018 4.8426 0.559514 10.1846 0.559514C11.0873 0.558625 11.9848 0.684035 12.8529 0.932188C12.9375 0.955931 13.0166 0.996169 13.0857 1.05059C13.1547 1.10501 13.2123 1.17254 13.2551 1.2493C13.298 1.32605 13.3253 1.41052 13.3354 1.49785C13.3455 1.58517 13.3382 1.67363 13.314 1.75814C13.2898 1.84266 13.2491 1.92155 13.1943 1.99029C13.1395 2.05903 13.0717 2.11626 12.9947 2.15869C12.9177 2.20113 12.8331 2.22792 12.7457 2.23754C12.6583 2.24716 12.5699 2.23942 12.4855 2.21475C11.7372 2.00105 10.9628 1.89297 10.1846 1.89367C7.97305 1.89367 5.85213 2.77218 4.28837 4.33595C2.7246 5.89971 1.84609 8.02064 1.84609 10.2321Z" fill="white"/>
<path id="Vector_3" d="M5.84856 10.2322C5.85104 10.8213 5.97356 11.4037 6.20864 11.9438C6.44373 12.484 6.78643 12.9706 7.21584 13.3739C7.64525 13.7772 8.15235 14.0887 8.70619 14.2895C9.26002 14.4902 9.84896 14.576 10.4371 14.5416C11.0251 14.5072 11.6 14.3532 12.1267 14.0892C12.6533 13.8251 13.1205 13.4565 13.5 13.0059C13.8794 12.5552 14.1629 12.032 14.3334 11.4681C14.5038 10.9042 14.5575 10.3114 14.4912 9.72608C14.4725 9.60753 14.4863 9.48613 14.531 9.37475C14.5757 9.26337 14.6497 9.16616 14.7451 9.09341C14.8406 9.02066 14.9539 8.97509 15.0732 8.96151C15.1924 8.94794 15.3131 8.96687 15.4225 9.01631C15.6457 9.11592 15.796 9.3285 15.8156 9.5722C15.9537 10.742 15.7239 11.9258 15.1582 12.959C14.5925 13.9923 13.7189 14.8236 12.6589 15.3374C11.599 15.8512 10.4053 16.0221 9.24371 15.8262C8.08216 15.6303 7.01048 15.0775 6.17765 14.2444C5.34505 13.4123 4.79202 12.3417 4.59528 11.1811C4.39853 10.0205 4.56782 8.82744 5.07966 7.7674C5.5915 6.70735 6.42053 5.83285 7.45176 5.26518C8.48298 4.69752 9.66531 4.46482 10.8347 4.59937C10.9231 4.60757 11.009 4.63334 11.0873 4.67516C11.1657 4.71698 11.2348 4.77402 11.2908 4.84292C11.3468 4.91183 11.3885 4.99122 11.4134 5.07644C11.4383 5.16166 11.446 5.251 11.4359 5.33921C11.4258 5.42742 11.3982 5.51274 11.3548 5.59016C11.3113 5.66758 11.2528 5.73554 11.1828 5.79006C11.1127 5.84459 11.0324 5.88457 10.9467 5.90768C10.861 5.93079 10.7715 5.93655 10.6835 5.92463C10.0761 5.85439 9.46063 5.91342 8.87759 6.09783C8.29455 6.28224 7.7571 6.58786 7.30052 6.99464C6.84393 7.40142 6.47853 7.90016 6.2283 8.45812C5.97806 9.01609 5.84865 9.62066 5.84856 10.2322Z" fill="white"/>
</g>
</svg>
