<svg width="36" height="37" viewBox="0 0 36 37" fill="none" xmlns="http://www.w3.org/2000/svg">
<g id="game-icons:jump-across">
<path id="Vector" d="M20.8043 2.40344C19.7738 2.39655 18.6801 3.53912 18.1987 4.48644C17.6228 5.61967 17.2031 7.5359 17.7891 8.61618L16.8307 9.07202C16.4257 8.80321 13.5699 8.13827 12.3739 8.3163C10.4344 8.78472 8.64802 9.78892 6.83374 10.6957L7.68909 12.5707C9.31542 11.838 10.7069 10.5693 12.6032 10.4315C14.1173 10.3214 15.0366 11.2426 16.1741 11.7359C16.0992 16.5802 14.9901 18.8498 12.3751 23.0169C10.5099 24.1976 8.0711 24.2633 5.75803 24.6125L6.64538 26.604C9.51595 26.2229 12.2856 25.8963 14.3057 24.7301C18.3911 21.7934 20.3291 20.3491 24.7501 18.2346C26.8806 18.8977 27.6496 20.9844 28.6194 22.5271L30.3184 20.9359C29.4395 19.0122 27.2141 16.599 24.7501 15.025C23.1545 15.5202 21.6502 16.221 20.2408 17.1351C20.7077 15.4005 20.7084 13.9867 20.1228 12.252C21.444 12.7353 22.7168 12.9753 23.9394 12.9648C25.8756 11.5304 26.9406 9.70891 28.3451 8.03828L27 6.91933C25.8427 8.25013 25.174 9.58087 23.5263 10.9117C22.3786 10.8203 21.2584 10.318 20.1433 9.73816L19.9512 9.20273C21.0347 8.73585 22.072 7.50932 22.4356 6.4746C22.8964 5.16348 22.5462 2.95504 21.24 2.48057C21.1003 2.43 20.9529 2.40396 20.8043 2.40344ZM1.26562 27.9734V35.7078H11.25V27.9734H1.26562ZM24.75 27.9734V35.7078H34.7344V27.9734H24.75Z" fill="#78B0A3"/>
</g>
</svg>
