<svg width="36" height="37" viewBox="0 0 36 37" fill="none" xmlns="http://www.w3.org/2000/svg">
<g id="tabler:walk">
<g id="Group">
<path id="Vector" d="M10.5 32.4734L15 26.4734M24 32.4734L21 26.4734L16.5 21.9734L18 12.9734M18 6.97342C18 7.37124 18.158 7.75277 18.4393 8.03408C18.7206 8.31538 19.1022 8.47342 19.5 8.47342C19.8978 8.47342 20.2794 8.31538 20.5607 8.03408C20.842 7.75277 21 7.37124 21 6.97342C21 6.57559 20.842 6.19406 20.5607 5.91276C20.2794 5.63145 19.8978 5.47342 19.5 5.47342C19.1022 5.47342 18.7206 5.63145 18.4393 5.91276C18.158 6.19406 18 6.57559 18 6.97342Z" stroke="#78B0A3" stroke-width="2" stroke-linecap="round" stroke-linejoin="round"/>
<path id="Vector_2" d="M9 18.9734L12 14.4734L18 12.9734L22.5 17.4734L27 18.9734" stroke="#78B0A3" stroke-width="2" stroke-linecap="round" stroke-linejoin="round"/>
</g>
</g>
</svg>
