<svg width="15" height="12" viewBox="0 0 15 12" fill="none" xmlns="http://www.w3.org/2000/svg">
<g id="Group">
<path id="Vector" d="M4.87109 12H1.87109C1.47327 12 1.09174 11.842 0.810434 11.5607C0.529129 11.2794 0.371094 10.8978 0.371094 10.5V1.5C0.371094 1.10218 0.529129 0.720644 0.810434 0.43934C1.09174 0.158035 1.47327 0 1.87109 0H4.87109V1.5H1.87109V10.5H4.87109V12Z" fill="#BB2525"/>
<path id="Vector_2" d="M8.86701 10.0387L9.93201 8.98275L6.99201 6.018H13.85C14.0489 6.018 14.2397 5.93898 14.3803 5.79833C14.521 5.65768 14.6 5.46691 14.6 5.268C14.6 5.06909 14.521 4.87832 14.3803 4.73767C14.2397 4.59702 14.0489 4.518 13.85 4.518H6.97851L9.96351 1.55775L8.90751 0.492748L4.11426 5.2455L8.86701 10.0387Z" fill="#BB2525"/>
</g>
</svg>
