<svg width="16" height="27" viewBox="0 0 16 27" fill="none" xmlns="http://www.w3.org/2000/svg">
<g id="Icon">
<g id="Icon_2">
<path fill-rule="evenodd" clip-rule="evenodd" d="M10.1863 12.4923C13.0501 12.4923 15.3783 10.2699 15.3783 7.53621V5.44944C15.3783 5.01643 15.0122 4.6669 14.5585 4.6669H12.3724C10.9979 4.6669 9.74903 5.18337 8.81992 6.01808V1.27589C8.81992 0.842882 8.45374 0.493347 8.00011 0.493347C7.54649 0.493347 7.18031 0.842882 7.18031 1.27589V6.01808C6.25119 5.18337 5.00236 4.6669 3.62782 4.6669H1.44168C0.988051 4.6669 0.621872 5.01643 0.621872 5.44944V7.53621C0.621872 10.2699 2.95012 12.4923 5.81397 12.4923H7.18031V17.1875H5.81397C3.85463 17.1875 2.26148 15.6668 2.26148 13.7965V13.014C2.26148 12.581 1.8953 12.2315 1.44168 12.2315C0.988051 12.2315 0.621872 12.581 0.621872 13.014V13.7965C0.621872 16.5302 2.95012 18.7526 5.81397 18.7526H7.18031V23.4479H5.81397C3.85463 23.4479 2.26148 21.9271 2.26148 20.0569V19.5352C2.26148 19.1022 1.8953 18.7526 1.44168 18.7526C0.988051 18.7526 0.621872 19.1022 0.621872 19.5352V20.0569C0.621872 22.7905 2.95012 25.0129 5.81397 25.0129H7.18031V25.5346C7.18031 25.9676 7.54649 26.3172 8.00011 26.3172C8.45374 26.3172 8.81992 25.9676 8.81992 25.5346V25.0129H10.1863C13.0501 25.0129 15.3783 22.7905 15.3783 20.0569V19.2743C15.3783 18.8413 15.0122 18.4918 14.5585 18.4918C14.1049 18.4918 13.7387 18.8413 13.7387 19.2743V20.0569C13.7387 21.9271 12.1456 23.4479 10.1863 23.4479H8.81992V18.7526H10.1863C13.0501 18.7526 15.3783 16.5302 15.3783 13.7965V13.014C15.3783 12.581 15.0122 12.2315 14.5585 12.2315C14.1049 12.2315 13.7387 12.581 13.7387 13.014V13.7965C13.7387 15.6668 12.1456 17.1875 10.1863 17.1875H8.81992V12.4923H10.1863ZM12.3725 6.23184H13.7388V7.53608C13.7388 9.40635 12.1457 10.9271 10.1863 10.9271H8.82V9.62285C8.82 7.75258 10.4131 6.23184 12.3725 6.23184ZM2.26148 6.23184V7.53608C2.26148 9.40635 3.85463 10.9271 5.81396 10.9271H7.1803V9.62285C7.1803 7.75258 5.58715 6.23184 3.62782 6.23184H2.26148Z" fill="#1A95B0"/>
<path d="M8.81992 6.01808H8.63546V6.43176L8.94319 6.1553L8.81992 6.01808ZM7.18031 6.01808L7.05703 6.1553L7.36476 6.43176V6.01808H7.18031ZM7.18031 12.4923H7.36476V12.3078H7.18031V12.4923ZM7.18031 17.1875V17.372H7.36476V17.1875H7.18031ZM7.18031 18.7526H7.36476V18.5682H7.18031V18.7526ZM7.18031 23.4479V23.6323H7.36476V23.4479H7.18031ZM7.18031 25.0129H7.36476V24.8285H7.18031V25.0129ZM8.81992 25.0129V24.8285H8.63546V25.0129H8.81992ZM8.81992 23.4479H8.63546V23.6323H8.81992V23.4479ZM8.81992 18.7526V18.5682H8.63546V18.7526H8.81992ZM8.81992 17.1875H8.63546V17.372H8.81992V17.1875ZM8.81992 12.4923V12.3078H8.63546V12.4923H8.81992ZM13.7388 6.23184H13.9233V6.04739H13.7388V6.23184ZM8.82 10.9271H8.63554V11.1115H8.82V10.9271ZM2.26148 6.23184V6.04739H2.07702V6.23184H2.26148ZM7.1803 10.9271V11.1115H7.36476V10.9271H7.1803ZM15.1939 7.53621C15.1939 10.16 12.9564 12.3078 10.1863 12.3078V12.6768C13.1438 12.6768 15.5628 10.3798 15.5628 7.53621H15.1939ZM15.1939 5.44944V7.53621H15.5628V5.44944H15.1939ZM14.5585 4.85135C14.9185 4.85135 15.1939 5.1263 15.1939 5.44944H15.5628C15.5628 4.90657 15.1059 4.48244 14.5585 4.48244V4.85135ZM12.3724 4.85135H14.5585V4.48244H12.3724V4.85135ZM8.94319 6.1553C9.83943 5.35011 11.0447 4.85135 12.3724 4.85135V4.48244C10.951 4.48244 9.65862 5.01663 8.69664 5.88087L8.94319 6.1553ZM8.63546 1.27589V6.01808H9.00437V1.27589H8.63546ZM8.00011 0.677803C8.36004 0.677803 8.63546 0.952747 8.63546 1.27589H9.00437C9.00437 0.733017 8.54743 0.308891 8.00011 0.308891V0.677803ZM7.36476 1.27589C7.36476 0.952747 7.64018 0.677803 8.00011 0.677803V0.308891C7.45279 0.308891 6.99585 0.733017 6.99585 1.27589H7.36476ZM7.36476 6.01808V1.27589H6.99585V6.01808H7.36476ZM3.62782 4.85135C4.95554 4.85135 6.16079 5.35011 7.05703 6.1553L7.30358 5.88087C6.3416 5.01663 5.04918 4.48244 3.62782 4.48244V4.85135ZM1.44168 4.85135H3.62782V4.48244H1.44168V4.85135ZM0.806328 5.44944C0.806328 5.1263 1.08174 4.85135 1.44168 4.85135V4.48244C0.89436 4.48244 0.437416 4.90657 0.437416 5.44944H0.806328ZM0.806328 7.53621V5.44944H0.437416V7.53621H0.806328ZM5.81397 12.3078C3.04381 12.3078 0.806328 10.16 0.806328 7.53621H0.437416C0.437416 10.3798 2.85642 12.6768 5.81397 12.6768V12.3078ZM7.18031 12.3078H5.81397V12.6768H7.18031V12.3078ZM7.36476 17.1875V12.4923H6.99585V17.1875H7.36476ZM5.81397 17.372H7.18031V17.0031H5.81397V17.372ZM2.07702 13.7965C2.07702 15.7767 3.76094 17.372 5.81397 17.372V17.0031C3.94833 17.0031 2.44594 15.5569 2.44594 13.7965H2.07702ZM2.07702 13.014V13.7965H2.44594V13.014H2.07702ZM1.44168 12.4159C1.80161 12.4159 2.07702 12.6909 2.07702 13.014H2.44594C2.44594 12.4711 1.98899 12.047 1.44168 12.047V12.4159ZM0.806328 13.014C0.806328 12.6909 1.08174 12.4159 1.44168 12.4159V12.047C0.89436 12.047 0.437416 12.4711 0.437416 13.014H0.806328ZM0.806328 13.7965V13.014H0.437416V13.7965H0.806328ZM5.81397 18.5682C3.04381 18.5682 0.806328 16.4203 0.806328 13.7965H0.437416C0.437416 16.6401 2.85642 18.9371 5.81397 18.9371V18.5682ZM7.18031 18.5682H5.81397V18.9371H7.18031V18.5682ZM7.36476 23.4479V18.7526H6.99585V23.4479H7.36476ZM5.81397 23.6323H7.18031V23.2634H5.81397V23.6323ZM2.07702 20.0569C2.07702 22.037 3.76094 23.6323 5.81397 23.6323V23.2634C3.94833 23.2634 2.44594 21.8173 2.44594 20.0569H2.07702ZM2.07702 19.5352V20.0569H2.44594V19.5352H2.07702ZM1.44168 18.9371C1.80161 18.9371 2.07702 19.212 2.07702 19.5352H2.44594C2.44594 18.9923 1.98899 18.5682 1.44168 18.5682V18.9371ZM0.806328 19.5352C0.806328 19.212 1.08174 18.9371 1.44168 18.9371V18.5682C0.894359 18.5682 0.437416 18.9923 0.437416 19.5352H0.806328ZM0.806328 20.0569V19.5352H0.437416V20.0569H0.806328ZM5.81397 24.8285C3.04381 24.8285 0.806328 22.6807 0.806328 20.0569H0.437416C0.437416 22.9004 2.85642 25.1974 5.81397 25.1974V24.8285ZM7.18031 24.8285H5.81397V25.1974H7.18031V24.8285ZM7.36476 25.5346V25.0129H6.99585V25.5346H7.36476ZM8.00011 26.1327C7.64018 26.1327 7.36476 25.8578 7.36476 25.5346H6.99585C6.99585 26.0775 7.45279 26.5016 8.00011 26.5016V26.1327ZM8.63546 25.5346C8.63546 25.8578 8.36004 26.1327 8.00011 26.1327V26.5016C8.54743 26.5016 9.00437 26.0775 9.00437 25.5346H8.63546ZM8.63546 25.0129V25.5346H9.00437V25.0129H8.63546ZM10.1863 24.8285H8.81992V25.1974H10.1863V24.8285ZM15.1939 20.0569C15.1939 22.6807 12.9564 24.8285 10.1863 24.8285V25.1974C13.1438 25.1974 15.5628 22.9004 15.5628 20.0569H15.1939ZM15.1939 19.2743V20.0569H15.5628V19.2743H15.1939ZM14.5585 18.6762C14.9185 18.6762 15.1939 18.9512 15.1939 19.2743H15.5628C15.5628 18.7314 15.1059 18.3073 14.5585 18.3073V18.6762ZM13.9232 19.2743C13.9232 18.9512 14.1986 18.6762 14.5585 18.6762V18.3073C14.0112 18.3073 13.5543 18.7314 13.5543 19.2743H13.9232ZM13.9232 20.0569V19.2743H13.5543V20.0569H13.9232ZM10.1863 23.6323C12.2393 23.6323 13.9232 22.037 13.9232 20.0569H13.5543C13.5543 21.8173 12.0519 23.2634 10.1863 23.2634V23.6323ZM8.81992 23.6323H10.1863V23.2634H8.81992V23.6323ZM8.63546 18.7526V23.4479H9.00437V18.7526H8.63546ZM10.1863 18.5682H8.81992V18.9371H10.1863V18.5682ZM15.1939 13.7965C15.1939 16.4203 12.9564 18.5682 10.1863 18.5682V18.9371C13.1438 18.9371 15.5628 16.6401 15.5628 13.7965H15.1939ZM15.1939 13.014V13.7965H15.5628V13.014H15.1939ZM14.5585 12.4159C14.9185 12.4159 15.1939 12.6909 15.1939 13.014H15.5628C15.5628 12.4711 15.1059 12.047 14.5585 12.047V12.4159ZM13.9232 13.014C13.9232 12.6909 14.1986 12.4159 14.5585 12.4159V12.047C14.0112 12.047 13.5543 12.4711 13.5543 13.014H13.9232ZM13.9232 13.7965V13.014H13.5543V13.7965H13.9232ZM10.1863 17.372C12.2393 17.372 13.9232 15.7767 13.9232 13.7965H13.5543C13.5543 15.5569 12.0519 17.0031 10.1863 17.0031V17.372ZM8.81992 17.372H10.1863V17.0031H8.81992V17.372ZM8.63546 12.4923V17.1875H9.00437V12.4923H8.63546ZM10.1863 12.3078H8.81992V12.6768H10.1863V12.3078ZM13.7388 6.04739H12.3725V6.4163H13.7388V6.04739ZM13.9233 7.53608V6.23184H13.5544V7.53608H13.9233ZM10.1863 11.1115C12.2394 11.1115 13.9233 9.51621 13.9233 7.53608H13.5544C13.5544 9.29649 12.052 10.7426 10.1863 10.7426V11.1115ZM8.82 11.1115H10.1863V10.7426H8.82V11.1115ZM8.63554 9.62285V10.9271H9.00445V9.62285H8.63554ZM12.3725 6.04739C10.3195 6.04739 8.63554 7.64272 8.63554 9.62285H9.00445C9.00445 7.86245 10.5068 6.4163 12.3725 6.4163V6.04739ZM2.44593 7.53608V6.23184H2.07702V7.53608H2.44593ZM5.81396 10.7426C3.94832 10.7426 2.44593 9.29649 2.44593 7.53608H2.07702C2.07702 9.51621 3.76094 11.1115 5.81396 11.1115V10.7426ZM7.1803 10.7426H5.81396V11.1115H7.1803V10.7426ZM6.99585 9.62285V10.9271H7.36476V9.62285H6.99585ZM3.62782 6.4163C5.49346 6.4163 6.99585 7.86245 6.99585 9.62285H7.36476C7.36476 7.64272 5.68084 6.04739 3.62782 6.04739V6.4163ZM2.26148 6.4163H3.62782V6.04739H2.26148V6.4163Z" fill="#709C90"/>
</g>
</g>
</svg>
