<svg width="24" height="27" viewBox="0 0 24 27" fill="none" xmlns="http://www.w3.org/2000/svg">
<path id="Vector" d="M19.3346 6.53175L21.1734 4.71925L22.9628 6.4831L21.124 8.29559C22.7349 10.2829 23.6133 12.7505 23.6155 15.2942C23.6176 17.838 22.7433 20.307 21.1358 22.2969C19.5283 24.2869 17.2829 25.6797 14.7673 26.2473C12.2518 26.8148 9.61524 26.5235 7.28962 25.421C4.96401 24.3185 3.08717 22.4701 1.96654 20.1788C0.845916 17.8874 0.547941 15.2888 1.12143 12.8087C1.69491 10.3285 3.10586 8.11388 5.12315 6.5275C7.14044 4.94113 9.64447 4.07706 12.2251 4.07684C14.9142 4.07684 17.3858 4.99493 19.3346 6.53175ZM12.2251 24.0355C13.3884 24.0355 14.5403 23.8096 15.6151 23.3708C16.6898 22.932 17.6664 22.2888 18.4889 21.4779C19.3115 20.6671 19.964 19.7045 20.4092 18.6451C20.8544 17.5857 21.0835 16.4503 21.0835 15.3036C21.0835 14.1569 20.8544 13.0214 20.4092 11.962C19.964 10.9026 19.3115 9.94001 18.4889 9.12918C17.6664 8.31835 16.6898 7.67516 15.6151 7.23634C14.5403 6.79752 13.3884 6.57166 12.2251 6.57166C9.87567 6.57166 7.62249 7.49163 5.96121 9.12918C4.29993 10.7667 3.36663 12.9877 3.36663 15.3036C3.36663 17.6194 4.29993 19.8404 5.96121 21.4779C7.62249 23.1155 9.87567 24.0355 12.2251 24.0355ZM10.9596 9.06649H13.4906V16.551H10.9596V9.06649ZM7.16311 0.334595H17.287V2.82942H7.16311V0.334595Z" fill="white"/>
</svg>
